solid OpenSCAD_Model
  facet normal -0.361902 -0.0187337 0.932028
    outer loop
      vertex 62.1303 -210.387 51.0209
      vertex 62.0722 -192.715 51.3536
      vertex 28.988 -190.358 38.5545
    endloop
  endfacet
  facet normal -0.358701 0.0310998 0.932934
    outer loop
      vertex 28.988 -190.358 38.5545
      vertex 62.0722 -192.715 51.3536
      vertex 28.9153 -167.131 37.7523
    endloop
  endfacet
  facet normal -0.407137 -0.0426035 0.912373
    outer loop
      vertex 62.0722 -192.715 51.3536
      vertex 62.0286 -175.043 52.1593
      vertex 28.9153 -167.131 37.7523
    endloop
  endfacet
  facet normal -0.413978 -0.0817294 0.90661
    outer loop
      vertex 28.9153 -167.131 37.7523
      vertex 62.0286 -175.043 52.1593
      vertex 28.8427 -149.459 39.3122
    endloop
  endfacet
  facet normal 0.735056 0.00932262 -0.677942
    outer loop
      vertex 86.0608 -100 67.314
      vertex 63.7321 -125.947 42.7475
      vertex 78.2417 -100 58.8362
    endloop
  endfacet
  facet normal 0.735056 0.00932233 -0.677942
    outer loop
      vertex 63.7321 -125.947 42.7475
      vertex 86.0608 -100 67.314
      vertex 85.6467 -142.229 66.2843
    endloop
  endfacet
  facet normal 0.731753 0.0133383 -0.681439
    outer loop
      vertex 78.2417 -100 58.8362
      vertex 63.7321 -125.947 42.7475
      vertex 63.2512 -100 42.7389
    endloop
  endfacet
  facet normal -0.415651 -0.0844069 0.905599
    outer loop
      vertex 62.0286 -175.043 52.1593
      vertex 61.9996 -157.372 53.7931
      vertex 28.8427 -149.459 39.3122
    endloop
  endfacet
  facet normal -0.417138 -0.0935318 0.904018
    outer loop
      vertex 28.8427 -149.459 39.3122
      vertex 61.9996 -157.372 53.7931
      vertex 28.7846 -131.788 41.1138
    endloop
  endfacet
  facet normal -0.74506 -0.0314105 0.666257
    outer loop
      vertex 79.378 -198.712 70.4448
      vertex 79.3635 -181.041 71.2617
      vertex 62.0286 -175.043 52.1593
    endloop
  endfacet
  facet normal -0.748749 -0.0622417 0.659925
    outer loop
      vertex 62.0286 -175.043 52.1593
      vertex 79.3635 -181.041 71.2617
      vertex 61.9996 -157.372 53.7931
    endloop
  endfacet
  facet normal -0.730301 -0.0321436 0.682369
    outer loop
      vertex 79.3635 -181.041 71.2617
      vertex 79.3489 -163.369 72.0786
      vertex 61.9996 -157.372 53.7931
    endloop
  endfacet
  facet normal -0.739667 -0.121735 0.661871
    outer loop
      vertex 61.9996 -157.372 53.7931
      vertex 79.3489 -163.369 72.0786
      vertex 61.956 -139.7 56.9947
    endloop
  endfacet
  facet normal -0.735996 -0.0188597 0.676723
    outer loop
      vertex 79.4361 -234.056 69.1829
      vertex 79.3925 -216.384 69.628
      vertex 62.1303 -210.387 51.0209
    endloop
  endfacet
  facet normal -0.735451 -0.0151692 0.677408
    outer loop
      vertex 62.1303 -210.387 51.0209
      vertex 79.3925 -216.384 69.628
      vertex 62.0722 -192.715 51.3536
    endloop
  endfacet
  facet normal -0.457 -0.159654 0.875021
    outer loop
      vertex 61.9996 -157.372 53.7931
      vertex 61.956 -139.7 56.9947
      vertex 28.7846 -131.788 41.1138
    endloop
  endfacet
  facet normal -0.454843 -0.142398 0.879113
    outer loop
      vertex 28.7846 -131.788 41.1138
      vertex 61.956 -139.7 56.9947
      vertex 28.741 -112.343 44.2409
    endloop
  endfacet
  facet normal -0.4116 -0.0763538 0.908161
    outer loop
      vertex 61.956 -139.7 56.9947
      vertex 61.956 -122.028 58.4804
      vertex 28.741 -112.343 44.2409
    endloop
  endfacet
  facet normal -0.433139 -0.190063 0.88106
    outer loop
      vertex 33.3447 -100 49.1667
      vertex 28.741 -112.343 44.2409
      vertex 61.956 -122.028 58.4804
    endloop
  endfacet
  facet normal -0.433139 -0.190063 0.88106
    outer loop
      vertex 28.741 -112.343 44.2409
      vertex 33.3447 -100 49.1667
      vertex 28.7297 -100 46.898
    endloop
  endfacet
  facet normal -0.681078 -0.0343693 0.731404
    outer loop
      vertex 79.3489 -163.369 72.0786
      vertex 79.3344 -145.697 72.8955
      vertex 61.956 -139.7 56.9947
    endloop
  endfacet
  facet normal -0.68517 -0.0610237 0.725822
    outer loop
      vertex 79.3344 -145.697 72.8955
      vertex 61.956 -122.028 58.4804
      vertex 61.956 -139.7 56.9947
    endloop
  endfacet
  facet normal -0.981608 -0.0100259 0.190642
    outer loop
      vertex 85.2407 -218.447 99.5182
      vertex 85.1765 -143.538 103.127
      vertex 79.3489 -163.369 72.0786
    endloop
  endfacet
  facet normal -0.981662 -0.00960757 0.190385
    outer loop
      vertex 79.3489 -163.369 72.0786
      vertex 85.1765 -143.538 103.127
      vertex 79.3344 -145.697 72.8955
    endloop
  endfacet
  facet normal -0.371987 -0.0926493 0.923603
    outer loop
      vertex 61.956 -122.028 58.4804
      vertex 61.9297 -100 60.6795
      vertex 33.3447 -100 49.1667
    endloop
  endfacet
  facet normal -0.690018 -0.0677556 0.720614
    outer loop
      vertex 79.3344 -145.697 72.8955
      vertex 79.3054 -128.026 74.5293
      vertex 61.956 -122.028 58.4804
    endloop
  endfacet
  facet normal -0.690682 -0.0726537 0.7195
    outer loop
      vertex 67.8335 -100 66.3469
      vertex 61.956 -122.028 58.4804
      vertex 79.3054 -128.026 74.5293
    endloop
  endfacet
  facet normal -0.690681 -0.072654 0.719501
    outer loop
      vertex 61.956 -122.028 58.4804
      vertex 67.8335 -100 66.3469
      vertex 61.9297 -100 60.6795
    endloop
  endfacet
  facet normal -0.981198 0.0518582 0.185905
    outer loop
      vertex 83.6984 -100 83.1812
      vertex 85.1765 -143.538 103.127
      vertex 85.3738 -100 92.024
    endloop
  endfacet
  facet normal -0.981198 0.0518582 0.185905
    outer loop
      vertex 85.1765 -143.538 103.127
      vertex 83.6984 -100 83.1812
      vertex 79.3344 -145.697 72.8955
    endloop
  endfacet
  facet normal -0.805498 -0.0558664 0.58996
    outer loop
      vertex 79.3054 -128.026 74.5293
      vertex 83.6984 -100 83.1812
      vertex 83.0176 -100 82.2517
    endloop
  endfacet
  facet normal -0.805498 -0.0558664 0.58996
    outer loop
      vertex 83.6984 -100 83.1812
      vertex 79.3054 -128.026 74.5293
      vertex 79.3344 -145.697 72.8955
    endloop
  endfacet
  facet normal -0.610255 -0.0185696 0.791987
    outer loop
      vertex 79.3054 -128.026 74.5293
      vertex 79.2938 -100 75.1775
      vertex 67.8335 -100 66.3469
    endloop
  endfacet
  facet normal -0.884836 -0.0111372 0.46577
    outer loop
      vertex 79.3054 -128.026 74.5293
      vertex 83.0176 -100 82.2517
      vertex 79.2938 -100 75.1775
    endloop
  endfacet
  facet normal -0.745425 -0.0313918 0.665849
    outer loop
      vertex 79.3925 -216.384 69.628
      vertex 79.378 -198.712 70.4448
      vertex 62.0722 -192.715 51.3536
    endloop
  endfacet
  facet normal -0.74553 -0.0321907 0.665694
    outer loop
      vertex 62.0722 -192.715 51.3536
      vertex 79.378 -198.712 70.4448
      vertex 62.0286 -175.043 52.1593
    endloop
  endfacet
  facet normal 0.999918 -0.00129019 0.0127163
    outer loop
      vertex 85.1765 -143.538 103.127
      vertex 85.5148 -100 80.9363
      vertex 85.3738 -100 92.024
    endloop
  endfacet
  facet normal 0.999918 -0.00129045 0.0127158
    outer loop
      vertex 85.5148 -100 80.9363
      vertex 85.1765 -143.538 103.127
      vertex 85.6467 -142.229 66.2843
    endloop
  endfacet
  facet normal 0.99914 -0.010775 0.0400446
    outer loop
      vertex 85.6467 -142.229 66.2843
      vertex 86.0608 -100 67.314
      vertex 85.5148 -100 80.9363
    endloop
  endfacet
  facet normal 0.999548 0.00230067 -0.0299707
    outer loop
      vertex 85.1765 -143.538 103.127
      vertex 85.2407 -218.447 99.5182
      vertex 84.2358 -204.484 67.0764
    endloop
  endfacet
  facet normal 0.999675 -0.0225034 0.0119591
    outer loop
      vertex 85.6467 -142.229 66.2843
      vertex 85.1765 -143.538 103.127
      vertex 84.2358 -204.484 67.0764
    endloop
  endfacet
  facet normal 0.607248 -0.154082 -0.779428
    outer loop
      vertex 84.2358 -204.484 67.0764
      vertex 79.4361 -234.056 69.1829
      vertex 62.1303 -210.387 51.0209
    endloop
  endfacet
  facet normal 0.599034 -0.0749528 -0.797208
    outer loop
      vertex 63.6445 -179.806 49.2835
      vertex 84.2358 -204.484 67.0764
      vertex 62.1303 -210.387 51.0209
    endloop
  endfacet
  facet normal 0.636839 -0.024237 -0.770616
    outer loop
      vertex 85.6467 -142.229 66.2843
      vertex 84.2358 -204.484 67.0764
      vertex 63.6445 -179.806 49.2835
    endloop
  endfacet
  facet normal 0.698222 -0.0873627 -0.710531
    outer loop
      vertex 63.7321 -125.947 42.7475
      vertex 85.6467 -142.229 66.2843
      vertex 63.6445 -179.806 49.2835
    endloop
  endfacet
  facet normal 0.31423 -0.0693509 -0.946811
    outer loop
      vertex 63.6445 -179.806 49.2835
      vertex 62.1303 -210.387 51.0209
      vertex 28.988 -190.358 38.5545
    endloop
  endfacet
  facet normal 0.322748 -0.103421 -0.940818
    outer loop
      vertex 63.6445 -179.806 49.2835
      vertex 28.988 -190.358 38.5545
      vertex 28.0071 -153.639 34.1817
    endloop
  endfacet
  facet normal 0.314921 -0.114846 -0.942144
    outer loop
      vertex 63.7321 -125.947 42.7475
      vertex 63.6445 -179.806 49.2835
      vertex 28.0071 -153.639 34.1817
    endloop
  endfacet
  facet normal 0.277835 -0.0619033 -0.958632
    outer loop
      vertex 28.0071 -153.639 34.1817
      vertex 37.1674 -100 33.3728
      vertex 63.7321 -125.947 42.7475
    endloop
  endfacet
  facet normal 0.277835 -0.0619033 -0.958632
    outer loop
      vertex 37.1674 -100 33.3728
      vertex 28.0071 -153.639 34.1817
      vertex 27.7546 -100 30.6448
    endloop
  endfacet
  facet normal 0.337943 0.00595361 -0.941148
    outer loop
      vertex 63.2512 -100 42.7389
      vertex 63.7321 -125.947 42.7475
      vertex 37.1674 -100 33.3728
    endloop
  endfacet
  facet normal -0.981472 -0.00965272 0.191362
    outer loop
      vertex 79.3635 -181.041 71.2617
      vertex 85.2407 -218.447 99.5182
      vertex 79.3489 -163.369 72.0786
    endloop
  endfacet
  facet normal -0.981472 -0.0096526 0.191362
    outer loop
      vertex 79.378 -198.712 70.4448
      vertex 85.2407 -218.447 99.5182
      vertex 79.3635 -181.041 71.2617
    endloop
  endfacet
  facet normal -0.981472 -0.00965257 0.191362
    outer loop
      vertex 79.3925 -216.384 69.628
      vertex 85.2407 -218.447 99.5182
      vertex 79.378 -198.712 70.4448
    endloop
  endfacet
  facet normal 0.980758 -0.166452 -0.102019
    outer loop
      vertex 84.2358 -204.484 67.0764
      vertex 85.2407 -218.447 99.5182
      vertex 79.4361 -234.056 69.1829
    endloop
  endfacet
  facet normal -0.981461 -0.00724433 0.191526
    outer loop
      vertex 79.4361 -234.056 69.1829
      vertex 85.2407 -218.447 99.5182
      vertex 79.3925 -216.384 69.628
    endloop
  endfacet
  facet normal -0.96321 0.00626752 0.268678
    outer loop
      vertex 28.988 -190.358 38.5545
      vertex 28.9153 -167.131 37.7523
      vertex 28.0071 -153.639 34.1817
    endloop
  endfacet
  facet normal -0.98415 -0.0196029 0.176252
    outer loop
      vertex 28.9153 -167.131 37.7523
      vertex 28.8427 -149.459 39.3122
      vertex 28.0071 -153.639 34.1817
    endloop
  endfacet
  facet normal -0.987701 0.00565317 0.156254
    outer loop
      vertex 27.7546 -100 30.6448
      vertex 28.8427 -149.459 39.3122
      vertex 27.8892 -100 31.4955
    endloop
  endfacet
  facet normal -0.987701 0.00565308 0.156254
    outer loop
      vertex 28.8427 -149.459 39.3122
      vertex 27.7546 -100 30.6448
      vertex 28.0071 -153.639 34.1817
    endloop
  endfacet
  facet normal -0.998068 -0.00954002 0.0613869
    outer loop
      vertex 27.8892 -100 31.4955
      vertex 28.7846 -131.788 41.1138
      vertex 27.9528 -100 32.5299
    endloop
  endfacet
  facet normal -0.998068 -0.00953986 0.0613874
    outer loop
      vertex 28.7846 -131.788 41.1138
      vertex 27.8892 -100 31.4955
      vertex 28.8427 -149.459 39.3122
    endloop
  endfacet
  facet normal -0.9984 -0.0111539 0.0554426
    outer loop
      vertex 27.9528 -100 32.5299
      vertex 28.741 -112.343 44.2409
      vertex 28.1519 -100 36.1158
    endloop
  endfacet
  facet normal -0.9984 -0.0111539 0.0554426
    outer loop
      vertex 28.741 -112.343 44.2409
      vertex 27.9528 -100 32.5299
      vertex 28.7846 -131.788 41.1138
    endloop
  endfacet
  facet normal -0.99849 -0.0124313 0.0535087
    outer loop
      vertex 28.741 -112.343 44.2409
      vertex 28.7297 -100 46.898
      vertex 28.1519 -100 36.1158
    endloop
  endfacet
  facet normal 0 1 0
    outer loop
      vertex 85.5148 -100 80.9363
      vertex 83.6984 -100 83.1812
      vertex 85.3738 -100 92.024
    endloop
  endfacet
  facet normal 0 1 0
    outer loop
      vertex 85.5148 -100 80.9363
      vertex 83.0176 -100 82.2517
      vertex 83.6984 -100 83.1812
    endloop
  endfacet
  facet normal 0 1 0
    outer loop
      vertex 85.5148 -100 80.9363
      vertex 79.2938 -100 75.1775
      vertex 83.0176 -100 82.2517
    endloop
  endfacet
  facet normal 0 1 0
    outer loop
      vertex 86.0608 -100 67.314
      vertex 79.2938 -100 75.1775
      vertex 85.5148 -100 80.9363
    endloop
  endfacet
  facet normal 0 1 0
    outer loop
      vertex 78.2417 -100 58.8362
      vertex 79.2938 -100 75.1775
      vertex 86.0608 -100 67.314
    endloop
  endfacet
  facet normal 0 1 0
    outer loop
      vertex 79.2938 -100 75.1775
      vertex 78.2417 -100 58.8362
      vertex 67.8335 -100 66.3469
    endloop
  endfacet
  facet normal 0 1 0
    outer loop
      vertex 67.8335 -100 66.3469
      vertex 78.2417 -100 58.8362
      vertex 61.9297 -100 60.6795
    endloop
  endfacet
  facet normal 0 1 -0
    outer loop
      vertex 63.2512 -100 42.7389
      vertex 61.9297 -100 60.6795
      vertex 78.2417 -100 58.8362
    endloop
  endfacet
  facet normal 0 1 0
    outer loop
      vertex 61.9297 -100 60.6795
      vertex 63.2512 -100 42.7389
      vertex 33.3447 -100 49.1667
    endloop
  endfacet
  facet normal 0 1 -0
    outer loop
      vertex 37.1674 -100 33.3728
      vertex 33.3447 -100 49.1667
      vertex 63.2512 -100 42.7389
    endloop
  endfacet
  facet normal -0 1 0
    outer loop
      vertex 28.1519 -100 36.1158
      vertex 33.3447 -100 49.1667
      vertex 37.1674 -100 33.3728
    endloop
  endfacet
  facet normal 0 1 0
    outer loop
      vertex 33.3447 -100 49.1667
      vertex 28.1519 -100 36.1158
      vertex 28.7297 -100 46.898
    endloop
  endfacet
  facet normal 0 1 0
    outer loop
      vertex 37.1674 -100 33.3728
      vertex 27.9528 -100 32.5299
      vertex 28.1519 -100 36.1158
    endloop
  endfacet
  facet normal 0 1 0
    outer loop
      vertex 37.1674 -100 33.3728
      vertex 27.8892 -100 31.4955
      vertex 27.9528 -100 32.5299
    endloop
  endfacet
  facet normal -0 1 0
    outer loop
      vertex 27.8892 -100 31.4955
      vertex 37.1674 -100 33.3728
      vertex 27.7546 -100 30.6448
    endloop
  endfacet
endsolid OpenSCAD_Model
