solid OpenSCAD_Model
  facet normal 0.735056 0.00932249 -0.677942
    outer loop
      vertex 86.2004 -85.7679 67.6611
      vertex 86.0608 -100 67.314
      vertex 78.2417 -100 58.8362
    endloop
  endfacet
  facet normal 0.731753 0.0133382 -0.681439
    outer loop
      vertex 63.2512 -100 42.7389
      vertex 86.2004 -85.7679 67.6611
      vertex 78.2417 -100 58.8362
    endloop
  endfacet
  facet normal 0.731753 0.0133384 -0.68144
    outer loop
      vertex 86.2004 -85.7679 67.6611
      vertex 63.2512 -100 42.7389
      vertex 62.0983 -37.7996 42.7184
    endloop
  endfacet
  facet normal -0.433139 -0.190063 0.88106
    outer loop
      vertex 28.7297 -100 46.898
      vertex 33.3447 -100 49.1667
      vertex 28.7265 -96.4444 47.6634
    endloop
  endfacet
  facet normal -0.371987 -0.0926492 0.923603
    outer loop
      vertex 61.9124 -85.5347 62.1236
      vertex 33.3447 -100 49.1667
      vertex 61.9297 -100 60.6795
    endloop
  endfacet
  facet normal -0.371987 -0.0926495 0.923603
    outer loop
      vertex 33.3447 -100 49.1667
      vertex 61.9124 -85.5347 62.1236
      vertex 28.7265 -96.4444 47.6634
    endloop
  endfacet
  facet normal -0.362869 -0.120871 0.923968
    outer loop
      vertex 61.9124 -85.5347 62.1236
      vertex 28.7265 -61.1271 52.2835
      vertex 28.7265 -96.4444 47.6634
    endloop
  endfacet
  facet normal -0.690681 -0.0726539 0.719501
    outer loop
      vertex 61.9297 -100 60.6795
      vertex 67.8335 -100 66.3469
      vertex 61.9124 -85.5347 62.1236
    endloop
  endfacet
  facet normal -0.981198 0.0518584 0.185905
    outer loop
      vertex 85.3738 -100 92.024
      vertex 85.4573 -81.5815 87.3269
      vertex 83.6984 -100 83.1812
    endloop
  endfacet
  facet normal -0.805498 -0.0558661 0.58996
    outer loop
      vertex 83.6984 -100 83.1812
      vertex 85.4573 -81.5815 87.3269
      vertex 83.0176 -100 82.2517
    endloop
  endfacet
  facet normal -0.257168 0.0396126 0.965555
    outer loop
      vertex 61.9124 -85.5347 62.1236
      vertex 61.9561 -38.0016 60.1852
      vertex 28.7265 -61.1271 52.2835
    endloop
  endfacet
  facet normal -0.227093 -0.00643785 0.973852
    outer loop
      vertex 61.9561 -38.0016 60.1852
      vertex 28.7702 -14.2486 52.6036
      vertex 28.7265 -61.1271 52.2835
    endloop
  endfacet
  facet normal -0.610255 -0.0185692 0.791987
    outer loop
      vertex 79.2908 -92.7086 75.3461
      vertex 67.8335 -100 66.3469
      vertex 79.2938 -100 75.1775
    endloop
  endfacet
  facet normal -0.610255 -0.0185699 0.791987
    outer loop
      vertex 67.8335 -100 66.3469
      vertex 79.2908 -92.7086 75.3461
      vertex 61.9124 -85.5347 62.1236
    endloop
  endfacet
  facet normal -0.596451 0.033253 0.801961
    outer loop
      vertex 79.2908 -92.7086 75.3461
      vertex 61.9561 -38.0016 60.1852
      vertex 61.9124 -85.5347 62.1236
    endloop
  endfacet
  facet normal -0.897968 0.0245621 0.439374
    outer loop
      vertex 85.4573 -81.5815 87.3269
      vertex 79.3489 -32.1339 72.0786
      vertex 79.2908 -92.7086 75.3461
    endloop
  endfacet
  facet normal -0.12882 0.13366 0.982619
    outer loop
      vertex 61.9561 -38.0016 60.1852
      vertex 61.9996 -11.1546 56.539
      vertex 28.7702 -14.2486 52.6036
    endloop
  endfacet
  facet normal -0.134221 0.209578 0.968536
    outer loop
      vertex 61.9996 -11.1546 56.539
      vertex 28.8137 20.4532 45.1006
      vertex 28.7702 -14.2486 52.6036
    endloop
  endfacet
  facet normal -0.574117 0.0446512 0.817555
    outer loop
      vertex 79.2908 -92.7086 75.3461
      vertex 79.3489 -32.1339 72.0786
      vertex 61.9561 -38.0016 60.1852
    endloop
  endfacet
  facet normal -0.58605 0.109975 0.802777
    outer loop
      vertex 79.3489 -32.1339 72.0786
      vertex 61.9996 -11.1546 56.539
      vertex 61.9561 -38.0016 60.1852
    endloop
  endfacet
  facet normal -0.500923 0.208033 0.840118
    outer loop
      vertex 79.3489 -32.1339 72.0786
      vertex 79.4361 -12.1306 67.1773
      vertex 61.9996 -11.1546 56.539
    endloop
  endfacet
  facet normal -0.489563 0.27459 0.827604
    outer loop
      vertex 79.4361 -12.1306 67.1773
      vertex 62.0364 8.08685 50.1768
      vertex 61.9996 -11.1546 56.539
    endloop
  endfacet
  facet normal -0.0281792 0.313863 0.94905
    outer loop
      vertex 61.9996 -11.1546 56.539
      vertex 62.0364 8.08685 50.1768
      vertex 28.8137 20.4532 45.1006
    endloop
  endfacet
  facet normal 0.193881 0.770259 0.607545
    outer loop
      vertex 62.0364 8.08685 50.1768
      vertex 28.988 26.9911 36.7561
      vertex 28.8137 20.4532 45.1006
    endloop
  endfacet
  facet normal -0.884836 -0.0111369 0.46577
    outer loop
      vertex 83.0176 -100 82.2517
      vertex 79.2908 -92.7086 75.3461
      vertex 79.2938 -100 75.1775
    endloop
  endfacet
  facet normal -0.884836 -0.0111369 0.46577
    outer loop
      vertex 79.2908 -92.7086 75.3461
      vertex 83.0176 -100 82.2517
      vertex 85.4573 -81.5815 87.3269
    endloop
  endfacet
  facet normal -0.433353 0.216259 0.874893
    outer loop
      vertex 85.4573 -81.5815 87.3269
      vertex 79.4361 -12.1306 67.1773
      vertex 79.3489 -32.1339 72.0786
    endloop
  endfacet
  facet normal 0.999918 -0.00129037 0.0127163
    outer loop
      vertex 85.5148 -100 80.9363
      vertex 85.4573 -81.5815 87.3269
      vertex 85.3738 -100 92.024
    endloop
  endfacet
  facet normal 0.99914 -0.0107748 0.0400447
    outer loop
      vertex 85.5148 -100 80.9363
      vertex 86.2004 -85.7679 67.6611
      vertex 85.4573 -81.5815 87.3269
    endloop
  endfacet
  facet normal 0.99914 -0.0107749 0.0400446
    outer loop
      vertex 86.2004 -85.7679 67.6611
      vertex 85.5148 -100 80.9363
      vertex 86.0608 -100 67.314
    endloop
  endfacet
  facet normal 0.995633 0.0915773 0.0181238
    outer loop
      vertex 85.4573 -81.5815 87.3269
      vertex 86.2004 -85.7679 67.6611
      vertex 79.4361 -12.1306 67.1773
    endloop
  endfacet
  facet normal 0.779186 0.0674816 -0.623149
    outer loop
      vertex 79.4361 -12.1306 67.1773
      vertex 86.2004 -85.7679 67.6611
      vertex 62.0983 -37.7996 42.7184
    endloop
  endfacet
  facet normal 0.755265 0.106144 -0.646768
    outer loop
      vertex 79.4361 -12.1306 67.1773
      vertex 62.0983 -37.7996 42.7184
      vertex 62.0364 8.08685 50.1768
    endloop
  endfacet
  facet normal 0.277835 -0.0619034 -0.958632
    outer loop
      vertex 37.1674 -100 33.3728
      vertex 27.7546 -100 30.6448
      vertex 27.7111 -90.7638 30.0358
    endloop
  endfacet
  facet normal 0.337943 0.00595381 -0.941148
    outer loop
      vertex 27.7111 -90.7638 30.0358
      vertex 63.2512 -100 42.7389
      vertex 37.1674 -100 33.3728
    endloop
  endfacet
  facet normal 0.337943 0.00595359 -0.941148
    outer loop
      vertex 63.2512 -100 42.7389
      vertex 27.7111 -90.7638 30.0358
      vertex 62.0983 -37.7996 42.7184
    endloop
  endfacet
  facet normal 0.337606 0.00620132 -0.941267
    outer loop
      vertex 27.7256 3.35303 30.661
      vertex 62.0983 -37.7996 42.7184
      vertex 27.7111 -90.7638 30.0358
    endloop
  endfacet
  facet normal 0.474554 0.141842 -0.868723
    outer loop
      vertex 62.0364 8.08685 50.1768
      vertex 62.0983 -37.7996 42.7184
      vertex 27.7256 3.35303 30.661
    endloop
  endfacet
  facet normal 0.463863 0.197887 -0.863523
    outer loop
      vertex 28.988 26.9911 36.7561
      vertex 62.0364 8.08685 50.1768
      vertex 27.7256 3.35303 30.661
    endloop
  endfacet
  facet normal -0.987701 0.00565323 0.156254
    outer loop
      vertex 27.7546 -100 30.6448
      vertex 27.8892 -100 31.4955
      vertex 27.7111 -90.7638 30.0358
    endloop
  endfacet
  facet normal -0.998068 -0.00953989 0.0613869
    outer loop
      vertex 27.8892 -100 31.4955
      vertex 27.9528 -100 32.5299
      vertex 27.7111 -90.7638 30.0358
    endloop
  endfacet
  facet normal -0.9984 -0.0111537 0.0554426
    outer loop
      vertex 27.9528 -100 32.5299
      vertex 28.1519 -100 36.1158
      vertex 27.7111 -90.7638 30.0358
    endloop
  endfacet
  facet normal -0.99849 -0.0124311 0.0535087
    outer loop
      vertex 28.1519 -100 36.1158
      vertex 28.7265 -96.4444 47.6634
      vertex 27.7111 -90.7638 30.0358
    endloop
  endfacet
  facet normal -0.99849 -0.0124311 0.0535087
    outer loop
      vertex 28.7265 -96.4444 47.6634
      vertex 28.1519 -100 36.1158
      vertex 28.7297 -100 46.898
    endloop
  endfacet
  facet normal -0.99845 -0.00721925 0.0551859
    outer loop
      vertex 28.7265 -96.4444 47.6634
      vertex 28.7265 -61.1271 52.2835
      vertex 27.7111 -90.7638 30.0358
    endloop
  endfacet
  facet normal -0.998951 -0.000150041 0.0457918
    outer loop
      vertex 28.7265 -61.1271 52.2835
      vertex 27.7256 3.35303 30.661
      vertex 27.7111 -90.7638 30.0358
    endloop
  endfacet
  facet normal -0.998846 0.00060317 0.048033
    outer loop
      vertex 28.7265 -61.1271 52.2835
      vertex 28.7702 -14.2486 52.6036
      vertex 27.7256 3.35303 30.661
    endloop
  endfacet
  facet normal -0.998178 0.013942 0.0587012
    outer loop
      vertex 28.7702 -14.2486 52.6036
      vertex 28.8137 20.4532 45.1006
      vertex 27.7256 3.35303 30.661
    endloop
  endfacet
  facet normal -0.998655 0.0488425 0.0174061
    outer loop
      vertex 28.8137 20.4532 45.1006
      vertex 28.988 26.9911 36.7561
      vertex 27.7256 3.35303 30.661
    endloop
  endfacet
  facet normal 0 -1 0
    outer loop
      vertex 83.6984 -100 83.1812
      vertex 85.5148 -100 80.9363
      vertex 85.3738 -100 92.024
    endloop
  endfacet
  facet normal 0 -1 0
    outer loop
      vertex 83.0176 -100 82.2517
      vertex 85.5148 -100 80.9363
      vertex 83.6984 -100 83.1812
    endloop
  endfacet
  facet normal 0 -1 0
    outer loop
      vertex 79.2938 -100 75.1775
      vertex 85.5148 -100 80.9363
      vertex 83.0176 -100 82.2517
    endloop
  endfacet
  facet normal 0 -1 0
    outer loop
      vertex 79.2938 -100 75.1775
      vertex 86.0608 -100 67.314
      vertex 85.5148 -100 80.9363
    endloop
  endfacet
  facet normal 0 -1 0
    outer loop
      vertex 78.2417 -100 58.8362
      vertex 79.2938 -100 75.1775
      vertex 67.8335 -100 66.3469
    endloop
  endfacet
  facet normal 0 -1 0
    outer loop
      vertex 78.2417 -100 58.8362
      vertex 67.8335 -100 66.3469
      vertex 61.9297 -100 60.6795
    endloop
  endfacet
  facet normal 0 -1 -0
    outer loop
      vertex 79.2938 -100 75.1775
      vertex 78.2417 -100 58.8362
      vertex 86.0608 -100 67.314
    endloop
  endfacet
  facet normal 0 -1 0
    outer loop
      vertex 63.2512 -100 42.7389
      vertex 61.9297 -100 60.6795
      vertex 33.3447 -100 49.1667
    endloop
  endfacet
  facet normal 0 -1 0
    outer loop
      vertex 28.1519 -100 36.1158
      vertex 33.3447 -100 49.1667
      vertex 28.7297 -100 46.898
    endloop
  endfacet
  facet normal 0 -1 0
    outer loop
      vertex 61.9297 -100 60.6795
      vertex 63.2512 -100 42.7389
      vertex 78.2417 -100 58.8362
    endloop
  endfacet
  facet normal 0 -1 -0
    outer loop
      vertex 33.3447 -100 49.1667
      vertex 28.1519 -100 36.1158
      vertex 37.1674 -100 33.3728
    endloop
  endfacet
  facet normal 0 -1 0
    outer loop
      vertex 33.3447 -100 49.1667
      vertex 37.1674 -100 33.3728
      vertex 63.2512 -100 42.7389
    endloop
  endfacet
  facet normal 0 -1 0
    outer loop
      vertex 27.9528 -100 32.5299
      vertex 37.1674 -100 33.3728
      vertex 28.1519 -100 36.1158
    endloop
  endfacet
  facet normal 0 -1 0
    outer loop
      vertex 27.8892 -100 31.4955
      vertex 37.1674 -100 33.3728
      vertex 27.9528 -100 32.5299
    endloop
  endfacet
  facet normal 0 -1 0
    outer loop
      vertex 37.1674 -100 33.3728
      vertex 27.8892 -100 31.4955
      vertex 27.7546 -100 30.6448
    endloop
  endfacet
endsolid OpenSCAD_Model
