solid OpenSCAD_Model
  facet normal -1 0 0
    outer loop
      vertex 0 16 9
      vertex 0 26 0
      vertex 0 16 4
    endloop
  endfacet
  facet normal -1 0 0
    outer loop
      vertex 0 -4.5 0
      vertex 0 16 4
      vertex 0 26 0
    endloop
  endfacet
  facet normal -1 -0 0
    outer loop
      vertex 0 4 4
      vertex 0 -4.5 0
      vertex 0 4 9
    endloop
  endfacet
  facet normal -1 -0 0
    outer loop
      vertex 0 16 4
      vertex 0 -4.5 0
      vertex 0 4 4
    endloop
  endfacet
  facet normal -1 0 0
    outer loop
      vertex 0 26 0
      vertex 0 16 9
      vertex 0 26 13.5
    endloop
  endfacet
  facet normal -1 0 0
    outer loop
      vertex 0 -4.5 13.5
      vertex 0 16 9
      vertex 0 4 9
    endloop
  endfacet
  facet normal -1 0 0
    outer loop
      vertex 0 16 9
      vertex 0 -4.5 13.5
      vertex 0 26 13.5
    endloop
  endfacet
  facet normal -1 0 0
    outer loop
      vertex 0 -4.5 13.5
      vertex 0 4 9
      vertex 0 -4.5 0
    endloop
  endfacet
  facet normal 0 0 1
    outer loop
      vertex 4.5 26 13.5
      vertex 1 25 13.5
      vertex 4.5 25 13.5
    endloop
  endfacet
  facet normal 0 0 1
    outer loop
      vertex 1 25 13.5
      vertex 0 26 13.5
      vertex 1 3 13.5
    endloop
  endfacet
  facet normal -0 0 1
    outer loop
      vertex 0 26 13.5
      vertex 1 25 13.5
      vertex 4.5 26 13.5
    endloop
  endfacet
  facet normal -0 0 1
    outer loop
      vertex 33 11 13.5
      vertex 39 10 13.5
      vertex 39 11 13.5
    endloop
  endfacet
  facet normal 0 0 1
    outer loop
      vertex 39 10 13.5
      vertex 33 11 13.5
      vertex 33 10 13.5
    endloop
  endfacet
  facet normal 0 0 1
    outer loop
      vertex 44.5 26 13.5
      vertex 44.025 23.5 13.5
      vertex 44.5 21.5 13.5
    endloop
  endfacet
  facet normal 0 0 1
    outer loop
      vertex 44.5 26 13.5
      vertex 42.9713 24.9504 13.5
      vertex 44.025 23.5 13.5
    endloop
  endfacet
  facet normal -0 0 1
    outer loop
      vertex 39 25 13.5
      vertex 42.9713 24.9504 13.5
      vertex 44.5 26 13.5
    endloop
  endfacet
  facet normal 0 0 1
    outer loop
      vertex 39 25 13.5
      vertex 41.2663 22.6036 13.5
      vertex 41.2663 24.3964 13.5
    endloop
  endfacet
  facet normal 0 0 1
    outer loop
      vertex 39 11 13.5
      vertex 40 21.5 13.5
      vertex 39 25 13.5
    endloop
  endfacet
  facet normal 0 0 1
    outer loop
      vertex 41.2663 22.6036 13.5
      vertex 39 25 13.5
      vertex 40 21.5 13.5
    endloop
  endfacet
  facet normal 0 0 1
    outer loop
      vertex 42.9713 24.9504 13.5
      vertex 39 25 13.5
      vertex 41.2663 24.3964 13.5
    endloop
  endfacet
  facet normal -0 0 1
    outer loop
      vertex 27.5 26 13.5
      vertex 39 25 13.5
      vertex 44.5 26 13.5
    endloop
  endfacet
  facet normal 0 0 1
    outer loop
      vertex 39 25 13.5
      vertex 27.5 26 13.5
      vertex 27.5 25 13.5
    endloop
  endfacet
  facet normal -0 0 1
    outer loop
      vertex 42.9713 22.0496 13.5
      vertex 44.5 21.5 13.5
      vertex 44.025 23.5 13.5
    endloop
  endfacet
  facet normal 0 0 1
    outer loop
      vertex 40 21.5 13.5
      vertex 42.9713 22.0496 13.5
      vertex 41.2663 22.6036 13.5
    endloop
  endfacet
  facet normal 0 0 1
    outer loop
      vertex 42.9713 22.0496 13.5
      vertex 40 21.5 13.5
      vertex 44.5 21.5 13.5
    endloop
  endfacet
  facet normal 0 0 1
    outer loop
      vertex 40 21.5 13.5
      vertex 39 11 13.5
      vertex 40 0 13.5
    endloop
  endfacet
  facet normal -0 0 1
    outer loop
      vertex 39 10 13.5
      vertex 40 0 13.5
      vertex 39 11 13.5
    endloop
  endfacet
  facet normal -0 0 1
    outer loop
      vertex 39 1 13.5
      vertex 40 0 13.5
      vertex 39 10 13.5
    endloop
  endfacet
  facet normal -0 0 1
    outer loop
      vertex 6 1 13.5
      vertex 40 0 13.5
      vertex 39 1 13.5
    endloop
  endfacet
  facet normal 0 0 1
    outer loop
      vertex 40 0 13.5
      vertex 6 1 13.5
      vertex 4.5 0 13.5
    endloop
  endfacet
  facet normal 0 0 1
    outer loop
      vertex 6 3 13.5
      vertex 4.5 0 13.5
      vertex 6 1 13.5
    endloop
  endfacet
  facet normal 0 0 1
    outer loop
      vertex 4.5 0 13.5
      vertex 3.775 -2.25 13.5
      vertex 4.5 -4.5 13.5
    endloop
  endfacet
  facet normal 0 0 1
    outer loop
      vertex 4.5 0 13.5
      vertex 2.72125 -0.799639 13.5
      vertex 3.775 -2.25 13.5
    endloop
  endfacet
  facet normal -0 0 1
    outer loop
      vertex 1 3 13.5
      vertex 4.5 0 13.5
      vertex 6 3 13.5
    endloop
  endfacet
  facet normal 0 0 1
    outer loop
      vertex 4.5 0 13.5
      vertex 1 3 13.5
      vertex 2.72125 -0.799639 13.5
    endloop
  endfacet
  facet normal 0 0 1
    outer loop
      vertex 0 -4.5 13.5
      vertex 1.01625 -1.35363 13.5
      vertex 1 3 13.5
    endloop
  endfacet
  facet normal 0 0 1
    outer loop
      vertex 2.72125 -0.799639 13.5
      vertex 1 3 13.5
      vertex 1.01625 -1.35363 13.5
    endloop
  endfacet
  facet normal -0 0 1
    outer loop
      vertex 2.72125 -3.70036 13.5
      vertex 4.5 -4.5 13.5
      vertex 3.775 -2.25 13.5
    endloop
  endfacet
  facet normal 0 0 1
    outer loop
      vertex 0 -4.5 13.5
      vertex 2.72125 -3.70036 13.5
      vertex 1.01625 -3.14637 13.5
    endloop
  endfacet
  facet normal 0 0 1
    outer loop
      vertex 0 -4.5 13.5
      vertex 1 3 13.5
      vertex 0 26 13.5
    endloop
  endfacet
  facet normal 0 0 1
    outer loop
      vertex 2.72125 -3.70036 13.5
      vertex 0 -4.5 13.5
      vertex 4.5 -4.5 13.5
    endloop
  endfacet
  facet normal 0 0 1
    outer loop
      vertex 1.01625 -1.35363 13.5
      vertex 0 -4.5 13.5
      vertex 1.01625 -3.14637 13.5
    endloop
  endfacet
  facet normal 1 -0 0
    outer loop
      vertex 4.5 -4.5 13.5
      vertex 4.5 0 0
      vertex 4.5 0 13.5
    endloop
  endfacet
  facet normal 1 0 0
    outer loop
      vertex 4.5 0 0
      vertex 4.5 -4.5 13.5
      vertex 4.5 -4.5 0
    endloop
  endfacet
  facet normal 0 0 -1
    outer loop
      vertex 4.5 -4.5 0
      vertex 3.775 -2.25 0
      vertex 4.5 0 0
    endloop
  endfacet
  facet normal 0 0 -1
    outer loop
      vertex 4.5 -4.5 0
      vertex 2.72125 -3.70036 0
      vertex 3.775 -2.25 0
    endloop
  endfacet
  facet normal 0 0 -1
    outer loop
      vertex 0 -4.5 0
      vertex 2.72125 -3.70036 0
      vertex 4.5 -4.5 0
    endloop
  endfacet
  facet normal -0 0 -1
    outer loop
      vertex 1.01625 -3.14637 0
      vertex 0 -4.5 0
      vertex 1.01625 -1.35363 0
    endloop
  endfacet
  facet normal -0 0 -1
    outer loop
      vertex 2.72125 -3.70036 0
      vertex 0 -4.5 0
      vertex 1.01625 -3.14637 0
    endloop
  endfacet
  facet normal 0 0 -1
    outer loop
      vertex 40 0 0
      vertex 4.5 0 0
      vertex 40 21.5 0
    endloop
  endfacet
  facet normal 0 0 -1
    outer loop
      vertex 44.5 21.5 0
      vertex 44.025 23.5 0
      vertex 44.5 26 0
    endloop
  endfacet
  facet normal 0 0 -1
    outer loop
      vertex 44.5 21.5 0
      vertex 42.9713 22.0496 0
      vertex 44.025 23.5 0
    endloop
  endfacet
  facet normal 0 0 -1
    outer loop
      vertex 40 21.5 0
      vertex 42.9713 22.0496 0
      vertex 44.5 21.5 0
    endloop
  endfacet
  facet normal -0 0 -1
    outer loop
      vertex 41.2663 22.6036 0
      vertex 40 21.5 0
      vertex 41.2663 24.3964 0
    endloop
  endfacet
  facet normal -0 0 -1
    outer loop
      vertex 42.9713 22.0496 0
      vertex 40 21.5 0
      vertex 41.2663 22.6036 0
    endloop
  endfacet
  facet normal 0 0 -1
    outer loop
      vertex 42.9713 24.9504 0
      vertex 44.5 26 0
      vertex 44.025 23.5 0
    endloop
  endfacet
  facet normal 0 0 -1
    outer loop
      vertex 41.2663 24.3964 0
      vertex 44.5 26 0
      vertex 42.9713 24.9504 0
    endloop
  endfacet
  facet normal 0 0 -1
    outer loop
      vertex 0 26 0
      vertex 40 21.5 0
      vertex 4.5 0 0
    endloop
  endfacet
  facet normal 0 0 -1
    outer loop
      vertex 2.72125 -0.799639 0
      vertex 4.5 0 0
      vertex 3.775 -2.25 0
    endloop
  endfacet
  facet normal 0 0 -1
    outer loop
      vertex 0 26 0
      vertex 4.5 0 0
      vertex 2.72125 -0.799639 0
    endloop
  endfacet
  facet normal 0 0 -1
    outer loop
      vertex 0 26 0
      vertex 2.72125 -0.799639 0
      vertex 1.01625 -1.35363 0
    endloop
  endfacet
  facet normal 0 0 -1
    outer loop
      vertex 41.2663 24.3964 0
      vertex 0 26 0
      vertex 44.5 26 0
    endloop
  endfacet
  facet normal 0 0 -1
    outer loop
      vertex 40 21.5 0
      vertex 0 26 0
      vertex 41.2663 24.3964 0
    endloop
  endfacet
  facet normal 0 0 -1
    outer loop
      vertex 0 26 0
      vertex 1.01625 -1.35363 0
      vertex 0 -4.5 0
    endloop
  endfacet
  facet normal 0 -1 0
    outer loop
      vertex 0 -4.5 0
      vertex 4.5 -4.5 13.5
      vertex 0 -4.5 13.5
    endloop
  endfacet
  facet normal 0 -1 -0
    outer loop
      vertex 4.5 -4.5 13.5
      vertex 0 -4.5 0
      vertex 4.5 -4.5 0
    endloop
  endfacet
  facet normal 0 -1 0
    outer loop
      vertex 18 0 4
      vertex 20 0 9
      vertex 18 0 9
    endloop
  endfacet
  facet normal 0 -1 -0
    outer loop
      vertex 20 0 9
      vertex 18 0 4
      vertex 20 0 4
    endloop
  endfacet
  facet normal 0 -1 0
    outer loop
      vertex 18 0 9
      vertex 4.5 0 13.5
      vertex 6 0 9
    endloop
  endfacet
  facet normal 0 -1 0
    outer loop
      vertex 4.5 0 0
      vertex 6 0 9
      vertex 4.5 0 13.5
    endloop
  endfacet
  facet normal 0 -1 0
    outer loop
      vertex 4.5 0 0
      vertex 18 0 4
      vertex 6 0 4
    endloop
  endfacet
  facet normal 0 -1 -0
    outer loop
      vertex 18 0 4
      vertex 4.5 0 0
      vertex 20 0 4
    endloop
  endfacet
  facet normal 0 -1 0
    outer loop
      vertex 40 0 0
      vertex 20 0 4
      vertex 4.5 0 0
    endloop
  endfacet
  facet normal 0 -1 -0
    outer loop
      vertex 6 0 9
      vertex 4.5 0 0
      vertex 6 0 4
    endloop
  endfacet
  facet normal 0 -1 0
    outer loop
      vertex 20 0 9
      vertex 4.5 0 13.5
      vertex 18 0 9
    endloop
  endfacet
  facet normal 0 -1 0
    outer loop
      vertex 4.5 0 13.5
      vertex 20 0 9
      vertex 40 0 13.5
    endloop
  endfacet
  facet normal 0 -1 0
    outer loop
      vertex 34 0 9
      vertex 40 0 13.5
      vertex 20 0 9
    endloop
  endfacet
  facet normal 0 -1 0
    outer loop
      vertex 40 0 0
      vertex 34 0 9
      vertex 34 0 4
    endloop
  endfacet
  facet normal 0 -1 0
    outer loop
      vertex 34 0 9
      vertex 40 0 0
      vertex 40 0 13.5
    endloop
  endfacet
  facet normal 0 -1 0
    outer loop
      vertex 20 0 4
      vertex 40 0 0
      vertex 34 0 4
    endloop
  endfacet
  facet normal -0.809017 -0.587785 0
    outer loop
      vertex 3.775 -2.25 0
      vertex 2.72125 -0.799639 13.5
      vertex 2.72125 -0.799639 0
    endloop
  endfacet
  facet normal -0.809017 -0.587785 0
    outer loop
      vertex 2.72125 -0.799639 13.5
      vertex 3.775 -2.25 0
      vertex 3.775 -2.25 13.5
    endloop
  endfacet
  facet normal 1 -0 0
    outer loop
      vertex 1.01625 -3.14637 13.5
      vertex 1.01625 -1.35363 0
      vertex 1.01625 -1.35363 13.5
    endloop
  endfacet
  facet normal 1 0 0
    outer loop
      vertex 1.01625 -1.35363 0
      vertex 1.01625 -3.14637 13.5
      vertex 1.01625 -3.14637 0
    endloop
  endfacet
  facet normal 0.309017 -0.951057 0
    outer loop
      vertex 1.01625 -1.35363 0
      vertex 2.72125 -0.799639 13.5
      vertex 1.01625 -1.35363 13.5
    endloop
  endfacet
  facet normal 0.309017 -0.951057 0
    outer loop
      vertex 2.72125 -0.799639 13.5
      vertex 1.01625 -1.35363 0
      vertex 2.72125 -0.799639 0
    endloop
  endfacet
  facet normal -0.809017 0.587785 0
    outer loop
      vertex 2.72125 -3.70036 0
      vertex 3.775 -2.25 13.5
      vertex 3.775 -2.25 0
    endloop
  endfacet
  facet normal -0.809017 0.587785 0
    outer loop
      vertex 3.775 -2.25 13.5
      vertex 2.72125 -3.70036 0
      vertex 2.72125 -3.70036 13.5
    endloop
  endfacet
  facet normal 0.309017 0.951057 -0
    outer loop
      vertex 2.72125 -3.70036 0
      vertex 1.01625 -3.14637 13.5
      vertex 2.72125 -3.70036 13.5
    endloop
  endfacet
  facet normal 0.309017 0.951057 0
    outer loop
      vertex 1.01625 -3.14637 13.5
      vertex 2.72125 -3.70036 0
      vertex 1.01625 -3.14637 0
    endloop
  endfacet
  facet normal 1 -0 0
    outer loop
      vertex 40 0 13.5
      vertex 40 21.5 0
      vertex 40 21.5 13.5
    endloop
  endfacet
  facet normal 1 0 0
    outer loop
      vertex 40 21.5 0
      vertex 40 0 13.5
      vertex 40 0 0
    endloop
  endfacet
  facet normal 1 -0 0
    outer loop
      vertex 44.5 21.5 13.5
      vertex 44.5 26 0
      vertex 44.5 26 13.5
    endloop
  endfacet
  facet normal 1 0 0
    outer loop
      vertex 44.5 26 0
      vertex 44.5 21.5 13.5
      vertex 44.5 21.5 0
    endloop
  endfacet
  facet normal 0 -1 0
    outer loop
      vertex 40 21.5 0
      vertex 44.5 21.5 13.5
      vertex 40 21.5 13.5
    endloop
  endfacet
  facet normal 0 -1 -0
    outer loop
      vertex 44.5 21.5 13.5
      vertex 40 21.5 0
      vertex 44.5 21.5 0
    endloop
  endfacet
  facet normal 0 1 0
    outer loop
      vertex 44.5 26 13.5
      vertex 27.5 26 1
      vertex 27.5 26 13.5
    endloop
  endfacet
  facet normal 0 1 0
    outer loop
      vertex 0 26 0
      vertex 27.5 26 1
      vertex 44.5 26 0
    endloop
  endfacet
  facet normal 0 1 -0
    outer loop
      vertex 44.5 26 0
      vertex 27.5 26 1
      vertex 44.5 26 13.5
    endloop
  endfacet
  facet normal 0 1 -0
    outer loop
      vertex 4.5 26 1
      vertex 0 26 13.5
      vertex 4.5 26 13.5
    endloop
  endfacet
  facet normal 0 1 0
    outer loop
      vertex 4.5 26 1
      vertex 0 26 0
      vertex 0 26 13.5
    endloop
  endfacet
  facet normal 0 1 0
    outer loop
      vertex 27.5 26 1
      vertex 0 26 0
      vertex 4.5 26 1
    endloop
  endfacet
  facet normal -0.809017 -0.587786 0
    outer loop
      vertex 44.025 23.5 0
      vertex 42.9713 24.9504 13.5
      vertex 42.9713 24.9504 0
    endloop
  endfacet
  facet normal -0.809017 -0.587786 0
    outer loop
      vertex 42.9713 24.9504 13.5
      vertex 44.025 23.5 0
      vertex 44.025 23.5 13.5
    endloop
  endfacet
  facet normal 1 -0 0
    outer loop
      vertex 41.2663 22.6036 13.5
      vertex 41.2663 24.3964 0
      vertex 41.2663 24.3964 13.5
    endloop
  endfacet
  facet normal 1 0 0
    outer loop
      vertex 41.2663 24.3964 0
      vertex 41.2663 22.6036 13.5
      vertex 41.2663 22.6036 0
    endloop
  endfacet
  facet normal 0.309016 -0.951057 0
    outer loop
      vertex 41.2663 24.3964 0
      vertex 42.9713 24.9504 13.5
      vertex 41.2663 24.3964 13.5
    endloop
  endfacet
  facet normal 0.309016 -0.951057 0
    outer loop
      vertex 42.9713 24.9504 13.5
      vertex 41.2663 24.3964 0
      vertex 42.9713 24.9504 0
    endloop
  endfacet
  facet normal 0.309016 0.951057 -0
    outer loop
      vertex 42.9713 22.0496 0
      vertex 41.2663 22.6036 13.5
      vertex 42.9713 22.0496 13.5
    endloop
  endfacet
  facet normal 0.309016 0.951057 0
    outer loop
      vertex 41.2663 22.6036 13.5
      vertex 42.9713 22.0496 0
      vertex 41.2663 22.6036 0
    endloop
  endfacet
  facet normal -0.809017 0.587785 0
    outer loop
      vertex 42.9713 22.0496 0
      vertex 44.025 23.5 13.5
      vertex 44.025 23.5 0
    endloop
  endfacet
  facet normal -0.809017 0.587785 0
    outer loop
      vertex 44.025 23.5 13.5
      vertex 42.9713 22.0496 0
      vertex 42.9713 22.0496 13.5
    endloop
  endfacet
  facet normal 1 0 0
    outer loop
      vertex 1 25 13.5
      vertex 1 16 9
      vertex 1 25 1
    endloop
  endfacet
  facet normal 1 -0 0
    outer loop
      vertex 1 3 13.5
      vertex 1 16 9
      vertex 1 25 13.5
    endloop
  endfacet
  facet normal 1 0 0
    outer loop
      vertex 1 3 1
      vertex 1 4 9
      vertex 1 3 13.5
    endloop
  endfacet
  facet normal 1 0 0
    outer loop
      vertex 1 16 9
      vertex 1 3 13.5
      vertex 1 4 9
    endloop
  endfacet
  facet normal 1 -0 0
    outer loop
      vertex 1 16 4
      vertex 1 25 1
      vertex 1 16 9
    endloop
  endfacet
  facet normal 1 0 0
    outer loop
      vertex 1 3 1
      vertex 1 16 4
      vertex 1 4 4
    endloop
  endfacet
  facet normal 1 0 0
    outer loop
      vertex 1 16 4
      vertex 1 3 1
      vertex 1 25 1
    endloop
  endfacet
  facet normal 1 0 0
    outer loop
      vertex 1 4 9
      vertex 1 3 1
      vertex 1 4 4
    endloop
  endfacet
  facet normal -1 0 0
    outer loop
      vertex 39 1 1
      vertex 39 10 13.5
      vertex 39 10 1
    endloop
  endfacet
  facet normal -1 -0 0
    outer loop
      vertex 39 10 13.5
      vertex 39 1 1
      vertex 39 1 13.5
    endloop
  endfacet
  facet normal -1 0 0
    outer loop
      vertex 39 11 1
      vertex 39 25 13.5
      vertex 39 25 1
    endloop
  endfacet
  facet normal -1 -0 0
    outer loop
      vertex 39 25 13.5
      vertex 39 11 1
      vertex 39 11 13.5
    endloop
  endfacet
  facet normal 0 0 1
    outer loop
      vertex 4.5 25 1
      vertex 27.5 25 1
      vertex 27.5 26 1
    endloop
  endfacet
  facet normal 0 0 1
    outer loop
      vertex 4.5 25 1
      vertex 27.5 26 1
      vertex 4.5 26 1
    endloop
  endfacet
  facet normal 0 0 1
    outer loop
      vertex 27.5 25 1
      vertex 4.5 25 1
      vertex 6 3 1
    endloop
  endfacet
  facet normal 0 0 1
    outer loop
      vertex 1 3 1
      vertex 4.5 25 1
      vertex 1 25 1
    endloop
  endfacet
  facet normal 0 0 1
    outer loop
      vertex 4.5 25 1
      vertex 1 3 1
      vertex 6 3 1
    endloop
  endfacet
  facet normal 0 0 1
    outer loop
      vertex 39 25 1
      vertex 33 11 1
      vertex 39 11 1
    endloop
  endfacet
  facet normal 0 0 1
    outer loop
      vertex 6 3 1
      vertex 33 11 1
      vertex 27.5 25 1
    endloop
  endfacet
  facet normal -0 0 1
    outer loop
      vertex 27.5 25 1
      vertex 33 11 1
      vertex 39 25 1
    endloop
  endfacet
  facet normal -0 0 1
    outer loop
      vertex 33 10 1
      vertex 39 1 1
      vertex 39 10 1
    endloop
  endfacet
  facet normal 0 0 1
    outer loop
      vertex 33 11 1
      vertex 6 3 1
      vertex 33 10 1
    endloop
  endfacet
  facet normal 0 0 1
    outer loop
      vertex 6 1 1
      vertex 33 10 1
      vertex 6 3 1
    endloop
  endfacet
  facet normal 0 0 1
    outer loop
      vertex 33 10 1
      vertex 6 1 1
      vertex 39 1 1
    endloop
  endfacet
  facet normal 0 1 -0
    outer loop
      vertex 20 1 4
      vertex 18 1 9
      vertex 20 1 9
    endloop
  endfacet
  facet normal 0 1 0
    outer loop
      vertex 18 1 9
      vertex 20 1 4
      vertex 18 1 4
    endloop
  endfacet
  facet normal 0 1 0
    outer loop
      vertex 20 1 9
      vertex 39 1 13.5
      vertex 34 1 9
    endloop
  endfacet
  facet normal 0 1 -0
    outer loop
      vertex 39 1 1
      vertex 34 1 9
      vertex 39 1 13.5
    endloop
  endfacet
  facet normal 0 1 0
    outer loop
      vertex 39 1 1
      vertex 20 1 4
      vertex 34 1 4
    endloop
  endfacet
  facet normal 0 1 0
    outer loop
      vertex 6 1 1
      vertex 20 1 4
      vertex 39 1 1
    endloop
  endfacet
  facet normal 0 1 0
    outer loop
      vertex 34 1 9
      vertex 39 1 1
      vertex 34 1 4
    endloop
  endfacet
  facet normal 0 1 0
    outer loop
      vertex 20 1 4
      vertex 6 1 1
      vertex 18 1 4
    endloop
  endfacet
  facet normal 0 1 0
    outer loop
      vertex 18 1 4
      vertex 6 1 1
      vertex 6 1 4
    endloop
  endfacet
  facet normal 0 1 0
    outer loop
      vertex 39 1 13.5
      vertex 20 1 9
      vertex 6 1 13.5
    endloop
  endfacet
  facet normal 0 1 -0
    outer loop
      vertex 18 1 9
      vertex 6 1 13.5
      vertex 20 1 9
    endloop
  endfacet
  facet normal 0 1 0
    outer loop
      vertex 6 1 13.5
      vertex 18 1 9
      vertex 6 1 9
    endloop
  endfacet
  facet normal 0 -1 0
    outer loop
      vertex 1 25 1
      vertex 4.5 25 13.5
      vertex 1 25 13.5
    endloop
  endfacet
  facet normal 0 -1 -0
    outer loop
      vertex 4.5 25 13.5
      vertex 1 25 1
      vertex 4.5 25 1
    endloop
  endfacet
  facet normal 0 -1 0
    outer loop
      vertex 27.5 25 1
      vertex 39 25 13.5
      vertex 27.5 25 13.5
    endloop
  endfacet
  facet normal 0 -1 -0
    outer loop
      vertex 39 25 13.5
      vertex 27.5 25 1
      vertex 39 25 1
    endloop
  endfacet
  facet normal 1 -0 0
    outer loop
      vertex 4.5 25 13.5
      vertex 4.5 26 1
      vertex 4.5 26 13.5
    endloop
  endfacet
  facet normal 1 0 0
    outer loop
      vertex 4.5 26 1
      vertex 4.5 25 13.5
      vertex 4.5 25 1
    endloop
  endfacet
  facet normal -1 0 0
    outer loop
      vertex 27.5 25 1
      vertex 27.5 26 13.5
      vertex 27.5 26 1
    endloop
  endfacet
  facet normal -1 -0 0
    outer loop
      vertex 27.5 26 13.5
      vertex 27.5 25 1
      vertex 27.5 25 13.5
    endloop
  endfacet
  facet normal 0 0 -1
    outer loop
      vertex 0 4 9
      vertex 1 16 9
      vertex 1 4 9
    endloop
  endfacet
  facet normal -0 0 -1
    outer loop
      vertex 1 16 9
      vertex 0 4 9
      vertex 0 16 9
    endloop
  endfacet
  facet normal 0 -1 0
    outer loop
      vertex 0 16 4
      vertex 1 16 9
      vertex 0 16 9
    endloop
  endfacet
  facet normal 0 -1 -0
    outer loop
      vertex 1 16 9
      vertex 0 16 4
      vertex 1 16 4
    endloop
  endfacet
  facet normal -0 0 1
    outer loop
      vertex 0 16 4
      vertex 1 4 4
      vertex 1 16 4
    endloop
  endfacet
  facet normal 0 0 1
    outer loop
      vertex 1 4 4
      vertex 0 16 4
      vertex 0 4 4
    endloop
  endfacet
  facet normal 0 1 -0
    outer loop
      vertex 1 4 4
      vertex 0 4 9
      vertex 1 4 9
    endloop
  endfacet
  facet normal 0 1 0
    outer loop
      vertex 0 4 9
      vertex 1 4 4
      vertex 0 4 4
    endloop
  endfacet
  facet normal 0 0 -1
    outer loop
      vertex 6 0 9
      vertex 18 1 9
      vertex 18 0 9
    endloop
  endfacet
  facet normal -0 0 -1
    outer loop
      vertex 18 1 9
      vertex 6 0 9
      vertex 6 1 9
    endloop
  endfacet
  facet normal -1 0 0
    outer loop
      vertex 18 0 4
      vertex 18 1 9
      vertex 18 1 4
    endloop
  endfacet
  facet normal -1 -0 0
    outer loop
      vertex 18 1 9
      vertex 18 0 4
      vertex 18 0 9
    endloop
  endfacet
  facet normal -0 0 1
    outer loop
      vertex 6 1 4
      vertex 18 0 4
      vertex 18 1 4
    endloop
  endfacet
  facet normal 0 0 1
    outer loop
      vertex 18 0 4
      vertex 6 1 4
      vertex 6 0 4
    endloop
  endfacet
  facet normal 1 -0 0
    outer loop
      vertex 20 0 9
      vertex 20 1 4
      vertex 20 1 9
    endloop
  endfacet
  facet normal 1 0 0
    outer loop
      vertex 20 1 4
      vertex 20 0 9
      vertex 20 0 4
    endloop
  endfacet
  facet normal 0 0 -1
    outer loop
      vertex 20 0 9
      vertex 34 1 9
      vertex 34 0 9
    endloop
  endfacet
  facet normal -0 0 -1
    outer loop
      vertex 34 1 9
      vertex 20 0 9
      vertex 20 1 9
    endloop
  endfacet
  facet normal -1 0 0
    outer loop
      vertex 34 0 4
      vertex 34 1 9
      vertex 34 1 4
    endloop
  endfacet
  facet normal -1 -0 0
    outer loop
      vertex 34 1 9
      vertex 34 0 4
      vertex 34 0 9
    endloop
  endfacet
  facet normal -0 0 1
    outer loop
      vertex 20 1 4
      vertex 34 0 4
      vertex 34 1 4
    endloop
  endfacet
  facet normal 0 0 1
    outer loop
      vertex 34 0 4
      vertex 20 1 4
      vertex 20 0 4
    endloop
  endfacet
  facet normal 1 -0 0
    outer loop
      vertex 6 0 9
      vertex 6 1 4
      vertex 6 1 9
    endloop
  endfacet
  facet normal 1 0 0
    outer loop
      vertex 6 1 4
      vertex 6 0 9
      vertex 6 0 4
    endloop
  endfacet
  facet normal 1 0 0
    outer loop
      vertex 6 1 9
      vertex 6 3 13.5
      vertex 6 1 13.5
    endloop
  endfacet
  facet normal 1 0 0
    outer loop
      vertex 6 3 13.5
      vertex 6 1 9
      vertex 6 3 1
    endloop
  endfacet
  facet normal 1 -0 0
    outer loop
      vertex 6 1 4
      vertex 6 3 1
      vertex 6 1 9
    endloop
  endfacet
  facet normal 1 0 0
    outer loop
      vertex 6 3 1
      vertex 6 1 4
      vertex 6 1 1
    endloop
  endfacet
  facet normal 0 1 -0
    outer loop
      vertex 6 3 1
      vertex 1 3 13.5
      vertex 6 3 13.5
    endloop
  endfacet
  facet normal 0 1 0
    outer loop
      vertex 1 3 13.5
      vertex 6 3 1
      vertex 1 3 1
    endloop
  endfacet
  facet normal -1 0 0
    outer loop
      vertex 33 10 1
      vertex 33 11 13.5
      vertex 33 11 1
    endloop
  endfacet
  facet normal -1 -0 0
    outer loop
      vertex 33 11 13.5
      vertex 33 10 1
      vertex 33 10 13.5
    endloop
  endfacet
  facet normal 0 -1 0
    outer loop
      vertex 33 10 1
      vertex 39 10 13.5
      vertex 33 10 13.5
    endloop
  endfacet
  facet normal 0 -1 -0
    outer loop
      vertex 39 10 13.5
      vertex 33 10 1
      vertex 39 10 1
    endloop
  endfacet
  facet normal 0 1 -0
    outer loop
      vertex 39 11 1
      vertex 33 11 13.5
      vertex 39 11 13.5
    endloop
  endfacet
  facet normal 0 1 0
    outer loop
      vertex 33 11 13.5
      vertex 39 11 1
      vertex 33 11 1
    endloop
  endfacet
endsolid OpenSCAD_Model
