solid OpenSCAD_Model
  facet normal 1 0 0
    outer loop
      vertex 140 117.907 25.6651
      vertex 140 120 25
      vertex 140 126.775 22.8768
    endloop
  endfacet
  facet normal 1 0 0
    outer loop
      vertex 140 105.9 28.3561
      vertex 140 117.907 25.6651
      vertex 140 114.347 26.9017
    endloop
  endfacet
  facet normal 1 0 0
    outer loop
      vertex 140 105.9 28.3561
      vertex 140 120 25
      vertex 140 117.907 25.6651
    endloop
  endfacet
  facet normal 1 0 0
    outer loop
      vertex 140 96.2893 29.9067
      vertex 140 105.9 28.3561
      vertex 140 102.875 29.0516
    endloop
  endfacet
  facet normal 1 0 0
    outer loop
      vertex 140 79.5184 30.9285
      vertex 140 105.9 28.3561
      vertex 140 96.2893 29.9067
    endloop
  endfacet
  facet normal 1 0 0
    outer loop
      vertex 140 79.5184 30.9285
      vertex 140 96.2893 29.9067
      vertex 140 93.827 30.2611
    endloop
  endfacet
  facet normal 1 0 0
    outer loop
      vertex 140 105.9 28.3561
      vertex 140 79.5184 30.9285
      vertex 140 120 25
    endloop
  endfacet
  facet normal 1 0 0
    outer loop
      vertex 140 73.5637 31.1418
      vertex 140 120 25
      vertex 140 79.5184 30.9285
    endloop
  endfacet
  facet normal 1 0 0
    outer loop
      vertex 140 67.5971 31.2512
      vertex 140 120 25
      vertex 140 73.5637 31.1418
    endloop
  endfacet
  facet normal 1 -0 0
    outer loop
      vertex 140 52.2206 30.9636
      vertex 140 120 25
      vertex 140 67.5971 31.2512
    endloop
  endfacet
  facet normal 1 -0 0
    outer loop
      vertex 140 47.7744 30.8015
      vertex 140 120 25
      vertex 140 52.2206 30.9636
    endloop
  endfacet
  facet normal 1 -0 0
    outer loop
      vertex 140 36.4981 30.6688
      vertex 140 120 25
      vertex 140 47.7744 30.8015
    endloop
  endfacet
  facet normal 1 -0 0
    outer loop
      vertex 140 25.2218 30.1302
      vertex 140 120 25
      vertex 140 36.4981 30.6688
    endloop
  endfacet
  facet normal 1 0 0
    outer loop
      vertex 140 5.97957 28.4959
      vertex 140 25.2218 30.1302
      vertex 140 20.7754 29.8687
    endloop
  endfacet
  facet normal 1 0 0
    outer loop
      vertex 140 25.2218 30.1302
      vertex 140 5.97957 28.4959
      vertex 140 120 25
    endloop
  endfacet
  facet normal 1 0 0
    outer loop
      vertex 140 -30 25
      vertex 140 5.97957 28.4959
      vertex 140 -30 25.5393
    endloop
  endfacet
  facet normal 1 0 0
    outer loop
      vertex 140 5.97957 28.4959
      vertex 140 -30 25
      vertex 140 120 25
    endloop
  endfacet
  facet normal 1 0 0
    outer loop
      vertex 140 120 20
      vertex 140 126.775 22.8768
      vertex 140 120 25
    endloop
  endfacet
  facet normal 1 0 0
    outer loop
      vertex 140 126.775 22.8768
      vertex 140 120 20
      vertex 140 130.074 20
    endloop
  endfacet
  facet normal 0 0 -1
    outer loop
      vertex 131.7 125 20
      vertex 140 130.074 20
      vertex 140 120 20
    endloop
  endfacet
  facet normal -0 0 -1
    outer loop
      vertex 140 130.074 20
      vertex 131.7 125 20
      vertex 134.961 132.748 20
    endloop
  endfacet
  facet normal 0 0 -1
    outer loop
      vertex 140 120 20
      vertex 130.85 123.528 20
      vertex 131.7 125 20
    endloop
  endfacet
  facet normal 0 0 -1
    outer loop
      vertex 140 120 20
      vertex 129.15 123.528 20
      vertex 130.85 123.528 20
    endloop
  endfacet
  facet normal 0 0 -1
    outer loop
      vertex 85 120 20
      vertex 129.15 123.528 20
      vertex 140 120 20
    endloop
  endfacet
  facet normal 0 0 -1
    outer loop
      vertex 85 120 20
      vertex 128.3 125 20
      vertex 129.15 123.528 20
    endloop
  endfacet
  facet normal 0 0 -1
    outer loop
      vertex 85 120 20
      vertex 125.254 140 20
      vertex 128.3 125 20
    endloop
  endfacet
  facet normal -0 0 -1
    outer loop
      vertex 125.254 140 20
      vertex 85 120 20
      vertex 85 140 20
    endloop
  endfacet
  facet normal 0 0 -1
    outer loop
      vertex 130.85 126.472 20
      vertex 134.961 132.748 20
      vertex 131.7 125 20
    endloop
  endfacet
  facet normal 0 0 -1
    outer loop
      vertex 130.85 126.472 20
      vertex 130.786 135.394 20
      vertex 134.961 132.748 20
    endloop
  endfacet
  facet normal 0 0 -1
    outer loop
      vertex 129.15 126.472 20
      vertex 130.786 135.394 20
      vertex 130.85 126.472 20
    endloop
  endfacet
  facet normal 0 0 -1
    outer loop
      vertex 125.254 140 20
      vertex 129.15 126.472 20
      vertex 128.3 125 20
    endloop
  endfacet
  facet normal 0 0 -1
    outer loop
      vertex 129.15 126.472 20
      vertex 125.254 140 20
      vertex 130.786 135.394 20
    endloop
  endfacet
  facet normal 0 -1 -0
    outer loop
      vertex 0.32135 -30 79.673
      vertex 0.0578347 -30 79.2098
      vertex 0.585928 -30 79.2306
    endloop
  endfacet
  facet normal 0 -1 0
    outer loop
      vertex 0.585928 -30 79.2306
      vertex 8.95148 -30 68.8765
      vertex 1.74409 -30 79.6147
    endloop
  endfacet
  facet normal 0 -1 0
    outer loop
      vertex 8.95148 -30 68.8765
      vertex 0.585928 -30 79.2306
      vertex 0.0578347 -30 79.2098
    endloop
  endfacet
  facet normal 0 -1 0
    outer loop
      vertex 0 -30 79.2267
      vertex 8.95148 -30 68.8765
      vertex 0.0578347 -30 79.2098
    endloop
  endfacet
  facet normal 0 -1 0
    outer loop
      vertex 0 -30 43.7292
      vertex 8.95148 -30 68.8765
      vertex 0 -30 79.2267
    endloop
  endfacet
  facet normal 0 -1 -0
    outer loop
      vertex 8.95148 -30 68.8765
      vertex 0 -30 43.7292
      vertex 11.6703 -30 61.3587
    endloop
  endfacet
  facet normal 0 -1 0
    outer loop
      vertex 6.69131 -30 41.1767
      vertex 19.5574 -30 49.8791
      vertex 14.6307 -30 55.8359
    endloop
  endfacet
  facet normal 0 -1 0
    outer loop
      vertex 1.04528 -30 43.7292
      vertex 11.6703 -30 61.3587
      vertex 0 -30 43.7292
    endloop
  endfacet
  facet normal 0 -1 -0
    outer loop
      vertex 11.6703 -30 61.3587
      vertex 1.04528 -30 43.7292
      vertex 14.6307 -30 55.8359
    endloop
  endfacet
  facet normal 0 -1 0
    outer loop
      vertex 3.09017 -30 43.2879
      vertex 14.6307 -30 55.8359
      vertex 1.04528 -30 43.7292
    endloop
  endfacet
  facet normal 0 -1 0
    outer loop
      vertex 5 -30 42.4244
      vertex 14.6307 -30 55.8359
      vertex 3.09017 -30 43.2879
    endloop
  endfacet
  facet normal 0 -1 0
    outer loop
      vertex 6.69131 -30 41.1767
      vertex 14.6307 -30 55.8359
      vertex 5 -30 42.4244
    endloop
  endfacet
  facet normal 0 -1 0
    outer loop
      vertex 8.09017 -30 39.5991
      vertex 19.5574 -30 49.8791
      vertex 6.69131 -30 41.1767
    endloop
  endfacet
  facet normal 0 -1 -0
    outer loop
      vertex 19.5574 -30 49.8791
      vertex 8.09017 -30 39.5991
      vertex 22.0211 -30 46.2562
    endloop
  endfacet
  facet normal 0 -1 0
    outer loop
      vertex 9.13545 -30 37.7607
      vertex 22.0211 -30 46.2562
      vertex 8.09017 -30 39.5991
    endloop
  endfacet
  facet normal 0 -1 0
    outer loop
      vertex 9.78148 -30 35.7418
      vertex 22.0211 -30 46.2562
      vertex 9.13545 -30 37.7607
    endloop
  endfacet
  facet normal 0 -1 -0
    outer loop
      vertex 22.0211 -30 46.2562
      vertex 9.78148 -30 35.7418
      vertex 27.1411 -30 40.0944
    endloop
  endfacet
  facet normal 0 -1 0
    outer loop
      vertex 9.99002 -30 33.727
      vertex 27.1411 -30 40.0944
      vertex 9.78148 -30 35.7418
    endloop
  endfacet
  facet normal 0 -1 0
    outer loop
      vertex 27.1411 -30 40.0944
      vertex 30 -30 32
      vertex 36.8432 -30 36.4644
    endloop
  endfacet
  facet normal 0 -1 0
    outer loop
      vertex 10 -30 33.6306
      vertex 27.1411 -30 40.0944
      vertex 9.99002 -30 33.727
    endloop
  endfacet
  facet normal 0 -1 -0
    outer loop
      vertex 27.1411 -30 40.0944
      vertex 10 -30 33.6306
      vertex 30 -30 32
    endloop
  endfacet
  facet normal 0 -1 0
    outer loop
      vertex 40 -30 30
      vertex 36.8432 -30 36.4644
      vertex 30 -30 32
    endloop
  endfacet
  facet normal 0 -1 0
    outer loop
      vertex 30 -30 32
      vertex 10 -30 33.6306
      vertex 9.83122 -30 32
    endloop
  endfacet
  facet normal 0 -1 0
    outer loop
      vertex 36.8432 -30 36.4644
      vertex 40 -30 30
      vertex 40.9031 -30 34.6389
    endloop
  endfacet
  facet normal 0 -1 -0
    outer loop
      vertex 40.9031 -30 34.6389
      vertex 40 -30 30
      vertex 50.3179 -30 32.4353
    endloop
  endfacet
  facet normal 0 -1 0
    outer loop
      vertex 40 -30 30
      vertex 30 -30 32
      vertex 30 -30 30
    endloop
  endfacet
  facet normal 0 -1 0
    outer loop
      vertex 40 -30 25
      vertex 50.3179 -30 32.4353
      vertex 40 -30 30
    endloop
  endfacet
  facet normal 0 -1 -0
    outer loop
      vertex 50.3179 -30 32.4353
      vertex 40 -30 25
      vertex 54.9372 -30 31.7996
    endloop
  endfacet
  facet normal 0 -1 -0
    outer loop
      vertex 54.9372 -30 31.7996
      vertex 40 -30 25
      vertex 91.953 -30 29.2849
    endloop
  endfacet
  facet normal 0 -1 -0
    outer loop
      vertex 91.953 -30 29.2849
      vertex 40 -30 25
      vertex 98.6249 -30 28.2754
    endloop
  endfacet
  facet normal 0 -1 -0
    outer loop
      vertex 98.6249 -30 28.2754
      vertex 40 -30 25
      vertex 116.248 -30 25.7135
    endloop
  endfacet
  facet normal 0 -1 0
    outer loop
      vertex 40 -30 25
      vertex 117.229 -30 25.6779
      vertex 116.248 -30 25.7135
    endloop
  endfacet
  facet normal 0 -1 0
    outer loop
      vertex 140 -30 25
      vertex 117.229 -30 25.6779
      vertex 40 -30 25
    endloop
  endfacet
  facet normal 0 -1 0
    outer loop
      vertex 117.229 -30 25.6779
      vertex 140 -30 25
      vertex 140 -30 25.5393
    endloop
  endfacet
  facet normal 0 -1 0
    outer loop
      vertex 127.712 -30 25.7883
      vertex 140 -30 25.5393
      vertex 134.932 -30 25.8795
    endloop
  endfacet
  facet normal 0 -1 0
    outer loop
      vertex 140 -30 25.5393
      vertex 127.712 -30 25.7883
      vertex 117.229 -30 25.6779
    endloop
  endfacet
  facet normal -0.148388 -0.137977 0.979256
    outer loop
      vertex 0 140 48.2921
      vertex 0.32135 136.426 47.8373
      vertex 0.32135 140 48.3408
    endloop
  endfacet
  facet normal -0.148394 -0.137978 0.979256
    outer loop
      vertex 0.32135 136.426 47.8373
      vertex 0 140 48.2921
      vertex 0 136.33 47.775
    endloop
  endfacet
  facet normal -0.186743 -0.0118765 0.982337
    outer loop
      vertex 0.32135 136.426 47.8373
      vertex 0 136.33 47.775
      vertex 0 135.926 47.7702
    endloop
  endfacet
  facet normal -0.276971 0.0491542 0.95962
    outer loop
      vertex 0.32135 136.426 47.8373
      vertex 0 135.926 47.7702
      vertex 0 135.303 47.8021
    endloop
  endfacet
  facet normal 0.20999 -0.0905656 0.9735
    outer loop
      vertex 0 135.303 47.8021
      vertex 0.32135 107.044 45.1038
      vertex 0.32135 136.426 47.8373
    endloop
  endfacet
  facet normal 0.209983 -0.0905659 0.973501
    outer loop
      vertex 0.32135 107.044 45.1038
      vertex 0 135.303 47.8021
      vertex 0 106.654 45.1369
    endloop
  endfacet
  facet normal 0.0897493 -0.191984 0.977286
    outer loop
      vertex 0.32135 61.9737 39.4574
      vertex 0 62.7096 39.6315
      vertex 0 62.0225 39.4965
    endloop
  endfacet
  facet normal 0.245118 -0.120517 0.961973
    outer loop
      vertex 0 62.7096 39.6315
      vertex 0.32135 107.044 45.1038
      vertex 0 106.654 45.1369
    endloop
  endfacet
  facet normal 0.24512 -0.120517 0.961973
    outer loop
      vertex 0.32135 107.044 45.1038
      vertex 0 62.7096 39.6315
      vertex 0.32135 61.9737 39.4574
    endloop
  endfacet
  facet normal 0.173941 -0.199005 0.964439
    outer loop
      vertex 0 61.3135 39.3791
      vertex 0.32135 25.8329 32
      vertex 0.32135 61.9737 39.4574
    endloop
  endfacet
  facet normal 0.173937 -0.199005 0.964439
    outer loop
      vertex 0.32135 25.8329 32
      vertex 0 61.3135 39.3791
      vertex 0 25.552 32
    endloop
  endfacet
  facet normal 0.094798 -0.16258 0.982131
    outer loop
      vertex 0.32135 61.9737 39.4574
      vertex 0 62.0225 39.4965
      vertex 0 61.3135 39.3791
    endloop
  endfacet
  facet normal 0.263934 0.677197 -0.686835
    outer loop
      vertex 0 14.1315 51.5108
      vertex 2.68044 25.3011 63.5536
      vertex 0.760191 13.7707 51.4472
    endloop
  endfacet
  facet normal 0.263935 0.677197 -0.686835
    outer loop
      vertex 2.68044 25.3011 63.5536
      vertex 0 14.1315 51.5108
      vertex 0 26.3255 63.5337
    endloop
  endfacet
  facet normal -0.00439385 0.105275 0.994433
    outer loop
      vertex 0 15.5222 67.8052
      vertex 1.56606 24.4183 66.8703
      vertex 0 24.3647 66.8691
    endloop
  endfacet
  facet normal -0.00439127 0.105274 0.994434
    outer loop
      vertex 1.56606 24.4183 66.8703
      vertex 0 15.5222 67.8052
      vertex 0.32135 12.4558 68.1312
    endloop
  endfacet
  facet normal 0.39868 0.138179 0.90662
    outer loop
      vertex 0.32135 12.4558 68.1312
      vertex 0 15.5222 67.8052
      vertex 0 9.57304 68.7119
    endloop
  endfacet
  facet normal 0.456594 0.12649 0.880637
    outer loop
      vertex 0 9.57304 68.7119
      vertex 0.32135 -5.52924 70.7145
      vertex 0.32135 12.4558 68.1312
    endloop
  endfacet
  facet normal 0.456592 0.12649 0.880638
    outer loop
      vertex 0.32135 -5.52924 70.7145
      vertex 0 9.57304 68.7119
      vertex 0 -3.78475 70.6305
    endloop
  endfacet
  facet normal 0.336837 0.107068 0.935456
    outer loop
      vertex 0.32135 -5.52924 70.7145
      vertex 0 -3.78475 70.6305
      vertex 0 -8.44031 71.1634
    endloop
  endfacet
  facet normal -0.342604 0.180007 0.922074
    outer loop
      vertex 0 -8.44031 71.1634
      vertex 0.32135 -23.5143 74.2255
      vertex 0.32135 -5.52924 70.7145
    endloop
  endfacet
  facet normal -0.342595 0.180008 0.922077
    outer loop
      vertex 0.32135 -23.5143 74.2255
      vertex 0 -8.44031 71.1634
      vertex 0 -23.1345 74.032
    endloop
  endfacet
  facet normal 0.226739 0.58767 0.776681
    outer loop
      vertex 0 -30 79.2267
      vertex 0.32135 -23.5143 74.2255
      vertex 0 -23.1345 74.032
    endloop
  endfacet
  facet normal 0.226739 0.58767 0.776681
    outer loop
      vertex 0.32135 -23.5143 74.2255
      vertex 0 -30 79.2267
      vertex 0.0578347 -30 79.2098
    endloop
  endfacet
  facet normal -0.802706 0.383563 0.456665
    outer loop
      vertex 0.32135 -30 79.673
      vertex 0.32135 -23.5143 74.2255
      vertex 0.0578347 -30 79.2098
    endloop
  endfacet
  facet normal 0.12487 -0.0479771 0.991012
    outer loop
      vertex 54.937 -20.3047 32.2452
      vertex 54.8692 40.7667 35.2103
      vertex 40.6464 12.8279 35.6499
    endloop
  endfacet
  facet normal 0.148685 -0.110286 0.982715
    outer loop
      vertex 98.6249 -30 28.2754
      vertex 98.4675 -21.8054 29.2189
      vertex 91.953 -30 29.2849
    endloop
  endfacet
  facet normal 0.0677099 -0.0458008 0.996653
    outer loop
      vertex 54.937 -20.3047 32.2452
      vertex 91.953 -30 29.2849
      vertex 98.4675 -21.8054 29.2189
    endloop
  endfacet
  facet normal 0.0677099 -0.0458008 0.996653
    outer loop
      vertex 91.953 -30 29.2849
      vertex 54.937 -20.3047 32.2452
      vertex 54.9372 -30 31.7996
    endloop
  endfacet
  facet normal 0.0361449 -0.0743255 0.996579
    outer loop
      vertex 117.229 -30 25.6779
      vertex 117.231 -27.1606 25.8896
      vertex 116.248 -30 25.7135
    endloop
  endfacet
  facet normal 0.142979 -0.110491 0.983539
    outer loop
      vertex 98.4675 -21.8054 29.2189
      vertex 116.248 -30 25.7135
      vertex 117.231 -27.1606 25.8896
    endloop
  endfacet
  facet normal 0.142979 -0.110491 0.983539
    outer loop
      vertex 116.248 -30 25.7135
      vertex 98.4675 -21.8054 29.2189
      vertex 98.6249 -30 28.2754
    endloop
  endfacet
  facet normal -0.0105004 -0.0743336 0.997178
    outer loop
      vertex 127.712 -30 25.7883
      vertex 117.231 -27.1606 25.8896
      vertex 117.229 -30 25.6779
    endloop
  endfacet
  facet normal 0.242241 -0.10815 0.96417
    outer loop
      vertex 40.6464 12.8279 35.6499
      vertex 54.8692 40.7667 35.2103
      vertex 40.4904 47.282 39.5537
    endloop
  endfacet
  facet normal 0.0667464 -0.0709125 0.995247
    outer loop
      vertex 98.4675 -21.8054 29.2189
      vertex 98.4777 29.7969 32.8949
      vertex 54.937 -20.3047 32.2452
    endloop
  endfacet
  facet normal 0.0408113 -0.0484093 0.997993
    outer loop
      vertex 54.937 -20.3047 32.2452
      vertex 98.4777 29.7969 32.8949
      vertex 54.8692 40.7667 35.2103
    endloop
  endfacet
  facet normal 0.147383 -0.0956243 0.984446
    outer loop
      vertex 117.231 -27.1606 25.8896
      vertex 116.541 25.1265 31.0719
      vertex 98.4675 -21.8054 29.2189
    endloop
  endfacet
  facet normal 0.0820185 -0.0708346 0.99411
    outer loop
      vertex 116.541 25.1265 31.0719
      vertex 98.4777 29.7969 32.8949
      vertex 98.4675 -21.8054 29.2189
    endloop
  endfacet
  facet normal -0.0125821 -0.0819952 0.996553
    outer loop
      vertex 134.864 21.8003 30.1407
      vertex 127.712 -30 25.7883
      vertex 134.932 -30 25.8795
    endloop
  endfacet
  facet normal -0.0125821 -0.0819952 0.996553
    outer loop
      vertex 127.712 -30 25.7883
      vertex 134.864 21.8003 30.1407
      vertex 117.231 -27.1606 25.8896
    endloop
  endfacet
  facet normal 0.0327303 -0.0981477 0.994633
    outer loop
      vertex 117.231 -27.1606 25.8896
      vertex 134.864 21.8003 30.1407
      vertex 116.541 25.1265 31.0719
    endloop
  endfacet
  facet normal 0.400205 0.480633 0.780274
    outer loop
      vertex 125.254 140 20
      vertex 117.258 137.477 25.6552
      vertex 130.786 135.394 20
    endloop
  endfacet
  facet normal 0.400206 0.480633 0.780274
    outer loop
      vertex 117.258 137.477 25.6552
      vertex 125.254 140 20
      vertex 117.229 140 24.1158
    endloop
  endfacet
  facet normal 0.384345 0.606612 0.695918
    outer loop
      vertex 130.786 135.394 20
      vertex 134.944 128.859 23.3996
      vertex 134.961 132.748 20
    endloop
  endfacet
  facet normal 0.384343 0.606611 0.695919
    outer loop
      vertex 134.944 128.859 23.3996
      vertex 130.786 135.394 20
      vertex 117.258 137.477 25.6552
    endloop
  endfacet
  facet normal 0.329328 0.620591 0.711625
    outer loop
      vertex 134.944 128.859 23.3996
      vertex 140 130.074 20
      vertex 134.961 132.748 20
    endloop
  endfacet
  facet normal 0.329328 0.620591 0.711625
    outer loop
      vertex 140 130.074 20
      vertex 134.944 128.859 23.3996
      vertex 140 126.775 22.8768
    endloop
  endfacet
  facet normal 0.283093 0.477405 0.831831
    outer loop
      vertex 117.258 137.477 25.6552
      vertex 114.61 140 25.1086
      vertex 111.442 140 26.1866
    endloop
  endfacet
  facet normal 0.307251 0.498205 0.810795
    outer loop
      vertex 117.258 137.477 25.6552
      vertex 117.229 140 24.1158
      vertex 114.61 140 25.1086
    endloop
  endfacet
  facet normal 0.228957 0.335334 0.913855
    outer loop
      vertex 99.5451 135.325 30.8826
      vertex 111.442 140 26.1866
      vertex 99.5543 140 29.1649
    endloop
  endfacet
  facet normal 0.228957 0.335334 0.913855
    outer loop
      vertex 111.442 140 26.1866
      vertex 99.5451 135.325 30.8826
      vertex 117.258 137.477 25.6552
    endloop
  endfacet
  facet normal 0.253689 0.207078 0.94486
    outer loop
      vertex 117.419 124.587 28.4371
      vertex 117.258 137.477 25.6552
      vertex 99.5451 135.325 30.8826
    endloop
  endfacet
  facet normal 0.222959 0.208295 0.952314
    outer loop
      vertex 134.944 128.859 23.3996
      vertex 129.073 127.853 24.9942
      vertex 130.817 127.853 24.5858
    endloop
  endfacet
  facet normal 0.222956 0.208301 0.952314
    outer loop
      vertex 117.258 137.477 25.6552
      vertex 128.192 127.213 25.3403
      vertex 129.073 127.853 24.9942
    endloop
  endfacet
  facet normal 0.222957 0.208303 0.952313
    outer loop
      vertex 128.192 127.213 25.3403
      vertex 117.258 137.477 25.6552
      vertex 117.419 124.587 28.4371
    endloop
  endfacet
  facet normal 0.222957 0.208303 0.952313
    outer loop
      vertex 117.258 137.477 25.6552
      vertex 129.073 127.853 24.9942
      vertex 134.944 128.859 23.3996
    endloop
  endfacet
  facet normal 0.197136 0.294078 0.93523
    outer loop
      vertex 127.573 126.763 25.6123
      vertex 117.419 124.587 28.4371
      vertex 127 125 26.2876
    endloop
  endfacet
  facet normal 0.197135 0.294081 0.935229
    outer loop
      vertex 117.419 124.587 28.4371
      vertex 127.573 126.763 25.6123
      vertex 128.192 127.213 25.3403
    endloop
  endfacet
  facet normal 0.197136 0.294078 0.93523
    outer loop
      vertex 134.944 128.859 23.3996
      vertex 133 125 25.0229
      vertex 134.93 116.435 27.3093
    endloop
  endfacet
  facet normal 0.197135 0.294079 0.93523
    outer loop
      vertex 134.944 128.859 23.3996
      vertex 132.427 126.763 24.5892
      vertex 133 125 25.0229
    endloop
  endfacet
  facet normal 0.197137 0.294077 0.93523
    outer loop
      vertex 134.944 128.859 23.3996
      vertex 130.927 127.853 24.5626
      vertex 132.427 126.763 24.5892
    endloop
  endfacet
  facet normal 0.197116 0.294143 0.935214
    outer loop
      vertex 130.927 127.853 24.5626
      vertex 134.944 128.859 23.3996
      vertex 130.817 127.853 24.5858
    endloop
  endfacet
  facet normal 0.197136 0.294078 0.93523
    outer loop
      vertex 132.427 123.237 25.6981
      vertex 134.93 116.435 27.3093
      vertex 133 125 25.0229
    endloop
  endfacet
  facet normal 0.197136 0.294078 0.93523
    outer loop
      vertex 130.927 122.147 26.357
      vertex 134.93 116.435 27.3093
      vertex 132.427 123.237 25.6981
    endloop
  endfacet
  facet normal 0.197136 0.294079 0.93523
    outer loop
      vertex 129.073 122.147 26.7478
      vertex 134.93 116.435 27.3093
      vertex 130.927 122.147 26.357
    endloop
  endfacet
  facet normal 0.197136 0.294076 0.935231
    outer loop
      vertex 117.419 124.587 28.4371
      vertex 129.073 122.147 26.7478
      vertex 127.573 123.237 26.7213
    endloop
  endfacet
  facet normal 0.197136 0.294079 0.93523
    outer loop
      vertex 129.073 122.147 26.7478
      vertex 117.419 124.587 28.4371
      vertex 134.93 116.435 27.3093
    endloop
  endfacet
  facet normal 0.197136 0.294079 0.93523
    outer loop
      vertex 117.419 124.587 28.4371
      vertex 127.573 123.237 26.7213
      vertex 127 125 26.2876
    endloop
  endfacet
  facet normal 0.504439 0.296918 0.81079
    outer loop
      vertex 99.5451 135.325 30.8826
      vertex 99.5543 140 29.1649
      vertex 96.137 140 31.291
    endloop
  endfacet
  facet normal 0.186705 -0.0118828 0.982344
    outer loop
      vertex 27.717 93.8794 42.1158
      vertex 27.1881 128.468 42.6347
      vertex 0.32135 136.426 47.8373
    endloop
  endfacet
  facet normal 0.148747 -0.13797 0.979203
    outer loop
      vertex 0.32135 136.426 47.8373
      vertex 20.0017 140 45.3513
      vertex 0.32135 140 48.3408
    endloop
  endfacet
  facet normal 0.148747 -0.137969 0.979203
    outer loop
      vertex 20.0017 140 45.3513
      vertex 0.32135 136.426 47.8373
      vertex 27.1881 128.468 42.6347
    endloop
  endfacet
  facet normal 0.2204 -0.00516877 0.975396
    outer loop
      vertex 40.8023 -21.6262 35.4321
      vertex 54.937 -20.3047 32.2452
      vertex 40.6464 12.8279 35.6499
    endloop
  endfacet
  facet normal 0.216949 0.2928 0.931236
    outer loop
      vertex 134.93 116.435 27.3093
      vertex 140 126.775 22.8768
      vertex 134.944 128.859 23.3996
    endloop
  endfacet
  facet normal 0.21695 0.2928 0.931236
    outer loop
      vertex 140 126.775 22.8768
      vertex 134.93 116.435 27.3093
      vertex 140 117.907 25.6651
    endloop
  endfacet
  facet normal 0.206502 0.321007 0.92429
    outer loop
      vertex 140 114.347 26.9017
      vertex 140 117.907 25.6651
      vertex 134.93 116.435 27.3093
    endloop
  endfacet
  facet normal 0.147475 0.16782 0.974724
    outer loop
      vertex 134.924 104.588 29.35
      vertex 140 114.347 26.9017
      vertex 134.93 116.435 27.3093
    endloop
  endfacet
  facet normal 0.147475 0.16782 0.974724
    outer loop
      vertex 140 114.347 26.9017
      vertex 134.924 104.588 29.35
      vertex 140 105.9 28.3561
    endloop
  endfacet
  facet normal 0.131726 0.222195 0.966063
    outer loop
      vertex 140 102.875 29.0516
      vertex 140 105.9 28.3561
      vertex 134.924 104.588 29.35
    endloop
  endfacet
  facet normal 0.0984497 0.141741 0.984996
    outer loop
      vertex 140 93.827 30.2611
      vertex 140 96.2893 29.9067
      vertex 134.917 95.344 30.5508
    endloop
  endfacet
  facet normal 0.101189 0.128091 0.986587
    outer loop
      vertex 134.917 95.344 30.5508
      vertex 140 102.875 29.0516
      vertex 134.924 104.588 29.35
    endloop
  endfacet
  facet normal 0.10119 0.128091 0.986587
    outer loop
      vertex 140 102.875 29.0516
      vertex 134.917 95.344 30.5508
      vertex 140 96.2893 29.9067
    endloop
  endfacet
  facet normal 0.0706677 0.0464768 0.996417
    outer loop
      vertex 134.917 95.344 30.5508
      vertex 140 79.5184 30.9285
      vertex 140 93.827 30.2611
    endloop
  endfacet
  facet normal 0.0706679 0.0464769 0.996417
    outer loop
      vertex 140 79.5184 30.9285
      vertex 134.917 95.344 30.5508
      vertex 134.891 75.2265 31.491
    endloop
  endfacet
  facet normal 0.0797087 0.0356829 0.996179
    outer loop
      vertex 140 73.5637 31.1418
      vertex 140 79.5184 30.9285
      vertex 134.891 75.2265 31.491
    endloop
  endfacet
  facet normal 0.0741109 0.0182923 0.997082
    outer loop
      vertex 140 67.5971 31.2512
      vertex 140 73.5637 31.1418
      vertex 134.891 75.2265 31.491
    endloop
  endfacet
  facet normal 0.0189981 -0.0186973 0.999645
    outer loop
      vertex 134.864 53.5884 31.0868
      vertex 140 67.5971 31.2512
      vertex 134.891 75.2265 31.491
    endloop
  endfacet
  facet normal 0.0189981 -0.0186973 0.999645
    outer loop
      vertex 140 67.5971 31.2512
      vertex 134.864 53.5884 31.0868
      vertex 140 52.2206 30.9636
    endloop
  endfacet
  facet normal 0.0421933 -0.0117581 0.99904
    outer loop
      vertex 134.864 37.6943 30.8998
      vertex 140 47.7744 30.8015
      vertex 134.864 53.5884 31.0868
    endloop
  endfacet
  facet normal 0.0421932 -0.0117581 0.99904
    outer loop
      vertex 140 47.7744 30.8015
      vertex 134.864 37.6943 30.8998
      vertex 140 36.4981 30.6688
    endloop
  endfacet
  facet normal 0.0142629 -0.0364409 0.999234
    outer loop
      vertex 140 47.7744 30.8015
      vertex 140 52.2206 30.9636
      vertex 134.864 53.5884 31.0868
    endloop
  endfacet
  facet normal 0.0411169 -0.058673 0.99743
    outer loop
      vertex 140 20.7754 29.8687
      vertex 140 25.2218 30.1302
      vertex 134.864 21.8003 30.1407
    endloop
  endfacet
  facet normal 0.0337936 -0.0476775 0.998291
    outer loop
      vertex 134.864 37.6943 30.8998
      vertex 140 25.2218 30.1302
      vertex 140 36.4981 30.6688
    endloop
  endfacet
  facet normal 0.0337936 -0.0476776 0.998291
    outer loop
      vertex 140 25.2218 30.1302
      vertex 134.864 37.6943 30.8998
      vertex 134.864 21.8003 30.1407
    endloop
  endfacet
  facet normal 0.138664 0.162715 0.976881
    outer loop
      vertex 134.93 116.435 27.3093
      vertex 117.419 124.587 28.4371
      vertex 117.234 111.994 30.5608
    endloop
  endfacet
  facet normal 0.13719 0.168076 0.976181
    outer loop
      vertex 134.924 104.588 29.35
      vertex 134.93 116.435 27.3093
      vertex 117.234 111.994 30.5608
    endloop
  endfacet
  facet normal 0.0983002 0.12813 0.986874
    outer loop
      vertex 134.917 95.344 30.5508
      vertex 134.924 104.588 29.35
      vertex 117.226 101.743 31.4822
    endloop
  endfacet
  facet normal 0.105035 0.0889385 0.990483
    outer loop
      vertex 134.924 104.588 29.35
      vertex 117.234 111.994 30.5608
      vertex 117.226 101.743 31.4822
    endloop
  endfacet
  facet normal 0.0980626 0.0656586 0.993012
    outer loop
      vertex 134.891 75.2265 31.491
      vertex 117.226 101.743 31.4822
      vertex 117.199 80.6246 32.8811
    endloop
  endfacet
  facet normal 0.0692768 0.0464833 0.996514
    outer loop
      vertex 134.891 75.2265 31.491
      vertex 134.917 95.344 30.5508
      vertex 117.226 101.743 31.4822
    endloop
  endfacet
  facet normal 0.0908911 -0.0187117 0.995685
    outer loop
      vertex 134.864 53.5884 31.0868
      vertex 134.891 75.2265 31.491
      vertex 117.173 58.491 32.7939
    endloop
  endfacet
  facet normal 0.0771149 -0.00402344 0.997014
    outer loop
      vertex 134.891 75.2265 31.491
      vertex 117.199 80.6246 32.8811
      vertex 117.173 58.491 32.7939
    endloop
  endfacet
  facet normal 0.0825048 -0.0488712 0.995392
    outer loop
      vertex 134.864 53.5884 31.0868
      vertex 117.173 58.491 32.7939
      vertex 116.857 41.6838 31.9949
    endloop
  endfacet
  facet normal 0.0581068 -0.0117487 0.998241
    outer loop
      vertex 134.864 37.6943 30.8998
      vertex 134.864 53.5884 31.0868
      vertex 116.857 41.6838 31.9949
    endloop
  endfacet
  facet normal 0.0501155 -0.0476449 0.997606
    outer loop
      vertex 134.864 21.8003 30.1407
      vertex 134.864 37.6943 30.8998
      vertex 116.857 41.6838 31.9949
    endloop
  endfacet
  facet normal 0.0404616 -0.0563863 0.997589
    outer loop
      vertex 134.864 21.8003 30.1407
      vertex 116.857 41.6838 31.9949
      vertex 116.541 25.1265 31.0719
    endloop
  endfacet
  facet normal 0.179613 0.0755865 0.980829
    outer loop
      vertex 117.419 124.587 28.4371
      vertex 99.5451 135.325 30.8826
      vertex 99.5353 118.837 32.155
    endloop
  endfacet
  facet normal 0.150577 0.162255 0.975192
    outer loop
      vertex 117.234 111.994 30.5608
      vertex 117.419 124.587 28.4371
      vertex 99.5353 118.837 32.155
    endloop
  endfacet
  facet normal 0.115452 0.088827 0.989333
    outer loop
      vertex 117.226 101.743 31.4822
      vertex 117.234 111.994 30.5608
      vertex 99.5256 108.607 32.9314
    endloop
  endfacet
  facet normal 0.118199 0.0750324 0.990151
    outer loop
      vertex 117.234 111.994 30.5608
      vertex 99.5353 118.837 32.155
      vertex 99.5256 108.607 32.9314
    endloop
  endfacet
  facet normal 0.0950938 0.0351703 0.994847
    outer loop
      vertex 117.226 101.743 31.4822
      vertex 99.5256 108.607 32.9314
      vertex 99.5082 88.275 33.6519
    endloop
  endfacet
  facet normal 0.0718299 0.0658393 0.995242
    outer loop
      vertex 117.199 80.6246 32.8811
      vertex 117.226 101.743 31.4822
      vertex 99.5082 88.275 33.6519
    endloop
  endfacet
  facet normal 0.041802 -0.00398935 0.999118
    outer loop
      vertex 117.173 58.491 32.7939
      vertex 117.199 80.6246 32.8811
      vertex 99.5082 88.275 33.6519
    endloop
  endfacet
  facet normal 0.0992339 0.0302031 0.994606
    outer loop
      vertex 117.173 58.491 32.7939
      vertex 99.5082 88.275 33.6519
      vertex 99.4909 64.607 34.3723
    endloop
  endfacet
  facet normal 0.0675073 -0.0618318 0.995801
    outer loop
      vertex 117.173 58.491 32.7939
      vertex 99.4909 64.607 34.3723
      vertex 98.3956 46.7097 33.3353
    endloop
  endfacet
  facet normal 0.0591868 -0.0485122 0.997067
    outer loop
      vertex 116.857 41.6838 31.9949
      vertex 117.173 58.491 32.7939
      vertex 98.3956 46.7097 33.3353
    endloop
  endfacet
  facet normal 0.0569481 -0.0566553 0.996768
    outer loop
      vertex 116.541 25.1265 31.0719
      vertex 116.857 41.6838 31.9949
      vertex 98.3956 46.7097 33.3353
    endloop
  endfacet
  facet normal 0.0938666 -0.0254599 0.995259
    outer loop
      vertex 98.4777 29.7969 32.8949
      vertex 116.541 25.1265 31.0719
      vertex 98.3956 46.7097 33.3353
    endloop
  endfacet
  facet normal 0.199042 0.0596547 0.978174
    outer loop
      vertex 99.5451 135.325 30.8826
      vertex 96.137 140 31.291
      vertex 92.4809 140 32.035
    endloop
  endfacet
  facet normal 0.208774 0.0751251 0.975074
    outer loop
      vertex 92.4809 140 32.035
      vertex 99.5353 118.837 32.155
      vertex 99.5451 135.325 30.8826
    endloop
  endfacet
  facet normal 0.208775 0.0751253 0.975074
    outer loop
      vertex 99.5353 118.837 32.155
      vertex 92.4809 140 32.035
      vertex 79.0755 140 34.9052
    endloop
  endfacet
  facet normal 0.156237 0.0745976 0.984899
    outer loop
      vertex 99.5256 108.607 32.9314
      vertex 99.5353 118.837 32.155
      vertex 55.0172 135.869 37.9271
    endloop
  endfacet
  facet normal 0.125847 -0.00725197 0.992023
    outer loop
      vertex 55.0172 135.869 37.9271
      vertex 79.0755 140 34.9052
      vertex 55.0527 140 37.9527
    endloop
  endfacet
  facet normal 0.125847 -0.00725157 0.992023
    outer loop
      vertex 79.0755 140 34.9052
      vertex 55.0172 135.869 37.9271
      vertex 99.5353 118.837 32.155
    endloop
  endfacet
  facet normal 0.120509 0.0148561 0.992601
    outer loop
      vertex 55.0695 111.81 38.2808
      vertex 99.5256 108.607 32.9314
      vertex 55.0172 135.869 37.9271
    endloop
  endfacet
  facet normal 0.121883 0.0350439 0.991926
    outer loop
      vertex 99.5082 88.275 33.6519
      vertex 99.5256 108.607 32.9314
      vertex 55.0695 111.81 38.2808
    endloop
  endfacet
  facet normal 0.119325 0.0301211 0.992398
    outer loop
      vertex 99.4909 64.607 34.3723
      vertex 99.5082 88.275 33.6519
      vertex 55.0695 111.81 38.2808
    endloop
  endfacet
  facet normal 0.0768966 -0.0101863 0.996987
    outer loop
      vertex 99.4909 64.607 34.3723
      vertex 55.0695 111.81 38.2808
      vertex 54.8865 86.617 38.0375
    endloop
  endfacet
  facet normal 0.0766022 -0.0107856 0.997003
    outer loop
      vertex 55.231 60.0068 37.7232
      vertex 99.4909 64.607 34.3723
      vertex 54.8865 86.617 38.0375
    endloop
  endfacet
  facet normal 0.0818158 -0.0626423 0.994677
    outer loop
      vertex 98.3956 46.7097 33.3353
      vertex 99.4909 64.607 34.3723
      vertex 55.231 60.0068 37.7232
    endloop
  endfacet
  facet normal 0.0933331 -0.0254637 0.995309
    outer loop
      vertex 98.4777 29.7969 32.8949
      vertex 98.3956 46.7097 33.3353
      vertex 55.231 60.0068 37.7232
    endloop
  endfacet
  facet normal 0.0199716 -0.129848 0.991333
    outer loop
      vertex 98.4777 29.7969 32.8949
      vertex 55.231 60.0068 37.7232
      vertex 54.8692 40.7667 35.2103
    endloop
  endfacet
  facet normal 0.171923 -0.00760555 0.985081
    outer loop
      vertex 55.0172 135.869 37.9271
      vertex 55.0527 140 37.9527
      vertex 53.7552 140 38.1792
    endloop
  endfacet
  facet normal 0.184276 -0.00369673 0.982868
    outer loop
      vertex 55.0172 135.869 37.9271
      vertex 53.7552 140 38.1792
      vertex 50.7085 140 38.7504
    endloop
  endfacet
  facet normal 0.146155 -0.0126055 0.989181
    outer loop
      vertex 34.4326 140 41.7113
      vertex 27.1881 128.468 42.6347
      vertex 41.1288 120.139 40.4688
    endloop
  endfacet
  facet normal 0.146155 -0.0126054 0.989181
    outer loop
      vertex 27.1881 128.468 42.6347
      vertex 34.4326 140 41.7113
      vertex 27.0117 140 42.8078
    endloop
  endfacet
  facet normal 0.171123 -0.00394081 0.985242
    outer loop
      vertex 41.1288 120.139 40.4688
      vertex 40.9319 140 40.5824
      vertex 34.4326 140 41.7113
    endloop
  endfacet
  facet normal 0.201382 0.014838 0.9794
    outer loop
      vertex 44.4148 140 40.0445
      vertex 55.0172 135.869 37.9271
      vertex 50.7085 140 38.7504
    endloop
  endfacet
  facet normal 0.201382 0.0148381 0.9794
    outer loop
      vertex 55.0172 135.869 37.9271
      vertex 44.4148 140 40.0445
      vertex 55.0695 111.81 38.2808
    endloop
  endfacet
  facet normal 0.152636 -0.00414149 0.988274
    outer loop
      vertex 44.4148 140 40.0445
      vertex 41.1288 120.139 40.4688
      vertex 55.0695 111.81 38.2808
    endloop
  endfacet
  facet normal 0.152636 -0.00414141 0.988274
    outer loop
      vertex 41.1288 120.139 40.4688
      vertex 44.4148 140 40.0445
      vertex 40.9319 140 40.5824
    endloop
  endfacet
  facet normal 0.186045 -0.033431 0.981972
    outer loop
      vertex 41.3017 86.5632 39.293
      vertex 41.1288 120.139 40.4688
      vertex 27.717 93.8794 42.1158
    endloop
  endfacet
  facet normal 0.146155 -0.0126054 0.989181
    outer loop
      vertex 27.717 93.8794 42.1158
      vertex 41.1288 120.139 40.4688
      vertex 27.1881 128.468 42.6347
    endloop
  endfacet
  facet normal 0.135118 -0.0339831 0.990247
    outer loop
      vertex 41.3017 86.5632 39.293
      vertex 55.0695 111.81 38.2808
      vertex 41.1288 120.139 40.4688
    endloop
  endfacet
  facet normal 0.0920598 -0.0102841 0.9957
    outer loop
      vertex 54.8865 86.617 38.0375
      vertex 55.0695 111.81 38.2808
      vertex 41.3017 86.5632 39.293
    endloop
  endfacet
  facet normal 0.205698 0.00564198 0.978599
    outer loop
      vertex 41.0727 66.9226 39.4639
      vertex 27.717 93.8794 42.1158
      vertex 26.9143 73.8383 42.4001
    endloop
  endfacet
  facet normal 0.206598 0.00610689 0.978407
    outer loop
      vertex 41.0727 66.9226 39.4639
      vertex 41.3017 86.5632 39.293
      vertex 27.717 93.8794 42.1158
    endloop
  endfacet
  facet normal 0.0920606 -0.01057 0.995697
    outer loop
      vertex 55.231 60.0068 37.7232
      vertex 54.8865 86.617 38.0375
      vertex 41.3017 86.5632 39.293
    endloop
  endfacet
  facet normal 0.125477 0.00717186 0.992071
    outer loop
      vertex 55.231 60.0068 37.7232
      vertex 41.3017 86.5632 39.293
      vertex 41.0727 66.9226 39.4639
    endloop
  endfacet
  facet normal 0.31647 -0.00504524 0.948589
    outer loop
      vertex 40.4904 47.282 39.5537
      vertex 41.0727 66.9226 39.4639
      vertex 26.1117 53.7973 44.3854
    endloop
  endfacet
  facet normal 0.24242 0.0860218 0.96635
    outer loop
      vertex 41.0727 66.9226 39.4639
      vertex 26.9143 73.8383 42.4001
      vertex 26.1117 53.7973 44.3854
    endloop
  endfacet
  facet normal 0.122466 0.000906466 0.992472
    outer loop
      vertex 55.231 60.0068 37.7232
      vertex 41.0727 66.9226 39.4639
      vertex 40.4904 47.282 39.5537
    endloop
  endfacet
  facet normal 0.232148 -0.130257 0.963919
    outer loop
      vertex 54.8692 40.7667 35.2103
      vertex 55.231 60.0068 37.7232
      vertex 40.4904 47.282 39.5537
    endloop
  endfacet
  facet normal 0.319813 0.00315819 0.947475
    outer loop
      vertex 26.3896 15.4248 44.4195
      vertex 40.4904 47.282 39.5537
      vertex 26.1117 53.7973 44.3854
    endloop
  endfacet
  facet normal 0.509022 -0.0946335 0.855535
    outer loop
      vertex 40.6464 12.8279 35.6499
      vertex 40.4904 47.282 39.5537
      vertex 26.3896 15.4248 44.4195
    endloop
  endfacet
  facet normal 0.523535 -0.00301692 0.851999
    outer loop
      vertex 40.8023 -21.6262 35.4321
      vertex 40.6464 12.8279 35.6499
      vertex 26.3896 15.4248 44.4195
    endloop
  endfacet
  facet normal 0.352697 -0.0887612 0.931518
    outer loop
      vertex 27.0754 -23.1021 40.4888
      vertex 40.8023 -21.6262 35.4321
      vertex 26.3896 15.4248 44.4195
    endloop
  endfacet
  facet normal 0.136181 -0.0454766 0.98964
    outer loop
      vertex 54.9372 -30 31.7996
      vertex 54.937 -20.3047 32.2452
      vertex 50.3179 -30 32.4353
    endloop
  endfacet
  facet normal 0.226991 -0.0891292 0.96981
    outer loop
      vertex 40.8023 -21.6262 35.4321
      vertex 50.3179 -30 32.4353
      vertex 54.937 -20.3047 32.2452
    endloop
  endfacet
  facet normal 0.226991 -0.0891293 0.96981
    outer loop
      vertex 50.3179 -30 32.4353
      vertex 40.8023 -21.6262 35.4321
      vertex 40.9031 -30 34.6389
    endloop
  endfacet
  facet normal 0.34998 -0.0501477 0.935414
    outer loop
      vertex 27.0754 -23.1021 40.4888
      vertex 36.8432 -30 36.4644
      vertex 40.8023 -21.6262 35.4321
    endloop
  endfacet
  facet normal 0.34998 -0.0501478 0.935414
    outer loop
      vertex 36.8432 -30 36.4644
      vertex 27.0754 -23.1021 40.4888
      vertex 27.1411 -30 40.0944
    endloop
  endfacet
  facet normal 0.408746 -0.081184 0.90903
    outer loop
      vertex 40.9031 -30 34.6389
      vertex 40.8023 -21.6262 35.4321
      vertex 36.8432 -30 36.4644
    endloop
  endfacet
  facet normal 0.345899 -0.00546798 0.938256
    outer loop
      vertex 27.1881 128.468 42.6347
      vertex 23.2296 140 44.1613
      vertex 20.0017 140 45.3513
    endloop
  endfacet
  facet normal 0.336935 -0.00897238 0.941485
    outer loop
      vertex 27.1881 128.468 42.6347
      vertex 27.0117 140 42.8078
      vertex 23.2296 140 44.1613
    endloop
  endfacet
  facet normal 0.284315 0.00221149 0.958728
    outer loop
      vertex 26.9143 73.8383 42.4001
      vertex 27.717 93.8794 42.1158
      vertex 13.1885 91.5259 46.4297
    endloop
  endfacet
  facet normal 0.302453 0.0175923 0.953002
    outer loop
      vertex 19.5513 58.8889 45.0128
      vertex 26.9143 73.8383 42.4001
      vertex 13.1885 91.5259 46.4297
    endloop
  endfacet
  facet normal -0.598352 -0.150815 0.786912
    outer loop
      vertex 19.5513 58.8889 45.0128
      vertex 13.1885 91.5259 46.4297
      vertex 12.9909 63.9805 41.0003
    endloop
  endfacet
  facet normal 0.164346 0.090721 0.982222
    outer loop
      vertex 26.1117 53.7973 44.3854
      vertex 26.9143 73.8383 42.4001
      vertex 19.5513 58.8889 45.0128
    endloop
  endfacet
  facet normal -0.244511 -0.120536 0.962125
    outer loop
      vertex 13.1885 91.5259 46.4297
      vertex 0.32135 107.044 45.1038
      vertex 0.32135 61.9737 39.4574
    endloop
  endfacet
  facet normal -0.0886122 -0.192015 0.977383
    outer loop
      vertex 12.9909 63.9805 41.0003
      vertex 13.1885 91.5259 46.4297
      vertex 0.32135 61.9737 39.4574
    endloop
  endfacet
  facet normal -0.0938598 -0.162601 0.982217
    outer loop
      vertex 12.7933 36.4351 36.4214
      vertex 12.9909 63.9805 41.0003
      vertex 0.32135 61.9737 39.4574
    endloop
  endfacet
  facet normal -0.172766 -0.199046 0.964641
    outer loop
      vertex 0.32135 25.8329 32
      vertex 12.7933 36.4351 36.4214
      vertex 0.32135 61.9737 39.4574
    endloop
  endfacet
  facet normal -0.172766 -0.199046 0.964641
    outer loop
      vertex 12.7933 36.4351 36.4214
      vertex 0.32135 25.8329 32
      vertex 3.98996 22.6487 32
    endloop
  endfacet
  facet normal -0.955893 0.293344 -0.0147594
    outer loop
      vertex 15.3534 45.391 48.6192
      vertex 19.5513 58.8889 45.0128
      vertex 12.7933 36.4351 36.4214
    endloop
  endfacet
  facet normal -0.588128 -0.128515 0.798492
    outer loop
      vertex 19.5513 58.8889 45.0128
      vertex 12.9909 63.9805 41.0003
      vertex 12.7933 36.4351 36.4214
    endloop
  endfacet
  facet normal 0.233129 0.182684 0.955132
    outer loop
      vertex 26.1117 53.7973 44.3854
      vertex 19.5513 58.8889 45.0128
      vertex 15.3534 45.391 48.6192
    endloop
  endfacet
  facet normal 0.192845 0.23322 0.95311
    outer loop
      vertex 19.4556 44.0043 48.1285
      vertex 26.1117 53.7973 44.3854
      vertex 15.3534 45.391 48.6192
    endloop
  endfacet
  facet normal 0.216134 0.467065 0.857401
    outer loop
      vertex 12.7995 34.2113 55.141
      vertex 19.4556 44.0043 48.1285
      vertex 9.96136 36.2785 54.7303
    endloop
  endfacet
  facet normal -0.936767 0.334131 0.104044
    outer loop
      vertex 8.09017 32.3222 50.5882
      vertex 9.96136 36.2785 54.7303
      vertex 8.25764 32.8543 50.3875
    endloop
  endfacet
  facet normal -0.936767 0.334131 0.104043
    outer loop
      vertex 6.69131 28.1389 51.4281
      vertex 9.96136 36.2785 54.7303
      vertex 8.09017 32.3222 50.5882
    endloop
  endfacet
  facet normal -0.936767 0.334131 0.104044
    outer loop
      vertex 9.96136 36.2785 54.7303
      vertex 6.69131 28.1389 51.4281
      vertex 5.23495 23.9512 51.7641
    endloop
  endfacet
  facet normal -0.936767 0.33413 0.104044
    outer loop
      vertex 1.04418 18.3563 32
      vertex 1.04528 18.3419 32.0559
      vertex 1.07359 18.4154 32.075
    endloop
  endfacet
  facet normal -0.936766 0.334131 0.104045
    outer loop
      vertex 1.04528 18.3419 32.0559
      vertex 1.04418 18.3563 32
      vertex 0.925955 18.0248 32
    endloop
  endfacet
  facet normal -0.818376 0.561632 -0.12178
    outer loop
      vertex 12.7933 36.4351 36.4214
      vertex 9.78148 34.3597 47.0901
      vertex 9.96136 36.2785 54.7303
    endloop
  endfacet
  facet normal -0.818375 0.561634 -0.121779
    outer loop
      vertex 12.7933 36.4351 36.4214
      vertex 9.99714 34.2167 44.9813
      vertex 9.78148 34.3597 47.0901
    endloop
  endfacet
  facet normal -0.818466 0.561486 -0.121848
    outer loop
      vertex 12.7933 36.4351 36.4214
      vertex 10 34.2148 44.9534
      vertex 9.99714 34.2167 44.9813
    endloop
  endfacet
  facet normal -0.818376 0.561632 -0.12178
    outer loop
      vertex 12.7933 36.4351 36.4214
      vertex 9.78446 33.4188 42.7307
      vertex 10 34.2148 44.9534
    endloop
  endfacet
  facet normal -0.818353 0.561672 -0.12175
    outer loop
      vertex 12.7933 36.4351 36.4214
      vertex 9.78148 33.4078 42.6999
      vertex 9.78446 33.4188 42.7307
    endloop
  endfacet
  facet normal -0.818376 0.561632 -0.12178
    outer loop
      vertex 12.7933 36.4351 36.4214
      vertex 9.13545 31.9739 40.4281
      vertex 9.78148 33.4078 42.6999
    endloop
  endfacet
  facet normal -0.818373 0.561639 -0.12177
    outer loop
      vertex 12.7933 36.4351 36.4214
      vertex 9.12019 31.9447 40.3961
      vertex 9.13545 31.9739 40.4281
    endloop
  endfacet
  facet normal -0.818376 0.561632 -0.12178
    outer loop
      vertex 12.7933 36.4351 36.4214
      vertex 8.09017 29.9757 38.2374
      vertex 9.12019 31.9447 40.3961
    endloop
  endfacet
  facet normal -0.818376 0.561632 -0.12178
    outer loop
      vertex 12.7933 36.4351 36.4214
      vertex 6.71527 27.5431 36.2579
      vertex 8.09017 29.9757 38.2374
    endloop
  endfacet
  facet normal -0.818378 0.561633 -0.121758
    outer loop
      vertex 12.7933 36.4351 36.4214
      vertex 6.69131 27.5007 36.2234
      vertex 6.71527 27.5431 36.2579
    endloop
  endfacet
  facet normal -0.818376 0.561632 -0.12178
    outer loop
      vertex 3.98996 22.6487 32
      vertex 6.69131 27.5007 36.2234
      vertex 12.7933 36.4351 36.4214
    endloop
  endfacet
  facet normal -0.818376 0.561632 -0.12178
    outer loop
      vertex 6.69131 27.5007 36.2234
      vertex 3.98996 22.6487 32
      vertex 5 24.6569 34.4742
    endloop
  endfacet
  facet normal -0.818373 0.561635 -0.121783
    outer loop
      vertex 5 24.6569 34.4742
      vertex 3.98996 22.6487 32
      vertex 4.96421 24.5991 34.4478
    endloop
  endfacet
  facet normal -0.818376 0.561632 -0.12178
    outer loop
      vertex 3.98996 22.6487 32
      vertex 3.09017 21.5687 33.0662
      vertex 4.96421 24.5991 34.4478
    endloop
  endfacet
  facet normal -0.818376 0.561632 -0.12178
    outer loop
      vertex 3.98996 22.6487 32
      vertex 1.09022 18.4414 32.0832
      vertex 3.09017 21.5687 33.0662
    endloop
  endfacet
  facet normal -0.818377 0.561633 -0.121771
    outer loop
      vertex 1.04418 18.3563 32
      vertex 1.09022 18.4414 32.0832
      vertex 3.98996 22.6487 32
    endloop
  endfacet
  facet normal -0.818368 0.561642 -0.121785
    outer loop
      vertex 1.09022 18.4414 32.0832
      vertex 1.04418 18.3563 32
      vertex 1.07359 18.4154 32.075
    endloop
  endfacet
  facet normal -0.818376 0.561632 -0.12178
    outer loop
      vertex 9.13545 33.8361 49.0167
      vertex 9.96136 36.2785 54.7303
      vertex 9.78148 34.3597 47.0901
    endloop
  endfacet
  facet normal -0.818376 0.561632 -0.12178
    outer loop
      vertex 9.96136 36.2785 54.7303
      vertex 9.13545 33.8361 49.0167
      vertex 8.25764 32.8543 50.3875
    endloop
  endfacet
  facet normal -0.464484 0.125907 0.876585
    outer loop
      vertex 1.57036 1.33636 70.3902
      vertex 0.32135 12.4558 68.1312
      vertex 0.32135 -5.52924 70.7145
    endloop
  endfacet
  facet normal -0.407778 0.137574 0.902658
    outer loop
      vertex 1.57036 1.33636 70.3902
      vertex 1.56606 24.4183 66.8703
      vertex 0.32135 12.4558 68.1312
    endloop
  endfacet
  facet normal -0.889626 0.436629 -0.13387
    outer loop
      vertex 15.3534 45.391 48.6192
      vertex 12.7933 36.4351 36.4214
      vertex 9.96136 36.2785 54.7303
    endloop
  endfacet
  facet normal 0.249944 0.432933 0.866081
    outer loop
      vertex 19.4556 44.0043 48.1285
      vertex 15.3534 45.391 48.6192
      vertex 9.96136 36.2785 54.7303
    endloop
  endfacet
  facet normal 0.669219 0.11214 0.734555
    outer loop
      vertex 1.57036 1.33636 70.3902
      vertex 12.7995 34.2113 55.141
      vertex 1.56606 24.4183 66.8703
    endloop
  endfacet
  facet normal 0.738902 0.0589633 0.671228
    outer loop
      vertex 12.8439 6.03251 57.5675
      vertex 12.7995 34.2113 55.141
      vertex 1.57036 1.33636 70.3902
    endloop
  endfacet
  facet normal 0.746805 0.0582233 0.66249
    outer loop
      vertex 12.8439 6.03251 57.5675
      vertex 19.6168 10.7287 49.5199
      vertex 12.7995 34.2113 55.141
    endloop
  endfacet
  facet normal 0.701362 0.0331714 0.712033
    outer loop
      vertex 19.6168 10.7287 49.5199
      vertex 19.4556 44.0043 48.1285
      vertex 12.7995 34.2113 55.141
    endloop
  endfacet
  facet normal 0.48535 0.00429227 0.87431
    outer loop
      vertex 26.3896 15.4248 44.4195
      vertex 26.1117 53.7973 44.3854
      vertex 19.4556 44.0043 48.1285
    endloop
  endfacet
  facet normal 0.584788 0.0367181 0.810355
    outer loop
      vertex 19.6168 10.7287 49.5199
      vertex 26.3896 15.4248 44.4195
      vertex 19.4556 44.0043 48.1285
    endloop
  endfacet
  facet normal 0.728997 0.0992666 0.67728
    outer loop
      vertex 2.07759 -21.3536 73.1698
      vertex 12.8439 6.03251 57.5675
      vertex 1.57036 1.33636 70.3902
    endloop
  endfacet
  facet normal 0.820616 0.00296747 0.571472
    outer loop
      vertex 13.0922 -22.2234 57.3576
      vertex 12.8439 6.03251 57.5675
      vertex 2.07759 -21.3536 73.1698
    endloop
  endfacet
  facet normal 0.769933 0.00202705 0.638121
    outer loop
      vertex 13.0922 -22.2234 57.3576
      vertex 20.0838 -22.6628 48.9232
      vertex 12.8439 6.03251 57.5675
    endloop
  endfacet
  facet normal 0.765329 -0.000796936 0.643639
    outer loop
      vertex 20.0838 -22.6628 48.9232
      vertex 19.6168 10.7287 49.5199
      vertex 12.8439 6.03251 57.5675
    endloop
  endfacet
  facet normal 0.629731 -0.0677438 0.773853
    outer loop
      vertex 27.0754 -23.1021 40.4888
      vertex 26.3896 15.4248 44.4195
      vertex 19.6168 10.7287 49.5199
    endloop
  endfacet
  facet normal 0.769867 -0.000636347 0.638204
    outer loop
      vertex 20.0838 -22.6628 48.9232
      vertex 27.0754 -23.1021 40.4888
      vertex 19.6168 10.7287 49.5199
    endloop
  endfacet
  facet normal 0.788137 0.395863 0.471309
    outer loop
      vertex 0.585928 -30 79.2306
      vertex 0.32135 -23.5143 74.2255
      vertex 0.32135 -30 79.673
    endloop
  endfacet
  facet normal -0.255518 0.584106 0.77041
    outer loop
      vertex 0.32135 -23.5143 74.2255
      vertex 1.74409 -30 79.6147
      vertex 2.07759 -21.3536 73.1698
    endloop
  endfacet
  facet normal -0.255519 0.584105 0.77041
    outer loop
      vertex 1.74409 -30 79.6147
      vertex 0.32135 -23.5143 74.2255
      vertex 0.585928 -30 79.2306
    endloop
  endfacet
  facet normal 0.77529 0.35797 0.520368
    outer loop
      vertex 8.95148 -30 68.8765
      vertex 2.07759 -21.3536 73.1698
      vertex 1.74409 -30 79.6147
    endloop
  endfacet
  facet normal 0.77529 0.35797 0.520368
    outer loop
      vertex 2.07759 -21.3536 73.1698
      vertex 8.95148 -30 68.8765
      vertex 13.0922 -22.2234 57.3576
    endloop
  endfacet
  facet normal 0.940385 0.00304106 0.340097
    outer loop
      vertex 11.6703 -30 61.3587
      vertex 13.0922 -22.2234 57.3576
      vertex 8.95148 -30 68.8765
    endloop
  endfacet
  facet normal 0.87842 0.0816504 0.470863
    outer loop
      vertex 14.6307 -30 55.8359
      vertex 13.0922 -22.2234 57.3576
      vertex 11.6703 -30 61.3587
    endloop
  endfacet
  facet normal 0.770296 0.0277342 0.637083
    outer loop
      vertex 14.6307 -30 55.8359
      vertex 20.0838 -22.6628 48.9232
      vertex 13.0922 -22.2234 57.3576
    endloop
  endfacet
  facet normal 0.770296 0.0277339 0.637083
    outer loop
      vertex 20.0838 -22.6628 48.9232
      vertex 14.6307 -30 55.8359
      vertex 19.5574 -30 49.8791
    endloop
  endfacet
  facet normal 0.768807 -0.0292048 0.638814
    outer loop
      vertex 22.0211 -30 46.2562
      vertex 27.0754 -23.1021 40.4888
      vertex 20.0838 -22.6628 48.9232
    endloop
  endfacet
  facet normal 0.768807 -0.0292048 0.638814
    outer loop
      vertex 27.0754 -23.1021 40.4888
      vertex 22.0211 -30 46.2562
      vertex 27.1411 -30 40.0944
    endloop
  endfacet
  facet normal 0.826828 0.013933 0.562282
    outer loop
      vertex 22.0211 -30 46.2562
      vertex 20.0838 -22.6628 48.9232
      vertex 19.5574 -30 49.8791
    endloop
  endfacet
  facet normal -0.209558 -0.0905742 0.973592
    outer loop
      vertex 13.1885 91.5259 46.4297
      vertex 0.32135 136.426 47.8373
      vertex 0.32135 107.044 45.1038
    endloop
  endfacet
  facet normal 0.0667532 -0.0817148 0.994418
    outer loop
      vertex 140 5.97957 28.4959
      vertex 134.932 -30 25.8795
      vertex 140 -30 25.5393
    endloop
  endfacet
  facet normal 0.0667532 -0.0817148 0.994418
    outer loop
      vertex 134.932 -30 25.8795
      vertex 140 5.97957 28.4959
      vertex 134.864 21.8003 30.1407
    endloop
  endfacet
  facet normal 0.0342793 -0.092332 0.995138
    outer loop
      vertex 140 5.97957 28.4959
      vertex 140 20.7754 29.8687
      vertex 134.864 21.8003 30.1407
    endloop
  endfacet
  facet normal 0.276953 0.0492839 0.959619
    outer loop
      vertex 13.1885 91.5259 46.4297
      vertex 27.717 93.8794 42.1158
      vertex 0.32135 136.426 47.8373
    endloop
  endfacet
  facet normal 0.333927 0.180605 0.925135
    outer loop
      vertex 2.07759 -21.3536 73.1698
      vertex 0.32135 -5.52924 70.7145
      vertex 0.32135 -23.5143 74.2255
    endloop
  endfacet
  facet normal -0.343765 0.10661 0.932985
    outer loop
      vertex 2.07759 -21.3536 73.1698
      vertex 1.57036 1.33636 70.3902
      vertex 0.32135 -5.52924 70.7145
    endloop
  endfacet
  facet normal 0.246252 0.502703 0.828643
    outer loop
      vertex 12.7995 34.2113 55.141
      vertex 9.96136 36.2785 54.7303
      vertex 2.68044 25.3011 63.5536
    endloop
  endfacet
  facet normal -0.67466 0.737503 -0.0303836
    outer loop
      vertex 12.7995 34.2113 55.141
      vertex 2.68044 25.3011 63.5536
      vertex 1.56606 24.4183 66.8703
    endloop
  endfacet
  facet normal -0.886518 0.39706 -0.237551
    outer loop
      vertex 5.23495 23.9512 51.7641
      vertex 2.68044 25.3011 63.5536
      vertex 9.96136 36.2785 54.7303
    endloop
  endfacet
  facet normal -0.886517 0.39706 -0.237551
    outer loop
      vertex 5 23.4807 51.8545
      vertex 2.68044 25.3011 63.5536
      vertex 5.23495 23.9512 51.7641
    endloop
  endfacet
  facet normal -0.886518 0.39706 -0.237551
    outer loop
      vertex 3.09017 19.2912 51.9792
      vertex 2.68044 25.3011 63.5536
      vertex 5 23.4807 51.8545
    endloop
  endfacet
  facet normal -0.886518 0.39706 -0.237551
    outer loop
      vertex 1.04528 14.4823 51.5726
      vertex 2.68044 25.3011 63.5536
      vertex 3.09017 19.2912 51.9792
    endloop
  endfacet
  facet normal -0.886518 0.397059 -0.23755
    outer loop
      vertex 2.68044 25.3011 63.5536
      vertex 1.04528 14.4823 51.5726
      vertex 0.760191 13.7707 51.4472
    endloop
  endfacet
  facet normal -0.0333549 0.968547 0.246585
    outer loop
      vertex 1.56606 24.4183 66.8703
      vertex 0 24.5811 66.019
      vertex 0 24.3647 66.8691
    endloop
  endfacet
  facet normal -0.0333546 0.968547 0.246585
    outer loop
      vertex 0 24.5811 66.019
      vertex 1.56606 24.4183 66.8703
      vertex 2.68044 25.3011 63.5536
    endloop
  endfacet
  facet normal 0.294844 0.782116 0.548964
    outer loop
      vertex 2.68044 25.3011 63.5536
      vertex 0 26.3255 63.5337
      vertex 0 24.5811 66.019
    endloop
  endfacet
  facet normal -0.866028 -0.499996 0
    outer loop
      vertex 131.7 125 20
      vertex 130.85 126.472 23
      vertex 130.85 126.472 20
    endloop
  endfacet
  facet normal -0.866028 -0.499996 0
    outer loop
      vertex 130.85 126.472 23
      vertex 131.7 125 20
      vertex 131.7 125 23
    endloop
  endfacet
  facet normal 0.866028 -0.499996 0
    outer loop
      vertex 128.3 125 23
      vertex 129.15 126.472 20
      vertex 129.15 126.472 23
    endloop
  endfacet
  facet normal 0.866028 -0.499996 0
    outer loop
      vertex 129.15 126.472 20
      vertex 128.3 125 23
      vertex 128.3 125 20
    endloop
  endfacet
  facet normal 0 -1 0
    outer loop
      vertex 129.15 126.472 20
      vertex 130.85 126.472 23
      vertex 129.15 126.472 23
    endloop
  endfacet
  facet normal 0 -1 -0
    outer loop
      vertex 130.85 126.472 23
      vertex 129.15 126.472 20
      vertex 130.85 126.472 20
    endloop
  endfacet
  facet normal -0.866028 0.499996 0
    outer loop
      vertex 130.85 123.528 20
      vertex 131.7 125 23
      vertex 131.7 125 20
    endloop
  endfacet
  facet normal -0.866028 0.499996 0
    outer loop
      vertex 131.7 125 23
      vertex 130.85 123.528 20
      vertex 130.85 123.528 23
    endloop
  endfacet
  facet normal 0 1 -0
    outer loop
      vertex 130.85 123.528 20
      vertex 129.15 123.528 23
      vertex 130.85 123.528 23
    endloop
  endfacet
  facet normal 0 1 0
    outer loop
      vertex 129.15 123.528 23
      vertex 130.85 123.528 20
      vertex 129.15 123.528 20
    endloop
  endfacet
  facet normal 0.866028 0.499996 0
    outer loop
      vertex 129.15 123.528 23
      vertex 128.3 125 20
      vertex 128.3 125 23
    endloop
  endfacet
  facet normal 0.866028 0.499996 0
    outer loop
      vertex 128.3 125 20
      vertex 129.15 123.528 23
      vertex 129.15 123.528 20
    endloop
  endfacet
  facet normal -0.951056 -0.309019 0
    outer loop
      vertex 133 125 23
      vertex 132.427 126.763 24.5892
      vertex 132.427 126.763 23
    endloop
  endfacet
  facet normal -0.951056 -0.309019 0
    outer loop
      vertex 132.427 126.763 24.5892
      vertex 133 125 23
      vertex 133 125 25.0229
    endloop
  endfacet
  facet normal 0.951056 -0.309019 0
    outer loop
      vertex 127 125 23
      vertex 127.573 126.763 25.6123
      vertex 127 125 26.2876
    endloop
  endfacet
  facet normal 0.951056 -0.309019 0
    outer loop
      vertex 127.573 126.763 25.6123
      vertex 127 125 23
      vertex 127.573 126.763 23
    endloop
  endfacet
  facet normal 0 -1 0
    outer loop
      vertex 129.073 127.853 23
      vertex 130.817 127.853 24.5858
      vertex 129.073 127.853 24.9942
    endloop
  endfacet
  facet normal 0 -1 0
    outer loop
      vertex 130.927 127.853 23
      vertex 130.817 127.853 24.5858
      vertex 129.073 127.853 23
    endloop
  endfacet
  facet normal 0 -1 0
    outer loop
      vertex 130.817 127.853 24.5858
      vertex 130.927 127.853 23
      vertex 130.927 127.853 24.5626
    endloop
  endfacet
  facet normal -0.587788 -0.809015 0
    outer loop
      vertex 132.427 126.763 23
      vertex 130.927 127.853 24.5626
      vertex 130.927 127.853 23
    endloop
  endfacet
  facet normal -0.587788 -0.809015 0
    outer loop
      vertex 130.927 127.853 24.5626
      vertex 132.427 126.763 23
      vertex 132.427 126.763 24.5892
    endloop
  endfacet
  facet normal 0.587789 -0.809014 0
    outer loop
      vertex 127.573 126.763 23
      vertex 128.192 127.213 25.3403
      vertex 127.573 126.763 25.6123
    endloop
  endfacet
  facet normal 0.587787 -0.809016 1.03446e-06
    outer loop
      vertex 127.573 126.763 23
      vertex 129.073 127.853 24.9942
      vertex 128.192 127.213 25.3403
    endloop
  endfacet
  facet normal 0.587788 -0.809015 0
    outer loop
      vertex 129.073 127.853 24.9942
      vertex 127.573 126.763 23
      vertex 129.073 127.853 23
    endloop
  endfacet
  facet normal -0.951056 0.309019 0
    outer loop
      vertex 132.427 123.237 23
      vertex 133 125 25.0229
      vertex 133 125 23
    endloop
  endfacet
  facet normal -0.951056 0.309019 0
    outer loop
      vertex 133 125 25.0229
      vertex 132.427 123.237 23
      vertex 132.427 123.237 25.6981
    endloop
  endfacet
  facet normal 0.951056 0.309019 -0
    outer loop
      vertex 127.573 123.237 23
      vertex 127 125 26.2876
      vertex 127.573 123.237 26.7213
    endloop
  endfacet
  facet normal 0.951056 0.309019 0
    outer loop
      vertex 127 125 26.2876
      vertex 127.573 123.237 23
      vertex 127 125 23
    endloop
  endfacet
  facet normal 0 1 0
    outer loop
      vertex 129.073 122.147 23
      vertex 130.927 122.147 26.357
      vertex 130.927 122.147 23
    endloop
  endfacet
  facet normal 0 1 0
    outer loop
      vertex 130.927 122.147 26.357
      vertex 129.073 122.147 23
      vertex 129.073 122.147 26.7478
    endloop
  endfacet
  facet normal -0.587788 0.809015 0
    outer loop
      vertex 130.927 122.147 23
      vertex 132.427 123.237 25.6981
      vertex 132.427 123.237 23
    endloop
  endfacet
  facet normal -0.587788 0.809015 0
    outer loop
      vertex 132.427 123.237 25.6981
      vertex 130.927 122.147 23
      vertex 130.927 122.147 26.357
    endloop
  endfacet
  facet normal 0 0 1
    outer loop
      vertex 131.7 125 23
      vertex 133 125 23
      vertex 132.427 126.763 23
    endloop
  endfacet
  facet normal 0 0 1
    outer loop
      vertex 133 125 23
      vertex 131.7 125 23
      vertex 132.427 123.237 23
    endloop
  endfacet
  facet normal 0 0 1
    outer loop
      vertex 130.85 126.472 23
      vertex 132.427 126.763 23
      vertex 130.927 127.853 23
    endloop
  endfacet
  facet normal 0 0 1
    outer loop
      vertex 132.427 126.763 23
      vertex 130.85 126.472 23
      vertex 131.7 125 23
    endloop
  endfacet
  facet normal 0 0 1
    outer loop
      vertex 130.927 127.853 23
      vertex 129.15 126.472 23
      vertex 130.85 126.472 23
    endloop
  endfacet
  facet normal -0 0 1
    outer loop
      vertex 129.073 127.853 23
      vertex 129.15 126.472 23
      vertex 130.927 127.853 23
    endloop
  endfacet
  facet normal -0 0 1
    outer loop
      vertex 127.573 126.763 23
      vertex 129.15 126.472 23
      vertex 129.073 127.853 23
    endloop
  endfacet
  facet normal 0 0 1
    outer loop
      vertex 129.15 126.472 23
      vertex 127.573 126.763 23
      vertex 128.3 125 23
    endloop
  endfacet
  facet normal -0 0 1
    outer loop
      vertex 130.85 123.528 23
      vertex 132.427 123.237 23
      vertex 131.7 125 23
    endloop
  endfacet
  facet normal 0 0 1
    outer loop
      vertex 132.427 123.237 23
      vertex 130.85 123.528 23
      vertex 130.927 122.147 23
    endloop
  endfacet
  facet normal -0 0 1
    outer loop
      vertex 129.15 123.528 23
      vertex 130.927 122.147 23
      vertex 130.85 123.528 23
    endloop
  endfacet
  facet normal 0 0 1
    outer loop
      vertex 129.15 123.528 23
      vertex 129.073 122.147 23
      vertex 130.927 122.147 23
    endloop
  endfacet
  facet normal 0 0 1
    outer loop
      vertex 127.573 123.237 23
      vertex 129.15 123.528 23
      vertex 128.3 125 23
    endloop
  endfacet
  facet normal 0 0 1
    outer loop
      vertex 127 125 23
      vertex 128.3 125 23
      vertex 127.573 126.763 23
    endloop
  endfacet
  facet normal 0 0 1
    outer loop
      vertex 129.15 123.528 23
      vertex 127.573 123.237 23
      vertex 129.073 122.147 23
    endloop
  endfacet
  facet normal 0 0 1
    outer loop
      vertex 128.3 125 23
      vertex 127 125 23
      vertex 127.573 123.237 23
    endloop
  endfacet
  facet normal 0.587788 0.809015 -0
    outer loop
      vertex 129.073 122.147 23
      vertex 127.573 123.237 26.7213
      vertex 129.073 122.147 26.7478
    endloop
  endfacet
  facet normal 0.587788 0.809015 0
    outer loop
      vertex 127.573 123.237 26.7213
      vertex 129.073 122.147 23
      vertex 127.573 123.237 23
    endloop
  endfacet
  facet normal -0.994522 0.0181513 -0.102941
    outer loop
      vertex 9.78148 -30 35.7418
      vertex 9.99714 34.2167 44.9813
      vertex 9.99002 -30 33.727
    endloop
  endfacet
  facet normal -0.994522 0.0181513 -0.102941
    outer loop
      vertex 9.99714 34.2167 44.9813
      vertex 9.78148 -30 35.7418
      vertex 9.78148 34.3597 47.0901
    endloop
  endfacet
  facet normal -0.994522 0.0181506 -0.102937
    outer loop
      vertex 9.99002 -30 33.727
      vertex 10 34.2148 44.9534
      vertex 10 -30 33.6306
    endloop
  endfacet
  facet normal -0.994522 0.0181518 -0.102944
    outer loop
      vertex 10 34.2148 44.9534
      vertex 9.99002 -30 33.727
      vertex 9.99714 34.2167 44.9813
    endloop
  endfacet
  facet normal -0.866025 0.0868237 -0.492404
    outer loop
      vertex 9.13545 33.8361 49.0167
      vertex 8.09017 32.3222 50.5882
      vertex 8.25764 32.8543 50.3875
    endloop
  endfacet
  facet normal -0.866026 0.086824 -0.492404
    outer loop
      vertex 9.13545 -30 37.7607
      vertex 8.09017 32.3222 50.5882
      vertex 9.13545 33.8361 49.0167
    endloop
  endfacet
  facet normal -0.866025 0.0868242 -0.492404
    outer loop
      vertex 8.09017 32.3222 50.5882
      vertex 9.13545 -30 37.7607
      vertex 8.09017 -30 39.5991
    endloop
  endfacet
  facet normal -2.81279e-06 0.173648 -0.984808
    outer loop
      vertex 1.04528 -30 43.7292
      vertex 0.760191 13.7707 51.4472
      vertex 1.04528 14.4823 51.5726
    endloop
  endfacet
  facet normal 0 0.173648 -0.984808
    outer loop
      vertex 0 -30 43.7292
      vertex 0.760191 13.7707 51.4472
      vertex 1.04528 -30 43.7292
    endloop
  endfacet
  facet normal -1.83397e-06 0.173648 -0.984808
    outer loop
      vertex 0.760191 13.7707 51.4472
      vertex 0 -30 43.7292
      vertex 0 14.1315 51.5108
    endloop
  endfacet
  facet normal -0.866041 -0.0868194 0.492378
    outer loop
      vertex 9.09505 -15.4214 32
      vertex 9.13545 31.9739 40.4281
      vertex 9.12019 31.9447 40.3961
    endloop
  endfacet
  facet normal -0.866023 -0.0868247 0.492407
    outer loop
      vertex 9.13545 31.9739 40.4281
      vertex 9.09505 -15.4214 32
      vertex 9.13545 -15.8244 32
    endloop
  endfacet
  facet normal -0.951057 0.0536602 -0.304322
    outer loop
      vertex 9.13545 -30 37.7607
      vertex 9.78148 34.3597 47.0901
      vertex 9.78148 -30 35.7418
    endloop
  endfacet
  facet normal -0.951057 0.0536602 -0.304322
    outer loop
      vertex 9.78148 34.3597 47.0901
      vertex 9.13545 -30 37.7607
      vertex 9.13545 33.8361 49.0167
    endloop
  endfacet
  facet normal -0.587786 0.140484 -0.796726
    outer loop
      vertex 6.69131 -30 41.1767
      vertex 5.23495 23.9512 51.7641
      vertex 6.69131 28.1389 51.4281
    endloop
  endfacet
  facet normal -0.587785 0.140484 -0.796726
    outer loop
      vertex 5 23.4807 51.8545
      vertex 6.69131 -30 41.1767
      vertex 5 -30 42.4244
    endloop
  endfacet
  facet normal -0.58778 0.140485 -0.79673
    outer loop
      vertex 6.69131 -30 41.1767
      vertex 5 23.4807 51.8545
      vertex 5.23495 23.9512 51.7641
    endloop
  endfacet
  facet normal -0.743145 0.116193 -0.658965
    outer loop
      vertex 8.09017 -30 39.5991
      vertex 6.69131 28.1389 51.4281
      vertex 8.09017 32.3222 50.5882
    endloop
  endfacet
  facet normal -0.743145 0.116193 -0.658965
    outer loop
      vertex 6.69131 28.1389 51.4281
      vertex 8.09017 -30 39.5991
      vertex 6.69131 -30 41.1767
    endloop
  endfacet
  facet normal -0.587785 -0.140484 0.796726
    outer loop
      vertex 5 10.625 32
      vertex 6.69131 27.5007 36.2234
      vertex 5 24.6569 34.4742
    endloop
  endfacet
  facet normal -0.587785 -0.140484 0.796726
    outer loop
      vertex 6.69131 27.5007 36.2234
      vertex 5 10.625 32
      vertex 6.69131 3.54857 32
    endloop
  endfacet
  facet normal -0.40673 -0.158636 0.89967
    outer loop
      vertex 4.95078 10.7512 32
      vertex 5 24.6569 34.4742
      vertex 4.96421 24.5991 34.4478
    endloop
  endfacet
  facet normal -0.406738 -0.158635 0.899666
    outer loop
      vertex 5 24.6569 34.4742
      vertex 4.95078 10.7512 32
      vertex 5 10.625 32
    endloop
  endfacet
  facet normal -0.207911 -0.169853 0.963288
    outer loop
      vertex 1.09022 18.4414 32.0832
      vertex 3.09017 15.5217 32
      vertex 3.09017 21.5687 33.0662
    endloop
  endfacet
  facet normal -0.207915 -0.169856 0.963286
    outer loop
      vertex 3.09017 15.5217 32
      vertex 1.09022 18.4414 32.0832
      vertex 1.09071 17.9692 32
    endloop
  endfacet
  facet normal -0.994522 -0.0181512 0.102941
    outer loop
      vertex 9.79126 -27.8102 32
      vertex 10 34.2148 44.9534
      vertex 9.78446 33.4188 42.7307
    endloop
  endfacet
  facet normal -0.994522 -0.0181509 0.102941
    outer loop
      vertex 10 -30 33.6306
      vertex 9.79126 -27.8102 32
      vertex 9.83122 -30 32
    endloop
  endfacet
  facet normal -0.994522 -0.0181512 0.102941
    outer loop
      vertex 9.79126 -27.8102 32
      vertex 10 -30 33.6306
      vertex 10 34.2148 44.9534
    endloop
  endfacet
  facet normal -0.207911 0.169854 -0.963288
    outer loop
      vertex 1.04528 14.4823 51.5726
      vertex 3.09017 -30 43.2879
      vertex 1.04528 -30 43.7292
    endloop
  endfacet
  facet normal -0.207912 0.169853 -0.963287
    outer loop
      vertex 3.09017 -30 43.2879
      vertex 1.04528 14.4823 51.5726
      vertex 3.09017 19.2912 51.9792
    endloop
  endfacet
  facet normal -0.406737 0.158635 -0.899666
    outer loop
      vertex 3.09017 19.2912 51.9792
      vertex 5 -30 42.4244
      vertex 3.09017 -30 43.2879
    endloop
  endfacet
  facet normal -0.406737 0.158635 -0.899667
    outer loop
      vertex 5 -30 42.4244
      vertex 3.09017 19.2912 51.9792
      vertex 5 23.4807 51.8545
    endloop
  endfacet
  facet normal 0 -0.173648 0.984808
    outer loop
      vertex 1.04528 18.0248 32
      vertex 1.04528 18.3419 32.0559
      vertex 0.925955 18.0248 32
    endloop
  endfacet
  facet normal -0.743161 -0.11619 0.658947
    outer loop
      vertex 6.69131 3.54857 32
      vertex 6.71527 27.5431 36.2579
      vertex 6.69131 27.5007 36.2234
    endloop
  endfacet
  facet normal -0.743144 -0.116193 0.658966
    outer loop
      vertex 6.71527 27.5431 36.2579
      vertex 6.69131 3.54857 32
      vertex 6.7325 3.28513 32
    endloop
  endfacet
  facet normal -0.207747 -0.169946 0.963307
    outer loop
      vertex 1.04528 18.3419 32.0559
      vertex 1.09022 18.4414 32.0832
      vertex 1.07359 18.4154 32.075
    endloop
  endfacet
  facet normal -0.207934 -0.169855 0.963282
    outer loop
      vertex 1.09022 18.4414 32.0832
      vertex 1.04528 18.3419 32.0559
      vertex 1.09071 17.9692 32
    endloop
  endfacet
  facet normal -0.20791 -0.169853 0.963288
    outer loop
      vertex 1.09071 17.9692 32
      vertex 1.04528 18.3419 32.0559
      vertex 1.04528 18.0248 32
    endloop
  endfacet
  facet normal -0.406738 -0.158635 0.899666
    outer loop
      vertex 3.09017 15.5217 32
      vertex 4.96421 24.5991 34.4478
      vertex 3.09017 21.5687 33.0662
    endloop
  endfacet
  facet normal -0.406737 -0.158636 0.899667
    outer loop
      vertex 4.96421 24.5991 34.4478
      vertex 3.09017 15.5217 32
      vertex 4.95078 10.7512 32
    endloop
  endfacet
  facet normal -0.866026 -0.086824 0.492403
    outer loop
      vertex 8.09017 -5.39823 32
      vertex 9.12019 31.9447 40.3961
      vertex 8.09017 29.9757 38.2374
    endloop
  endfacet
  facet normal -0.866026 -0.086824 0.492404
    outer loop
      vertex 9.12019 31.9447 40.3961
      vertex 8.09017 -5.39823 32
      vertex 9.09505 -15.4214 32
    endloop
  endfacet
  facet normal -0.743144 -0.116193 0.658966
    outer loop
      vertex 6.7325 3.28513 32
      vertex 8.09017 29.9757 38.2374
      vertex 6.71527 27.5431 36.2579
    endloop
  endfacet
  facet normal -0.743145 -0.116193 0.658965
    outer loop
      vertex 8.09017 29.9757 38.2374
      vertex 6.7325 3.28513 32
      vertex 8.09017 -5.39823 32
    endloop
  endfacet
  facet normal -0.994522 -0.0181503 0.102935
    outer loop
      vertex 9.78148 -27.2743 32
      vertex 9.78446 33.4188 42.7307
      vertex 9.78148 33.4078 42.6999
    endloop
  endfacet
  facet normal -0.994522 -0.0181517 0.102943
    outer loop
      vertex 9.78446 33.4188 42.7307
      vertex 9.78148 -27.2743 32
      vertex 9.79126 -27.8102 32
    endloop
  endfacet
  facet normal -0.951056 -0.0536603 0.304323
    outer loop
      vertex 9.13545 -15.8244 32
      vertex 9.78148 33.4078 42.6999
      vertex 9.13545 31.9739 40.4281
    endloop
  endfacet
  facet normal -0.951057 -0.0536602 0.304322
    outer loop
      vertex 9.78148 33.4078 42.6999
      vertex 9.13545 -15.8244 32
      vertex 9.78148 -27.2743 32
    endloop
  endfacet
  facet normal 0 0 -1
    outer loop
      vertex 140 -30 25
      vertex 85 -20 25
      vertex 140 120 25
    endloop
  endfacet
  facet normal 0 0 -1
    outer loop
      vertex 40 -30 25
      vertex 85 -20 25
      vertex 140 -30 25
    endloop
  endfacet
  facet normal -0 0 -1
    outer loop
      vertex 85 -20 25
      vertex 40 -30 25
      vertex 40 -20 25
    endloop
  endfacet
  facet normal -0 0 -1
    outer loop
      vertex 140 120 25
      vertex 85 -20 25
      vertex 85 120 25
    endloop
  endfacet
  facet normal 0 -1 0
    outer loop
      vertex 85 120 20
      vertex 140 120 25
      vertex 85 120 25
    endloop
  endfacet
  facet normal 0 -1 -0
    outer loop
      vertex 140 120 25
      vertex 85 120 20
      vertex 140 120 20
    endloop
  endfacet
  facet normal 0 0 -1
    outer loop
      vertex 40 -20 28
      vertex 85 140 28
      vertex 85 -20 28
    endloop
  endfacet
  facet normal -0 0 -1
    outer loop
      vertex 85 140 28
      vertex 40 -20 28
      vertex 40 140 28
    endloop
  endfacet
  facet normal -1 0 0
    outer loop
      vertex 85 120 25
      vertex 85 140 20
      vertex 85 120 20
    endloop
  endfacet
  facet normal -1 0 0
    outer loop
      vertex 85 140 20
      vertex 85 120 25
      vertex 85 140 28
    endloop
  endfacet
  facet normal -1 0 0
    outer loop
      vertex 85 -20 28
      vertex 85 120 25
      vertex 85 -20 25
    endloop
  endfacet
  facet normal -1 0 0
    outer loop
      vertex 85 120 25
      vertex 85 -20 28
      vertex 85 140 28
    endloop
  endfacet
  facet normal 0 1 -0
    outer loop
      vertex 85 -20 25
      vertex 40 -20 28
      vertex 85 -20 28
    endloop
  endfacet
  facet normal 0 1 0
    outer loop
      vertex 40 -20 28
      vertex 85 -20 25
      vertex 40 -20 25
    endloop
  endfacet
  facet normal 0 0 -1
    outer loop
      vertex 30 -30 30
      vertex 40 140 30
      vertex 40 -30 30
    endloop
  endfacet
  facet normal -0 0 -1
    outer loop
      vertex 40 140 30
      vertex 30 -30 30
      vertex 30 140 30
    endloop
  endfacet
  facet normal -1 0 0
    outer loop
      vertex 40 -20 25
      vertex 40 -30 25
      vertex 40 -20 28
    endloop
  endfacet
  facet normal -1 0 0
    outer loop
      vertex 40 -20 28
      vertex 40 140 30
      vertex 40 140 28
    endloop
  endfacet
  facet normal -1 0 0
    outer loop
      vertex 40 -20 28
      vertex 40 -30 30
      vertex 40 140 30
    endloop
  endfacet
  facet normal -1 0 0
    outer loop
      vertex 40 -30 30
      vertex 40 -20 28
      vertex 40 -30 25
    endloop
  endfacet
  facet normal 0 0 -1
    outer loop
      vertex 3.09017 15.5217 32
      vertex 3.98996 22.6487 32
      vertex 4.95078 10.7512 32
    endloop
  endfacet
  facet normal 0 0 -1
    outer loop
      vertex 1.04418 18.3563 32
      vertex 3.09017 15.5217 32
      vertex 1.09071 17.9692 32
    endloop
  endfacet
  facet normal 0 0 -1
    outer loop
      vertex 1.04418 18.3563 32
      vertex 1.09071 17.9692 32
      vertex 1.04528 18.0248 32
    endloop
  endfacet
  facet normal 0 0 -1
    outer loop
      vertex 3.09017 15.5217 32
      vertex 1.04418 18.3563 32
      vertex 3.98996 22.6487 32
    endloop
  endfacet
  facet normal 0 -0 -1
    outer loop
      vertex 1.04418 18.3563 32
      vertex 1.04528 18.0248 32
      vertex 0.925955 18.0248 32
    endloop
  endfacet
  facet normal 0 0 -1
    outer loop
      vertex 9.79126 -27.8102 32
      vertex 30 -30 32
      vertex 9.83122 -30 32
    endloop
  endfacet
  facet normal 0 0 -1
    outer loop
      vertex 9.78148 -27.2743 32
      vertex 30 -30 32
      vertex 9.79126 -27.8102 32
    endloop
  endfacet
  facet normal 0 0 -1
    outer loop
      vertex 9.13545 -15.8244 32
      vertex 30 -30 32
      vertex 9.78148 -27.2743 32
    endloop
  endfacet
  facet normal 0 0 -1
    outer loop
      vertex 9.09505 -15.4214 32
      vertex 30 -30 32
      vertex 9.13545 -15.8244 32
    endloop
  endfacet
  facet normal 0 0 -1
    outer loop
      vertex 8.09017 -5.39823 32
      vertex 30 -30 32
      vertex 9.09505 -15.4214 32
    endloop
  endfacet
  facet normal 0 0 -1
    outer loop
      vertex 6.7325 3.28513 32
      vertex 30 -30 32
      vertex 8.09017 -5.39823 32
    endloop
  endfacet
  facet normal 0 0 -1
    outer loop
      vertex 6.69131 3.54857 32
      vertex 30 -30 32
      vertex 6.7325 3.28513 32
    endloop
  endfacet
  facet normal 0 0 -1
    outer loop
      vertex 3.98996 22.6487 32
      vertex 30 -30 32
      vertex 6.69131 3.54857 32
    endloop
  endfacet
  facet normal 0 0 -1
    outer loop
      vertex 3.98996 22.6487 32
      vertex 6.69131 3.54857 32
      vertex 5 10.625 32
    endloop
  endfacet
  facet normal 0 0 -1
    outer loop
      vertex 3.98996 22.6487 32
      vertex 5 10.625 32
      vertex 4.95078 10.7512 32
    endloop
  endfacet
  facet normal 0 0 -1
    outer loop
      vertex 30 -30 32
      vertex 3.98996 22.6487 32
      vertex 30 140 32
    endloop
  endfacet
  facet normal 0 0 -1
    outer loop
      vertex 0.32135 25.8329 32
      vertex 30 140 32
      vertex 3.98996 22.6487 32
    endloop
  endfacet
  facet normal 0 0 -1
    outer loop
      vertex 0 140 32
      vertex 0.32135 25.8329 32
      vertex 0 25.552 32
    endloop
  endfacet
  facet normal 0 0 -1
    outer loop
      vertex 0.32135 25.8329 32
      vertex 0 140 32
      vertex 30 140 32
    endloop
  endfacet
  facet normal -1 0 0
    outer loop
      vertex 30 -30 30
      vertex 30 140 32
      vertex 30 140 30
    endloop
  endfacet
  facet normal -1 -0 0
    outer loop
      vertex 30 140 32
      vertex 30 -30 30
      vertex 30 -30 32
    endloop
  endfacet
  facet normal -1 0 0
    outer loop
      vertex 0 140 32
      vertex 0 136.33 47.775
      vertex 0 140 48.2921
    endloop
  endfacet
  facet normal -1 0 0
    outer loop
      vertex 0 140 32
      vertex 0 135.926 47.7702
      vertex 0 136.33 47.775
    endloop
  endfacet
  facet normal -1 0 0
    outer loop
      vertex 0 140 32
      vertex 0 135.303 47.8021
      vertex 0 135.926 47.7702
    endloop
  endfacet
  facet normal -1 0 0
    outer loop
      vertex 0 140 32
      vertex 0 106.654 45.1369
      vertex 0 135.303 47.8021
    endloop
  endfacet
  facet normal -1 0 0
    outer loop
      vertex 0 140 32
      vertex 0 62.7096 39.6315
      vertex 0 106.654 45.1369
    endloop
  endfacet
  facet normal -1 0 0
    outer loop
      vertex 0 140 32
      vertex 0 62.0225 39.4965
      vertex 0 62.7096 39.6315
    endloop
  endfacet
  facet normal -1 0 0
    outer loop
      vertex 0 140 32
      vertex 0 61.3135 39.3791
      vertex 0 62.0225 39.4965
    endloop
  endfacet
  facet normal -1 0 -0
    outer loop
      vertex 0 61.3135 39.3791
      vertex 0 140 32
      vertex 0 25.552 32
    endloop
  endfacet
  facet normal -1 0 0
    outer loop
      vertex 0 24.5811 66.019
      vertex 0 15.5222 67.8052
      vertex 0 24.3647 66.8691
    endloop
  endfacet
  facet normal -1 0 0
    outer loop
      vertex 0 26.3255 63.5337
      vertex 0 15.5222 67.8052
      vertex 0 24.5811 66.019
    endloop
  endfacet
  facet normal -1 0 0
    outer loop
      vertex 0 14.1315 51.5108
      vertex 0 15.5222 67.8052
      vertex 0 26.3255 63.5337
    endloop
  endfacet
  facet normal -1 0 0
    outer loop
      vertex 0 14.1315 51.5108
      vertex 0 9.57304 68.7119
      vertex 0 15.5222 67.8052
    endloop
  endfacet
  facet normal -1 0 0
    outer loop
      vertex 0 14.1315 51.5108
      vertex 0 -3.78475 70.6305
      vertex 0 9.57304 68.7119
    endloop
  endfacet
  facet normal -1 0 0
    outer loop
      vertex 0 -30 43.7292
      vertex 0 -3.78475 70.6305
      vertex 0 14.1315 51.5108
    endloop
  endfacet
  facet normal -1 -0 0
    outer loop
      vertex 0 -3.78475 70.6305
      vertex 0 -30 43.7292
      vertex 0 -8.44031 71.1634
    endloop
  endfacet
  facet normal -1 -0 0
    outer loop
      vertex 0 -8.44031 71.1634
      vertex 0 -30 43.7292
      vertex 0 -23.1345 74.032
    endloop
  endfacet
  facet normal -1 -0 0
    outer loop
      vertex 0 -23.1345 74.032
      vertex 0 -30 43.7292
      vertex 0 -30 79.2267
    endloop
  endfacet
  facet normal 0 1 0
    outer loop
      vertex 85 140 20
      vertex 99.5543 140 29.1649
      vertex 111.442 140 26.1866
    endloop
  endfacet
  facet normal 0 1 0
    outer loop
      vertex 85 140 20
      vertex 111.442 140 26.1866
      vertex 114.61 140 25.1086
    endloop
  endfacet
  facet normal 0 1 0
    outer loop
      vertex 85 140 20
      vertex 114.61 140 25.1086
      vertex 117.229 140 24.1158
    endloop
  endfacet
  facet normal 0 1 0
    outer loop
      vertex 85 140 20
      vertex 117.229 140 24.1158
      vertex 125.254 140 20
    endloop
  endfacet
  facet normal 0 1 0
    outer loop
      vertex 99.5543 140 29.1649
      vertex 85 140 20
      vertex 85 140 28
    endloop
  endfacet
  facet normal 0 1 0
    outer loop
      vertex 96.137 140 31.291
      vertex 85 140 28
      vertex 92.4809 140 32.035
    endloop
  endfacet
  facet normal 0 1 0
    outer loop
      vertex 92.4809 140 32.035
      vertex 85 140 28
      vertex 40 140 30
    endloop
  endfacet
  facet normal 0 1 0
    outer loop
      vertex 40 140 30
      vertex 85 140 28
      vertex 40 140 28
    endloop
  endfacet
  facet normal 0 1 0
    outer loop
      vertex 85 140 28
      vertex 96.137 140 31.291
      vertex 99.5543 140 29.1649
    endloop
  endfacet
  facet normal 0 1 0
    outer loop
      vertex 92.4809 140 32.035
      vertex 40 140 30
      vertex 30 140 32
    endloop
  endfacet
  facet normal 0 1 0
    outer loop
      vertex 30 140 32
      vertex 40 140 30
      vertex 30 140 30
    endloop
  endfacet
  facet normal 0 1 0
    outer loop
      vertex 0 140 32
      vertex 0.32135 140 48.3408
      vertex 20.0017 140 45.3513
    endloop
  endfacet
  facet normal 0 1 0
    outer loop
      vertex 30 140 32
      vertex 20.0017 140 45.3513
      vertex 23.2296 140 44.1613
    endloop
  endfacet
  facet normal 0 1 0
    outer loop
      vertex 30 140 32
      vertex 23.2296 140 44.1613
      vertex 27.0117 140 42.8078
    endloop
  endfacet
  facet normal 0 1 0
    outer loop
      vertex 30 140 32
      vertex 34.4326 140 41.7113
      vertex 40.9319 140 40.5824
    endloop
  endfacet
  facet normal 0 1 0
    outer loop
      vertex 30 140 32
      vertex 44.4148 140 40.0445
      vertex 50.7085 140 38.7504
    endloop
  endfacet
  facet normal 0 1 0
    outer loop
      vertex 44.4148 140 40.0445
      vertex 30 140 32
      vertex 40.9319 140 40.5824
    endloop
  endfacet
  facet normal 0 1 0
    outer loop
      vertex 30 140 32
      vertex 50.7085 140 38.7504
      vertex 53.7552 140 38.1792
    endloop
  endfacet
  facet normal 0 1 0
    outer loop
      vertex 30 140 32
      vertex 53.7552 140 38.1792
      vertex 55.0527 140 37.9527
    endloop
  endfacet
  facet normal 0 1 0
    outer loop
      vertex 30 140 32
      vertex 79.0755 140 34.9052
      vertex 92.4809 140 32.035
    endloop
  endfacet
  facet normal 0 1 0
    outer loop
      vertex 79.0755 140 34.9052
      vertex 30 140 32
      vertex 55.0527 140 37.9527
    endloop
  endfacet
  facet normal 0 1 0
    outer loop
      vertex 34.4326 140 41.7113
      vertex 30 140 32
      vertex 27.0117 140 42.8078
    endloop
  endfacet
  facet normal 0 1 0
    outer loop
      vertex 20.0017 140 45.3513
      vertex 30 140 32
      vertex 0 140 32
    endloop
  endfacet
  facet normal 0 1 0
    outer loop
      vertex 0.32135 140 48.3408
      vertex 0 140 32
      vertex 0 140 48.2921
    endloop
  endfacet
endsolid OpenSCAD_Model
