solid OpenSCAD_Model
  facet normal -1 0 0
    outer loop
      vertex -140 120 20
      vertex -140 126.425 22.8084
      vertex -140 129.646 20
    endloop
  endfacet
  facet normal -1 -0 0
    outer loop
      vertex -140 126.425 22.8084
      vertex -140 120 20
      vertex -140 120 24.8287
    endloop
  endfacet
  facet normal -1 0 0
    outer loop
      vertex -140 118.009 25.4547
      vertex -140 105.98 28.2283
      vertex -140 113.997 26.848
    endloop
  endfacet
  facet normal -1 0 0
    outer loop
      vertex -140 119.455 25
      vertex -140 105.98 28.2283
      vertex -140 118.009 25.4547
    endloop
  endfacet
  facet normal -1 0 0
    outer loop
      vertex -140 79.973 30.8557
      vertex -140 105.98 28.2283
      vertex -140 119.455 25
    endloop
  endfacet
  facet normal -1 0 0
    outer loop
      vertex -140 105.98 28.2283
      vertex -140 96.3235 29.8233
      vertex -140 102.573 29.0119
    endloop
  endfacet
  facet normal -1 0 0
    outer loop
      vertex -140 105.98 28.2283
      vertex -140 79.973 30.8557
      vertex -140 96.3235 29.8233
    endloop
  endfacet
  facet normal -1 0 0
    outer loop
      vertex -140 96.3235 29.8233
      vertex -140 79.973 30.8557
      vertex -140 93.5499 30.2224
    endloop
  endfacet
  facet normal -1 0 0
    outer loop
      vertex -140 119.455 25
      vertex -140 73.2693 31.0959
      vertex -140 79.973 30.8557
    endloop
  endfacet
  facet normal -1 0 0
    outer loop
      vertex -140 119.455 25
      vertex -140 66.5522 31.2191
      vertex -140 73.2693 31.0959
    endloop
  endfacet
  facet normal -1 0 0
    outer loop
      vertex -140 119.455 25
      vertex -140 51.9642 30.9462
      vertex -140 66.5522 31.2191
    endloop
  endfacet
  facet normal -1 0 0
    outer loop
      vertex -140 119.455 25
      vertex -140 46.9616 30.7638
      vertex -140 51.9642 30.9462
    endloop
  endfacet
  facet normal -1 0 0
    outer loop
      vertex -140 25.5648 30.1269
      vertex -140 46.9616 30.7638
      vertex -140 119.455 25
    endloop
  endfacet
  facet normal -1 0 0
    outer loop
      vertex -140 46.9616 30.7638
      vertex -140 25.5648 30.1269
      vertex -140 36.2632 30.6379
    endloop
  endfacet
  facet normal -1 0 0
    outer loop
      vertex -140 119.455 25
      vertex -140 20.562 29.8326
      vertex -140 25.5648 30.1269
    endloop
  endfacet
  facet normal -1 0 0
    outer loop
      vertex -140 119.455 25
      vertex -140 -15.7675 26.8459
      vertex -140 20.562 29.8326
    endloop
  endfacet
  facet normal -1 0 0
    outer loop
      vertex -140 -30 25
      vertex -140 -15.7675 26.8459
      vertex -140 119.455 25
    endloop
  endfacet
  facet normal -1 0 0
    outer loop
      vertex -140 -15.7675 26.8459
      vertex -140 -30 25
      vertex -140 -30 25.9134
    endloop
  endfacet
  facet normal 0 0 -1
    outer loop
      vertex -85 120 20
      vertex -124.505 140 20
      vertex -85 140 20
    endloop
  endfacet
  facet normal 0 0 -1
    outer loop
      vertex -85 120 20
      vertex -128.3 125 20
      vertex -124.505 140 20
    endloop
  endfacet
  facet normal 0 0 -1
    outer loop
      vertex -85 120 20
      vertex -129.15 123.528 20
      vertex -128.3 125 20
    endloop
  endfacet
  facet normal 0 0 -1
    outer loop
      vertex -140 120 20
      vertex -129.15 123.528 20
      vertex -85 120 20
    endloop
  endfacet
  facet normal -0 0 -1
    outer loop
      vertex -129.15 123.528 20
      vertex -140 120 20
      vertex -130.85 123.528 20
    endloop
  endfacet
  facet normal 0 0 -1
    outer loop
      vertex -140 120 20
      vertex -131.7 125 20
      vertex -130.85 123.528 20
    endloop
  endfacet
  facet normal 0 0 -1
    outer loop
      vertex -140 129.646 20
      vertex -131.7 125 20
      vertex -140 120 20
    endloop
  endfacet
  facet normal 0 0 -1
    outer loop
      vertex -131.7 125 20
      vertex -140 129.646 20
      vertex -134.319 132.661 20
    endloop
  endfacet
  facet normal 0 0 -1
    outer loop
      vertex -129.15 126.472 20
      vertex -124.505 140 20
      vertex -128.3 125 20
    endloop
  endfacet
  facet normal 0 0 -1
    outer loop
      vertex -129.15 126.472 20
      vertex -130.139 135.309 20
      vertex -124.505 140 20
    endloop
  endfacet
  facet normal 0 0 -1
    outer loop
      vertex -130.85 126.472 20
      vertex -130.139 135.309 20
      vertex -129.15 126.472 20
    endloop
  endfacet
  facet normal 0 0 -1
    outer loop
      vertex -134.319 132.661 20
      vertex -130.85 126.472 20
      vertex -131.7 125 20
    endloop
  endfacet
  facet normal 0 0 -1
    outer loop
      vertex -130.85 126.472 20
      vertex -134.319 132.661 20
      vertex -130.139 135.309 20
    endloop
  endfacet
  facet normal 0 -1 -0
    outer loop
      vertex -134.29 -30 25.8845
      vertex -140 -30 25
      vertex -126.754 -30 25.7894
    endloop
  endfacet
  facet normal 0 -1 -0
    outer loop
      vertex -126.754 -30 25.7894
      vertex -140 -30 25
      vertex -116.586 -30 25.6823
    endloop
  endfacet
  facet normal 0 -1 0
    outer loop
      vertex -140 -30 25
      vertex -135.008 -30 25.8582
      vertex -140 -30 25.9134
    endloop
  endfacet
  facet normal 0 -1 0
    outer loop
      vertex -140 -30 25
      vertex -134.29 -30 25.8845
      vertex -135.008 -30 25.8582
    endloop
  endfacet
  facet normal 0 -1 0
    outer loop
      vertex -40 -30 25
      vertex -54.2945 -30 31.3215
      vertex -91.378 -30 28.6376
    endloop
  endfacet
  facet normal 0 -1 0
    outer loop
      vertex -40 -30 25
      vertex -91.378 -30 28.6376
      vertex -97.9806 -30 27.6353
    endloop
  endfacet
  facet normal 0 -1 0
    outer loop
      vertex -40 -30 25
      vertex -97.9806 -30 27.6353
      vertex -115.635 -30 25.7168
    endloop
  endfacet
  facet normal 0 -1 0
    outer loop
      vertex -54.2945 -30 31.3215
      vertex -40 -30 25
      vertex -40 -30 30
    endloop
  endfacet
  facet normal 0 -1 0
    outer loop
      vertex -116.586 -30 25.6823
      vertex -40 -30 25
      vertex -115.635 -30 25.7168
    endloop
  endfacet
  facet normal 0 -1 0
    outer loop
      vertex -40 -30 25
      vertex -116.586 -30 25.6823
      vertex -140 -30 25
    endloop
  endfacet
  facet normal 0 -1 0
    outer loop
      vertex -40 -30 30
      vertex -49.7158 -30 32.0448
      vertex -54.2945 -30 31.3215
    endloop
  endfacet
  facet normal 0 -1 0
    outer loop
      vertex -49.7158 -30 32.0448
      vertex -40 -30 30
      vertex -30 -30 32
    endloop
  endfacet
  facet normal 0 -1 -0
    outer loop
      vertex -30 -30 32
      vertex -40 -30 30
      vertex -30 -30 30
    endloop
  endfacet
  facet normal 0 -1 0
    outer loop
      vertex -13.9712 -30 55.8506
      vertex -3.09017 -30 43.2879
      vertex -1.04528 -30 43.7292
    endloop
  endfacet
  facet normal 0 -1 0
    outer loop
      vertex -18.9208 -30 49.866
      vertex -5 -30 42.4244
      vertex -3.09017 -30 43.2879
    endloop
  endfacet
  facet normal 0 -1 0
    outer loop
      vertex -18.9208 -30 49.866
      vertex -6.69131 -30 41.1767
      vertex -5 -30 42.4244
    endloop
  endfacet
  facet normal 0 -1 0
    outer loop
      vertex -9.78148 -30 35.7418
      vertex -21.3559 -30 46.2852
      vertex -26.4976 -30 40.0973
    endloop
  endfacet
  facet normal 0 -1 0
    outer loop
      vertex -18.9208 -30 49.866
      vertex -8.09017 -30 39.5991
      vertex -6.69131 -30 41.1767
    endloop
  endfacet
  facet normal 0 -1 0
    outer loop
      vertex -21.3559 -30 46.2852
      vertex -9.13545 -30 37.7607
      vertex -8.09017 -30 39.5991
    endloop
  endfacet
  facet normal 0 -1 0
    outer loop
      vertex -30 -30 32
      vertex -26.4976 -30 40.0973
      vertex -36.2408 -30 36.4468
    endloop
  endfacet
  facet normal -0 -1 0
    outer loop
      vertex -10 -30 33.6306
      vertex -26.4976 -30 40.0973
      vertex -30 -30 32
    endloop
  endfacet
  facet normal 0 -1 0
    outer loop
      vertex -30 -30 32
      vertex -36.2408 -30 36.4468
      vertex -40.2594 -30 34.6399
    endloop
  endfacet
  facet normal 0 -1 0
    outer loop
      vertex -21.3559 -30 46.2852
      vertex -9.78148 -30 35.7418
      vertex -9.13545 -30 37.7607
    endloop
  endfacet
  facet normal 0 -1 0
    outer loop
      vertex -26.4976 -30 40.0973
      vertex -9.99002 -30 33.727
      vertex -9.78148 -30 35.7418
    endloop
  endfacet
  facet normal 0 -1 0
    outer loop
      vertex -30 -30 32
      vertex -40.2594 -30 34.6399
      vertex -49.7158 -30 32.0448
    endloop
  endfacet
  facet normal 0 -1 0
    outer loop
      vertex -26.4976 -30 40.0973
      vertex -10 -30 33.6306
      vertex -9.99002 -30 33.727
    endloop
  endfacet
  facet normal 0 -1 -0
    outer loop
      vertex -10 -30 33.6306
      vertex -30 -30 32
      vertex -9.83122 -30 32
    endloop
  endfacet
  facet normal 0 -1 0
    outer loop
      vertex -8.35416 -30 68.7483
      vertex 0 -30 79.2267
      vertex -1.10468 -30 79.5492
    endloop
  endfacet
  facet normal 0 -1 0
    outer loop
      vertex 0 -30 43.7292
      vertex -8.35416 -30 68.7483
      vertex -11.0432 -30 61.3129
    endloop
  endfacet
  facet normal 0 -1 0
    outer loop
      vertex -1.04528 -30 43.7292
      vertex -11.0432 -30 61.3129
      vertex -13.9712 -30 55.8506
    endloop
  endfacet
  facet normal 0 -1 0
    outer loop
      vertex -8.09017 -30 39.5991
      vertex -18.9208 -30 49.866
      vertex -21.3559 -30 46.2852
    endloop
  endfacet
  facet normal 0 -1 0
    outer loop
      vertex -3.09017 -30 43.2879
      vertex -13.9712 -30 55.8506
      vertex -18.9208 -30 49.866
    endloop
  endfacet
  facet normal 0 -1 0
    outer loop
      vertex -11.0432 -30 61.3129
      vertex -1.04528 -30 43.7292
      vertex 0 -30 43.7292
    endloop
  endfacet
  facet normal 0 -1 0
    outer loop
      vertex -8.35416 -30 68.7483
      vertex 0 -30 43.7292
      vertex 0 -30 79.2267
    endloop
  endfacet
  facet normal -0.0944422 -0.0785862 0.992424
    outer loop
      vertex -40.0037 12.7427 35.6479
      vertex -54.2265 40.6814 36.5068
      vertex -54.2943 -20.3899 31.6643
    endloop
  endfacet
  facet normal -0.0721415 -0.0355484 0.996761
    outer loop
      vertex -54.2943 -20.3899 31.6643
      vertex -91.378 -30 28.6376
      vertex -54.2945 -30 31.3215
    endloop
  endfacet
  facet normal -0.0721415 -0.0355482 0.996761
    outer loop
      vertex -91.378 -30 28.6376
      vertex -54.2943 -20.3899 31.6643
      vertex -97.8248 -21.8906 28.4602
    endloop
  endfacet
  facet normal -0.149376 -0.0972269 0.983989
    outer loop
      vertex -91.378 -30 28.6376
      vertex -97.8248 -21.8906 28.4602
      vertex -97.9806 -30 27.6353
    endloop
  endfacet
  facet normal -0.107508 -0.0985721 0.989306
    outer loop
      vertex -97.8248 -21.8906 28.4602
      vertex -115.635 -30 25.7168
      vertex -97.9806 -30 27.6353
    endloop
  endfacet
  facet normal -0.107507 -0.0985723 0.989306
    outer loop
      vertex -115.635 -30 25.7168
      vertex -97.8248 -21.8906 28.4602
      vertex -116.588 -27.2458 25.8876
    endloop
  endfacet
  facet normal -0.036144 -0.0743255 0.996579
    outer loop
      vertex -116.586 -30 25.6823
      vertex -115.635 -30 25.7168
      vertex -116.588 -27.2458 25.8876
    endloop
  endfacet
  facet normal 0.0105004 -0.0743336 0.997178
    outer loop
      vertex -116.586 -30 25.6823
      vertex -116.588 -27.2458 25.8876
      vertex -126.754 -30 25.7894
    endloop
  endfacet
  facet normal -0.0858602 -0.0742516 0.993536
    outer loop
      vertex -40.0037 12.7427 35.6479
      vertex -39.8477 47.1968 38.2363
      vertex -54.2265 40.6814 36.5068
    endloop
  endfacet
  facet normal -0.0626215 -0.0788195 0.99492
    outer loop
      vertex -54.2943 -20.3899 31.6643
      vertex -54.2265 40.6814 36.5068
      vertex -97.835 29.7116 32.8929
    endloop
  endfacet
  facet normal -0.0702106 -0.085389 0.993871
    outer loop
      vertex -97.8248 -21.8906 28.4602
      vertex -54.2943 -20.3899 31.6643
      vertex -97.835 29.7116 32.8929
    endloop
  endfacet
  facet normal -0.0781841 -0.0853398 0.99328
    outer loop
      vertex -97.8248 -21.8906 28.4602
      vertex -97.835 29.7116 32.8929
      vertex -115.898 25.0413 31.0699
    endloop
  endfacet
  facet normal -0.108077 -0.0966376 0.989434
    outer loop
      vertex -97.8248 -21.8906 28.4602
      vertex -115.898 25.0413 31.0699
      vertex -116.588 -27.2458 25.8876
    endloop
  endfacet
  facet normal -0.0327304 -0.0981477 0.994633
    outer loop
      vertex -116.588 -27.2458 25.8876
      vertex -115.898 25.0413 31.0699
      vertex -134.221 21.715 30.1387
    endloop
  endfacet
  facet normal 0.0125822 -0.0819952 0.996553
    outer loop
      vertex -134.221 21.715 30.1387
      vertex -126.754 -30 25.7894
      vertex -116.588 -27.2458 25.8876
    endloop
  endfacet
  facet normal 0.0125822 -0.0819952 0.996553
    outer loop
      vertex -126.754 -30 25.7894
      vertex -134.221 21.715 30.1387
      vertex -134.29 -30 25.8845
    endloop
  endfacet
  facet normal -0.0364088 -0.0818831 0.995977
    outer loop
      vertex -140 -15.7675 26.8459
      vertex -134.29 -30 25.8845
      vertex -134.221 21.715 30.1387
    endloop
  endfacet
  facet normal -0.0364089 -0.0818831 0.995977
    outer loop
      vertex -140 -15.7675 26.8459
      vertex -134.221 21.715 30.1387
      vertex -140 20.562 29.8326
    endloop
  endfacet
  facet normal -0.036409 -0.0818831 0.995977
    outer loop
      vertex -134.29 -30 25.8845
      vertex -140 -15.7675 26.8459
      vertex -135.008 -30 25.8582
    endloop
  endfacet
  facet normal 0.0110231 -0.0653746 0.9978
    outer loop
      vertex -135.008 -30 25.8582
      vertex -140 -15.7675 26.8459
      vertex -140 -30 25.9134
    endloop
  endfacet
  facet normal -0.384344 0.60661 0.695919
    outer loop
      vertex -130.139 135.309 20
      vertex -134.301 128.774 23.3976
      vertex -116.615 137.392 25.6533
    endloop
  endfacet
  facet normal -0.384343 0.60661 0.69592
    outer loop
      vertex -134.301 128.774 23.3976
      vertex -130.139 135.309 20
      vertex -134.319 132.661 20
    endloop
  endfacet
  facet normal -0.400205 0.480632 0.780275
    outer loop
      vertex -124.505 140 20
      vertex -116.615 137.392 25.6533
      vertex -116.586 140 24.0618
    endloop
  endfacet
  facet normal -0.400206 0.480632 0.780275
    outer loop
      vertex -116.615 137.392 25.6533
      vertex -124.505 140 20
      vertex -130.139 135.309 20
    endloop
  endfacet
  facet normal -0.329328 0.620589 0.711627
    outer loop
      vertex -140 129.646 20
      vertex -134.301 128.774 23.3976
      vertex -134.319 132.661 20
    endloop
  endfacet
  facet normal -0.329328 0.620589 0.711626
    outer loop
      vertex -134.301 128.774 23.3976
      vertex -140 129.646 20
      vertex -140 126.425 22.8084
    endloop
  endfacet
  facet normal -0.30725 0.498205 0.810795
    outer loop
      vertex -113.877 140 25.0881
      vertex -116.586 140 24.0618
      vertex -116.615 137.392 25.6533
    endloop
  endfacet
  facet normal -0.283094 0.477406 0.83183
    outer loop
      vertex -110.603 140 26.2025
      vertex -113.877 140 25.0881
      vertex -116.615 137.392 25.6533
    endloop
  endfacet
  facet normal -0.253689 0.207078 0.94486
    outer loop
      vertex -98.9024 135.24 30.8807
      vertex -116.615 137.392 25.6533
      vertex -116.776 124.502 28.4351
    endloop
  endfacet
  facet normal -0.228957 0.335333 0.913855
    outer loop
      vertex -110.603 140 26.2025
      vertex -98.9024 135.24 30.8807
      vertex -98.9118 140 29.1316
    endloop
  endfacet
  facet normal -0.228957 0.335333 0.913855
    outer loop
      vertex -98.9024 135.24 30.8807
      vertex -110.603 140 26.2025
      vertex -116.615 137.392 25.6533
    endloop
  endfacet
  facet normal -0.197136 0.294079 0.93523
    outer loop
      vertex -133 125 24.8586
      vertex -134.301 128.774 23.3976
      vertex -134.288 116.349 27.3073
    endloop
  endfacet
  facet normal -0.197134 0.29408 0.93523
    outer loop
      vertex -132.427 126.763 24.4249
      vertex -134.301 128.774 23.3976
      vertex -133 125 24.8586
    endloop
  endfacet
  facet normal -0.197137 0.294077 0.93523
    outer loop
      vertex -130.927 127.853 24.3984
      vertex -134.301 128.774 23.3976
      vertex -132.427 126.763 24.4249
    endloop
  endfacet
  facet normal -0.197136 0.29408 0.93523
    outer loop
      vertex -134.301 128.774 23.3976
      vertex -130.927 127.853 24.3984
      vertex -130.524 127.853 24.4834
    endloop
  endfacet
  facet normal -0.197136 0.294079 0.93523
    outer loop
      vertex -116.776 124.502 28.4351
      vertex -127.573 126.763 25.4481
      vertex -127 125 26.1233
    endloop
  endfacet
  facet normal -0.197135 0.294082 0.935229
    outer loop
      vertex -127.573 126.763 25.4481
      vertex -116.776 124.502 28.4351
      vertex -128.34 127.321 25.111
    endloop
  endfacet
  facet normal -0.197136 0.29408 0.93523
    outer loop
      vertex -127.573 123.237 26.557
      vertex -116.776 124.502 28.4351
      vertex -127 125 26.1233
    endloop
  endfacet
  facet normal -0.197136 0.294076 0.935231
    outer loop
      vertex -129.073 122.147 26.5835
      vertex -116.776 124.502 28.4351
      vertex -127.573 123.237 26.557
    endloop
  endfacet
  facet normal -0.197136 0.294079 0.93523
    outer loop
      vertex -129.073 122.147 26.5835
      vertex -134.288 116.349 27.3073
      vertex -116.776 124.502 28.4351
    endloop
  endfacet
  facet normal -0.197136 0.294079 0.93523
    outer loop
      vertex -130.927 122.147 26.1927
      vertex -134.288 116.349 27.3073
      vertex -129.073 122.147 26.5835
    endloop
  endfacet
  facet normal -0.197135 0.294078 0.93523
    outer loop
      vertex -132.427 123.237 25.5339
      vertex -134.288 116.349 27.3073
      vertex -130.927 122.147 26.1927
    endloop
  endfacet
  facet normal -0.197137 0.294079 0.93523
    outer loop
      vertex -134.288 116.349 27.3073
      vertex -132.427 123.237 25.5339
      vertex -133 125 24.8586
    endloop
  endfacet
  facet normal -0.222957 0.208303 0.952313
    outer loop
      vertex -116.615 137.392 25.6533
      vertex -128.34 127.321 25.111
      vertex -116.776 124.502 28.4351
    endloop
  endfacet
  facet normal -0.222955 0.2083 0.952314
    outer loop
      vertex -116.615 137.392 25.6533
      vertex -129.073 127.853 24.8231
      vertex -128.34 127.321 25.111
    endloop
  endfacet
  facet normal -0.222957 0.208303 0.952313
    outer loop
      vertex -134.301 128.774 23.3976
      vertex -129.073 127.853 24.8231
      vertex -116.615 137.392 25.6533
    endloop
  endfacet
  facet normal -0.222958 0.2083 0.952313
    outer loop
      vertex -129.073 127.853 24.8231
      vertex -134.301 128.774 23.3976
      vertex -130.524 127.853 24.4834
    endloop
  endfacet
  facet normal -0.50444 0.296918 0.81079
    outer loop
      vertex -98.9024 135.24 30.8807
      vertex -95.4322 140 31.2965
      vertex -98.9118 140 29.1316
    endloop
  endfacet
  facet normal -0.257425 -0.00514636 0.966285
    outer loop
      vertex -40.1596 -21.7114 35.4228
      vertex -40.0037 12.7427 35.6479
      vertex -54.2943 -20.3899 31.6643
    endloop
  endfacet
  facet normal -0.206502 0.321008 0.924289
    outer loop
      vertex -134.288 116.349 27.3073
      vertex -140 118.009 25.4547
      vertex -140 113.997 26.848
    endloop
  endfacet
  facet normal -0.21695 0.292801 0.931236
    outer loop
      vertex -140 126.425 22.8084
      vertex -139.265 120 25
      vertex -134.301 128.774 23.3976
    endloop
  endfacet
  facet normal -0.216948 0.292801 0.931236
    outer loop
      vertex -139.265 120 25
      vertex -140 126.425 22.8084
      vertex -140 120 24.8287
    endloop
  endfacet
  facet normal -0.216949 0.292801 0.931236
    outer loop
      vertex -139.265 120 25
      vertex -134.288 116.349 27.3073
      vertex -134.301 128.774 23.3976
    endloop
  endfacet
  facet normal -0.21695 0.292801 0.931236
    outer loop
      vertex -140 118.009 25.4547
      vertex -139.265 120 25
      vertex -140 119.455 25
    endloop
  endfacet
  facet normal -0.216949 0.292801 0.931236
    outer loop
      vertex -139.265 120 25
      vertex -140 118.009 25.4547
      vertex -134.288 116.349 27.3073
    endloop
  endfacet
  facet normal -0.131727 0.222194 0.966063
    outer loop
      vertex -134.281 104.502 29.348
      vertex -140 105.98 28.2283
      vertex -140 102.573 29.0119
    endloop
  endfacet
  facet normal -0.147475 0.16782 0.974724
    outer loop
      vertex -140 113.997 26.848
      vertex -134.281 104.502 29.348
      vertex -134.288 116.349 27.3073
    endloop
  endfacet
  facet normal -0.147475 0.16782 0.974724
    outer loop
      vertex -134.281 104.502 29.348
      vertex -140 113.997 26.848
      vertex -140 105.98 28.2283
    endloop
  endfacet
  facet normal -0.10119 0.128091 0.986587
    outer loop
      vertex -140 102.573 29.0119
      vertex -134.274 95.2588 30.5488
      vertex -134.281 104.502 29.348
    endloop
  endfacet
  facet normal -0.10119 0.128091 0.986587
    outer loop
      vertex -134.274 95.2588 30.5488
      vertex -140 102.573 29.0119
      vertex -140 96.3235 29.8233
    endloop
  endfacet
  facet normal -0.0984498 0.141741 0.984996
    outer loop
      vertex -134.274 95.2588 30.5488
      vertex -140 96.3235 29.8233
      vertex -140 93.5499 30.2224
    endloop
  endfacet
  facet normal -0.0797087 0.0356827 0.996179
    outer loop
      vertex -134.248 75.1413 31.4891
      vertex -140 79.973 30.8557
      vertex -140 73.2693 31.0959
    endloop
  endfacet
  facet normal -0.0706678 0.0464769 0.996417
    outer loop
      vertex -140 79.973 30.8557
      vertex -134.274 95.2588 30.5488
      vertex -140 93.5499 30.2224
    endloop
  endfacet
  facet normal -0.0706678 0.0464769 0.996417
    outer loop
      vertex -134.274 95.2588 30.5488
      vertex -140 79.973 30.8557
      vertex -134.248 75.1413 31.4891
    endloop
  endfacet
  facet normal -0.0189982 -0.0186973 0.999645
    outer loop
      vertex -140 66.5522 31.2191
      vertex -134.221 53.5032 31.0848
      vertex -134.248 75.1413 31.4891
    endloop
  endfacet
  facet normal -0.0189983 -0.0186974 0.999645
    outer loop
      vertex -134.221 53.5032 31.0848
      vertex -140 66.5522 31.2191
      vertex -140 51.9642 30.9462
    endloop
  endfacet
  facet normal -0.074111 0.0182923 0.997082
    outer loop
      vertex -134.248 75.1413 31.4891
      vertex -140 73.2693 31.0959
      vertex -140 66.5522 31.2191
    endloop
  endfacet
  facet normal -0.0142632 -0.0364405 0.999234
    outer loop
      vertex -134.221 53.5032 31.0848
      vertex -140 51.9642 30.9462
      vertex -140 46.9616 30.7638
    endloop
  endfacet
  facet normal -0.0421932 -0.0117581 0.99904
    outer loop
      vertex -140 46.9616 30.7638
      vertex -134.221 37.6091 30.8978
      vertex -134.221 53.5032 31.0848
    endloop
  endfacet
  facet normal -0.0421931 -0.011758 0.99904
    outer loop
      vertex -134.221 37.6091 30.8978
      vertex -140 46.9616 30.7638
      vertex -140 36.2632 30.6379
    endloop
  endfacet
  facet normal -0.0337934 -0.0476778 0.998291
    outer loop
      vertex -140 25.5648 30.1269
      vertex -134.221 37.6091 30.8978
      vertex -140 36.2632 30.6379
    endloop
  endfacet
  facet normal -0.0337937 -0.0476776 0.998291
    outer loop
      vertex -134.221 37.6091 30.8978
      vertex -140 25.5648 30.1269
      vertex -134.221 21.715 30.1387
    endloop
  endfacet
  facet normal -0.041117 -0.058673 0.99743
    outer loop
      vertex -134.221 21.715 30.1387
      vertex -140 25.5648 30.1269
      vertex -140 20.562 29.8326
    endloop
  endfacet
  facet normal -0.13719 0.168076 0.976181
    outer loop
      vertex -134.281 104.502 29.348
      vertex -116.591 111.909 30.5588
      vertex -134.288 116.349 27.3073
    endloop
  endfacet
  facet normal -0.138664 0.162715 0.976881
    outer loop
      vertex -116.591 111.909 30.5588
      vertex -116.776 124.502 28.4351
      vertex -134.288 116.349 27.3073
    endloop
  endfacet
  facet normal -0.105035 0.0889383 0.990484
    outer loop
      vertex -116.583 101.657 31.4802
      vertex -116.591 111.909 30.5588
      vertex -134.281 104.502 29.348
    endloop
  endfacet
  facet normal -0.0983 0.12813 0.986874
    outer loop
      vertex -134.274 95.2588 30.5488
      vertex -116.583 101.657 31.4802
      vertex -134.281 104.502 29.348
    endloop
  endfacet
  facet normal -0.0692767 0.0464833 0.996514
    outer loop
      vertex -134.248 75.1413 31.4891
      vertex -116.583 101.657 31.4802
      vertex -134.274 95.2588 30.5488
    endloop
  endfacet
  facet normal -0.0980628 0.0656587 0.993012
    outer loop
      vertex -116.557 80.5394 32.8792
      vertex -116.583 101.657 31.4802
      vertex -134.248 75.1413 31.4891
    endloop
  endfacet
  facet normal -0.077115 -0.00402349 0.997014
    outer loop
      vertex -116.53 58.4058 32.7919
      vertex -116.557 80.5394 32.8792
      vertex -134.248 75.1413 31.4891
    endloop
  endfacet
  facet normal -0.0908912 -0.0187117 0.995685
    outer loop
      vertex -134.221 53.5032 31.0848
      vertex -116.53 58.4058 32.7919
      vertex -134.248 75.1413 31.4891
    endloop
  endfacet
  facet normal -0.0581068 -0.0117487 0.998241
    outer loop
      vertex -116.214 41.5985 31.9929
      vertex -134.221 53.5032 31.0848
      vertex -134.221 37.6091 30.8978
    endloop
  endfacet
  facet normal -0.0825049 -0.0488713 0.995392
    outer loop
      vertex -116.214 41.5985 31.9929
      vertex -116.53 58.4058 32.7919
      vertex -134.221 53.5032 31.0848
    endloop
  endfacet
  facet normal -0.0404616 -0.0563862 0.997589
    outer loop
      vertex -115.898 25.0413 31.0699
      vertex -116.214 41.5985 31.9929
      vertex -134.221 21.715 30.1387
    endloop
  endfacet
  facet normal -0.0501155 -0.0476449 0.997606
    outer loop
      vertex -134.221 21.715 30.1387
      vertex -116.214 41.5985 31.9929
      vertex -134.221 37.6091 30.8978
    endloop
  endfacet
  facet normal -0.150577 0.162255 0.975192
    outer loop
      vertex -116.591 111.909 30.5588
      vertex -98.8926 118.752 32.1531
      vertex -116.776 124.502 28.4351
    endloop
  endfacet
  facet normal -0.179613 0.0755863 0.980829
    outer loop
      vertex -98.8926 118.752 32.1531
      vertex -98.9024 135.24 30.8807
      vertex -116.776 124.502 28.4351
    endloop
  endfacet
  facet normal -0.118199 0.0750328 0.990151
    outer loop
      vertex -98.8829 108.522 32.9294
      vertex -98.8926 118.752 32.1531
      vertex -116.591 111.909 30.5588
    endloop
  endfacet
  facet normal -0.115452 0.0888268 0.989333
    outer loop
      vertex -116.583 101.657 31.4802
      vertex -98.8829 108.522 32.9294
      vertex -116.591 111.909 30.5588
    endloop
  endfacet
  facet normal -0.0718299 0.0658394 0.995241
    outer loop
      vertex -116.557 80.5394 32.8792
      vertex -98.8655 88.1898 33.6499
      vertex -116.583 101.657 31.4802
    endloop
  endfacet
  facet normal -0.0950939 0.0351702 0.994847
    outer loop
      vertex -98.8655 88.1898 33.6499
      vertex -98.8829 108.522 32.9294
      vertex -116.583 101.657 31.4802
    endloop
  endfacet
  facet normal -0.099234 0.0302031 0.994606
    outer loop
      vertex -98.8482 64.5217 34.3704
      vertex -98.8655 88.1898 33.6499
      vertex -116.53 58.4058 32.7919
    endloop
  endfacet
  facet normal -0.0418019 -0.00398938 0.999118
    outer loop
      vertex -116.53 58.4058 32.7919
      vertex -98.8655 88.1898 33.6499
      vertex -116.557 80.5394 32.8792
    endloop
  endfacet
  facet normal -0.0591866 -0.0485123 0.997067
    outer loop
      vertex -116.214 41.5985 31.9929
      vertex -97.7529 46.6245 33.3333
      vertex -116.53 58.4058 32.7919
    endloop
  endfacet
  facet normal -0.0675072 -0.061832 0.995801
    outer loop
      vertex -97.7529 46.6245 33.3333
      vertex -98.8482 64.5217 34.3704
      vertex -116.53 58.4058 32.7919
    endloop
  endfacet
  facet normal -0.0938664 -0.0254599 0.995259
    outer loop
      vertex -97.835 29.7116 32.8929
      vertex -97.7529 46.6245 33.3333
      vertex -115.898 25.0413 31.0699
    endloop
  endfacet
  facet normal -0.056948 -0.0566553 0.996768
    outer loop
      vertex -115.898 25.0413 31.0699
      vertex -97.7529 46.6245 33.3333
      vertex -116.214 41.5985 31.9929
    endloop
  endfacet
  facet normal -0.208775 0.075125 0.975074
    outer loop
      vertex -91.7094 140 32.054
      vertex -98.8926 118.752 32.1531
      vertex -78.3504 140 34.9143
    endloop
  endfacet
  facet normal -0.208775 0.075125 0.975074
    outer loop
      vertex -98.8926 118.752 32.1531
      vertex -91.7094 140 32.054
      vertex -98.9024 135.24 30.8807
    endloop
  endfacet
  facet normal -0.199042 0.0596547 0.978174
    outer loop
      vertex -91.7094 140 32.054
      vertex -95.4322 140 31.2965
      vertex -98.9024 135.24 30.8807
    endloop
  endfacet
  facet normal -0.125847 -0.00725111 0.992023
    outer loop
      vertex -78.3504 140 34.9143
      vertex -54.3745 135.784 37.9251
      vertex -54.4108 140 37.9513
    endloop
  endfacet
  facet normal -0.125847 -0.00725156 0.992023
    outer loop
      vertex -54.3745 135.784 37.9251
      vertex -78.3504 140 34.9143
      vertex -98.8926 118.752 32.1531
    endloop
  endfacet
  facet normal -0.156238 0.074598 0.984898
    outer loop
      vertex -98.8829 108.522 32.9294
      vertex -54.3745 135.784 37.9251
      vertex -98.8926 118.752 32.1531
    endloop
  endfacet
  facet normal -0.121883 0.0350438 0.991926
    outer loop
      vertex -98.8655 88.1898 33.6499
      vertex -54.4268 111.725 38.2788
      vertex -98.8829 108.522 32.9294
    endloop
  endfacet
  facet normal -0.120509 0.0148561 0.992601
    outer loop
      vertex -54.4268 111.725 38.2788
      vertex -54.3745 135.784 37.9251
      vertex -98.8829 108.522 32.9294
    endloop
  endfacet
  facet normal -0.0768964 -0.0101865 0.996987
    outer loop
      vertex -54.2437 86.5317 38.0355
      vertex -54.4268 111.725 38.2788
      vertex -98.8482 64.5217 34.3704
    endloop
  endfacet
  facet normal -0.119325 0.0301212 0.992398
    outer loop
      vertex -98.8482 64.5217 34.3704
      vertex -54.4268 111.725 38.2788
      vertex -98.8655 88.1898 33.6499
    endloop
  endfacet
  facet normal -0.0818158 -0.0626425 0.994677
    outer loop
      vertex -97.7529 46.6245 33.3333
      vertex -54.5883 59.9216 37.7212
      vertex -98.8482 64.5217 34.3704
    endloop
  endfacet
  facet normal -0.0766022 -0.0107854 0.997003
    outer loop
      vertex -54.5883 59.9216 37.7212
      vertex -54.2437 86.5317 38.0355
      vertex -98.8482 64.5217 34.3704
    endloop
  endfacet
  facet normal -0.0663917 -0.0640992 0.995733
    outer loop
      vertex -54.2265 40.6814 36.5068
      vertex -54.5883 59.9216 37.7212
      vertex -97.835 29.7116 32.8929
    endloop
  endfacet
  facet normal -0.0933332 -0.0254637 0.995309
    outer loop
      vertex -54.5883 59.9216 37.7212
      vertex -97.7529 46.6245 33.3333
      vertex -97.835 29.7116 32.8929
    endloop
  endfacet
  facet normal -0.184275 -0.00369715 0.982868
    outer loop
      vertex -49.9769 140 38.7654
      vertex -53.0865 140 38.1824
      vertex -54.3745 135.784 37.9251
    endloop
  endfacet
  facet normal -0.171927 -0.00760471 0.98508
    outer loop
      vertex -54.3745 135.784 37.9251
      vertex -53.0865 140 38.1824
      vertex -54.4108 140 37.9513
    endloop
  endfacet
  facet normal -0.234735 -0.00323509 0.972054
    outer loop
      vertex -33.7612 140 42.1572
      vertex -40.2884 140 40.581
      vertex -40.4861 120.054 40.4668
    endloop
  endfacet
  facet normal -0.129937 -0.0401496 0.990709
    outer loop
      vertex -33.7612 140 42.1572
      vertex -26.5454 128.383 42.6328
      vertex -26.3677 140 43.1269
    endloop
  endfacet
  facet normal -0.129937 -0.0401493 0.990709
    outer loop
      vertex -26.5454 128.383 42.6328
      vertex -33.7612 140 42.1572
      vertex -40.4861 120.054 40.4668
    endloop
  endfacet
  facet normal -0.152636 -0.00414164 0.988274
    outer loop
      vertex -43.7398 140 40.0479
      vertex -40.4861 120.054 40.4668
      vertex -40.2884 140 40.581
    endloop
  endfacet
  facet normal -0.152636 -0.00414166 0.988274
    outer loop
      vertex -40.4861 120.054 40.4668
      vertex -43.7398 140 40.0479
      vertex -54.4268 111.725 38.2788
    endloop
  endfacet
  facet normal -0.201382 0.0148379 0.9794
    outer loop
      vertex -54.3745 135.784 37.9251
      vertex -43.7398 140 40.0479
      vertex -49.9769 140 38.7654
    endloop
  endfacet
  facet normal -0.201382 0.0148381 0.9794
    outer loop
      vertex -43.7398 140 40.0479
      vertex -54.3745 135.784 37.9251
      vertex -54.4268 111.725 38.2788
    endloop
  endfacet
  facet normal -0.146155 -0.0126054 0.989181
    outer loop
      vertex -27.0743 93.7942 42.1138
      vertex -26.5454 128.383 42.6328
      vertex -40.4861 120.054 40.4668
    endloop
  endfacet
  facet normal -0.186045 -0.0334309 0.981972
    outer loop
      vertex -27.0743 93.7942 42.1138
      vertex -40.4861 120.054 40.4668
      vertex -40.659 86.478 39.291
    endloop
  endfacet
  facet normal -0.0920601 -0.0102843 0.9957
    outer loop
      vertex -54.2437 86.5317 38.0355
      vertex -40.659 86.478 39.291
      vertex -54.4268 111.725 38.2788
    endloop
  endfacet
  facet normal -0.135117 -0.033983 0.990247
    outer loop
      vertex -40.659 86.478 39.291
      vertex -40.4861 120.054 40.4668
      vertex -54.4268 111.725 38.2788
    endloop
  endfacet
  facet normal -0.206598 0.0061067 0.978407
    outer loop
      vertex -40.43 66.8374 39.4619
      vertex -27.0743 93.7942 42.1138
      vertex -40.659 86.478 39.291
    endloop
  endfacet
  facet normal -0.205698 0.0056418 0.978599
    outer loop
      vertex -26.2716 73.7531 42.3981
      vertex -27.0743 93.7942 42.1138
      vertex -40.43 66.8374 39.4619
    endloop
  endfacet
  facet normal -0.125477 0.00717167 0.992071
    outer loop
      vertex -40.43 66.8374 39.4619
      vertex -40.659 86.478 39.291
      vertex -54.5883 59.9216 37.7212
    endloop
  endfacet
  facet normal -0.0920609 -0.0105698 0.995697
    outer loop
      vertex -40.659 86.478 39.291
      vertex -54.2437 86.5317 38.0355
      vertex -54.5883 59.9216 37.7212
    endloop
  endfacet
  facet normal -0.24242 0.086022 0.96635
    outer loop
      vertex -25.469 53.7121 44.3835
      vertex -26.2716 73.7531 42.3981
      vertex -40.43 66.8374 39.4619
    endloop
  endfacet
  facet normal -0.365665 -0.0687643 0.928203
    outer loop
      vertex -39.8477 47.1968 38.2363
      vertex -25.469 53.7121 44.3835
      vertex -40.43 66.8374 39.4619
    endloop
  endfacet
  facet normal -0.0903456 -0.0644292 0.993824
    outer loop
      vertex -54.2265 40.6814 36.5068
      vertex -39.8477 47.1968 38.2363
      vertex -54.5883 59.9216 37.7212
    endloop
  endfacet
  facet normal -0.0905799 -0.0647022 0.993785
    outer loop
      vertex -39.8477 47.1968 38.2363
      vertex -40.43 66.8374 39.4619
      vertex -54.5883 59.9216 37.7212
    endloop
  endfacet
  facet normal -0.514725 -0.061912 0.855117
    outer loop
      vertex -25.7469 15.3396 44.4175
      vertex -39.8477 47.1968 38.2363
      vertex -40.0037 12.7427 35.6479
    endloop
  endfacet
  facet normal -0.394505 0.00367374 0.918886
    outer loop
      vertex -25.7469 15.3396 44.4175
      vertex -25.469 53.7121 44.3835
      vertex -39.8477 47.1968 38.2363
    endloop
  endfacet
  facet normal -0.353126 -0.0887372 0.931358
    outer loop
      vertex -26.4327 -23.1873 40.4868
      vertex -25.7469 15.3396 44.4175
      vertex -40.1596 -21.7114 35.4228
    endloop
  endfacet
  facet normal -0.523511 -0.00319588 0.852013
    outer loop
      vertex -25.7469 15.3396 44.4175
      vertex -40.0037 12.7427 35.6479
      vertex -40.1596 -21.7114 35.4228
    endloop
  endfacet
  facet normal -0.155919 -0.0352031 0.987142
    outer loop
      vertex -49.7158 -30 32.0448
      vertex -54.2943 -20.3899 31.6643
      vertex -54.2945 -30 31.3215
    endloop
  endfacet
  facet normal -0.26363 -0.0875683 0.960641
    outer loop
      vertex -40.1596 -21.7114 35.4228
      vertex -49.7158 -30 32.0448
      vertex -40.2594 -30 34.6399
    endloop
  endfacet
  facet normal -0.26363 -0.0875684 0.960641
    outer loop
      vertex -49.7158 -30 32.0448
      vertex -40.1596 -21.7114 35.4228
      vertex -54.2943 -20.3899 31.6643
    endloop
  endfacet
  facet normal -0.408741 -0.0809484 0.909053
    outer loop
      vertex -36.2408 -30 36.4468
      vertex -40.1596 -21.7114 35.4228
      vertex -40.2594 -30 34.6399
    endloop
  endfacet
  facet normal -0.350412 -0.0501341 0.935253
    outer loop
      vertex -26.4327 -23.1873 40.4868
      vertex -36.2408 -30 36.4468
      vertex -26.4976 -30 40.0973
    endloop
  endfacet
  facet normal -0.350412 -0.0501344 0.935253
    outer loop
      vertex -36.2408 -30 36.4468
      vertex -26.4327 -23.1873 40.4868
      vertex -40.1596 -21.7114 35.4228
    endloop
  endfacet
  facet normal -0.263978 -0.0369561 0.96382
    outer loop
      vertex -22.5619 140 44.1692
      vertex -26.3677 140 43.1269
      vertex -26.5454 128.383 42.6328
    endloop
  endfacet
  facet normal -0.345945 -0.00546791 0.938239
    outer loop
      vertex -19.3202 140 45.3645
      vertex -22.5619 140 44.1692
      vertex -26.5454 128.383 42.6328
    endloop
  endfacet
  facet normal -0.148389 -0.137978 0.979256
    outer loop
      vertex -19.3202 140 45.3645
      vertex 0 136.33 47.775
      vertex 0 140 48.2921
    endloop
  endfacet
  facet normal -0.148389 -0.137977 0.979256
    outer loop
      vertex 0 136.33 47.775
      vertex -19.3202 140 45.3645
      vertex -26.5454 128.383 42.6328
    endloop
  endfacet
  facet normal -0.18674 -0.0118765 0.982338
    outer loop
      vertex -26.5454 128.383 42.6328
      vertex 0 135.926 47.7702
      vertex 0 136.33 47.775
    endloop
  endfacet
  facet normal -0.186738 -0.0118821 0.982338
    outer loop
      vertex 0 135.926 47.7702
      vertex -26.5454 128.383 42.6328
      vertex -27.0743 93.7942 42.1138
    endloop
  endfacet
  facet normal -0.276974 0.0491542 0.959619
    outer loop
      vertex -27.0743 93.7942 42.1138
      vertex 0 135.303 47.8021
      vertex 0 135.926 47.7702
    endloop
  endfacet
  facet normal -0.276974 0.0491543 0.959619
    outer loop
      vertex 0 135.303 47.8021
      vertex -27.0743 93.7942 42.1138
      vertex -12.5458 91.4407 46.4277
    endloop
  endfacet
  facet normal 0.209988 -0.0905658 0.9735
    outer loop
      vertex 0 106.654 45.1369
      vertex 0 135.303 47.8021
      vertex -12.5458 91.4407 46.4277
    endloop
  endfacet
  facet normal -0.284314 0.00221131 0.958729
    outer loop
      vertex -26.2716 73.7531 42.3981
      vertex -12.5458 91.4407 46.4277
      vertex -27.0743 93.7942 42.1138
    endloop
  endfacet
  facet normal -0.302454 0.0175924 0.953002
    outer loop
      vertex -18.9086 58.8037 45.0109
      vertex -12.5458 91.4407 46.4277
      vertex -26.2716 73.7531 42.3981
    endloop
  endfacet
  facet normal 0.598352 -0.150815 0.786911
    outer loop
      vertex -12.3482 63.8953 40.9983
      vertex -12.5458 91.4407 46.4277
      vertex -18.9086 58.8037 45.0109
    endloop
  endfacet
  facet normal -0.164346 0.0907212 0.982222
    outer loop
      vertex -25.469 53.7121 44.3835
      vertex -18.9086 58.8037 45.0109
      vertex -26.2716 73.7531 42.3981
    endloop
  endfacet
  facet normal 0.0897439 -0.191984 0.977286
    outer loop
      vertex 0 62.7096 39.6315
      vertex -12.3482 63.8953 40.9983
      vertex 0 62.0225 39.4965
    endloop
  endfacet
  facet normal 0.0897435 -0.191988 0.977285
    outer loop
      vertex -12.3482 63.8953 40.9983
      vertex 0 62.7096 39.6315
      vertex -12.5458 91.4407 46.4277
    endloop
  endfacet
  facet normal 0.245122 -0.120517 0.961972
    outer loop
      vertex 0 62.7096 39.6315
      vertex 0 106.654 45.1369
      vertex -12.5458 91.4407 46.4277
    endloop
  endfacet
  facet normal 0.173937 -0.199005 0.964439
    outer loop
      vertex -12.1506 36.3499 36.4194
      vertex 0 25.552 32
      vertex 0 61.3135 39.3791
    endloop
  endfacet
  facet normal 0.173937 -0.199005 0.964439
    outer loop
      vertex 0 25.552 32
      vertex -12.1506 36.3499 36.4194
      vertex -3.34842 22.6254 32
    endloop
  endfacet
  facet normal 0.0947927 -0.162581 0.982131
    outer loop
      vertex -12.3482 63.8953 40.9983
      vertex 0 61.3135 39.3791
      vertex 0 62.0225 39.4965
    endloop
  endfacet
  facet normal 0.0947927 -0.16258 0.982131
    outer loop
      vertex 0 61.3135 39.3791
      vertex -12.3482 63.8953 40.9983
      vertex -12.1506 36.3499 36.4194
    endloop
  endfacet
  facet normal 0.588128 -0.128515 0.798492
    outer loop
      vertex -12.1506 36.3499 36.4194
      vertex -12.3482 63.8953 40.9983
      vertex -18.9086 58.8037 45.0109
    endloop
  endfacet
  facet normal 0.955893 0.293345 -0.0147602
    outer loop
      vertex -14.7107 45.3057 48.6172
      vertex -12.1506 36.3499 36.4194
      vertex -18.9086 58.8037 45.0109
    endloop
  endfacet
  facet normal -0.192845 0.23322 0.95311
    outer loop
      vertex -18.8129 43.9191 48.1265
      vertex -14.7107 45.3057 48.6172
      vertex -25.469 53.7121 44.3835
    endloop
  endfacet
  facet normal -0.233129 0.182683 0.955132
    outer loop
      vertex -14.7107 45.3057 48.6172
      vertex -18.9086 58.8037 45.0109
      vertex -25.469 53.7121 44.3835
    endloop
  endfacet
  facet normal -0.216134 0.467065 0.857401
    outer loop
      vertex -12.1568 34.1261 55.139
      vertex -9.31866 36.1933 54.7284
      vertex -18.8129 43.9191 48.1265
    endloop
  endfacet
  facet normal 0.817255 0.563303 -0.121592
    outer loop
      vertex -9.31866 36.1933 54.7284
      vertex -9.13545 34.7285 49.1741
      vertex -9.78148 35.2498 47.2471
    endloop
  endfacet
  facet normal 0.817256 0.563301 -0.121592
    outer loop
      vertex -9.31866 36.1933 54.7284
      vertex -8.09017 33.5645 50.8072
      vertex -9.13545 34.7285 49.1741
    endloop
  endfacet
  facet normal 0.817253 0.563305 -0.121595
    outer loop
      vertex -8.09017 33.5645 50.8072
      vertex -9.31866 36.1933 54.7284
      vertex -7.86157 33.2776 51.0145
    endloop
  endfacet
  facet normal 0.817255 0.563302 -0.121592
    outer loop
      vertex -9.78148 35.2498 47.2471
      vertex -12.1506 36.3499 36.4194
      vertex -9.31866 36.1933 54.7284
    endloop
  endfacet
  facet normal 0.817256 0.5633 -0.121593
    outer loop
      vertex -9.99724 35.1075 45.1375
      vertex -12.1506 36.3499 36.4194
      vertex -9.78148 35.2498 47.2471
    endloop
  endfacet
  facet normal 0.817158 0.563453 -0.121547
    outer loop
      vertex -10 35.1057 45.1105
      vertex -12.1506 36.3499 36.4194
      vertex -9.99724 35.1075 45.1375
    endloop
  endfacet
  facet normal 0.817255 0.563302 -0.121592
    outer loop
      vertex -9.78436 34.313 42.8874
      vertex -12.1506 36.3499 36.4194
      vertex -10 35.1057 45.1105
    endloop
  endfacet
  facet normal 0.817272 0.563274 -0.121608
    outer loop
      vertex -9.78148 34.3024 42.8576
      vertex -12.1506 36.3499 36.4194
      vertex -9.78436 34.313 42.8874
    endloop
  endfacet
  facet normal 0.817255 0.563302 -0.121592
    outer loop
      vertex -9.13545 32.875 40.587
      vertex -12.1506 36.3499 36.4194
      vertex -9.78148 34.3024 42.8576
    endloop
  endfacet
  facet normal 0.81726 0.563293 -0.121604
    outer loop
      vertex -9.12067 32.8468 40.556
      vertex -12.1506 36.3499 36.4194
      vertex -9.13545 32.875 40.587
    endloop
  endfacet
  facet normal 0.817255 0.563302 -0.121592
    outer loop
      vertex -8.09017 30.8859 38.3979
      vertex -12.1506 36.3499 36.4194
      vertex -9.12067 32.8468 40.556
    endloop
  endfacet
  facet normal 0.817255 0.563302 -0.121592
    outer loop
      vertex -6.71462 28.4631 36.4194
      vertex -12.1506 36.3499 36.4194
      vertex -8.09017 30.8859 38.3979
    endloop
  endfacet
  facet normal 0.817258 0.563304 -0.121567
    outer loop
      vertex -6.69131 28.4221 36.3859
      vertex -12.1506 36.3499 36.4194
      vertex -6.71462 28.4631 36.4194
    endloop
  endfacet
  facet normal 0.817255 0.563302 -0.121593
    outer loop
      vertex -5 25.5912 34.6389
      vertex -12.1506 36.3499 36.4194
      vertex -6.69131 28.4221 36.3859
    endloop
  endfacet
  facet normal 0.817248 0.56331 -0.121605
    outer loop
      vertex -3.34842 22.6254 32
      vertex -5 25.5912 34.6389
      vertex -4.96512 25.5351 34.6133
    endloop
  endfacet
  facet normal 0.817255 0.563302 -0.121592
    outer loop
      vertex -5 25.5912 34.6389
      vertex -3.34842 22.6254 32
      vertex -12.1506 36.3499 36.4194
    endloop
  endfacet
  facet normal 0.817255 0.563302 -0.121593
    outer loop
      vertex -3.09017 22.517 33.2335
      vertex -3.34842 22.6254 32
      vertex -4.96512 25.5351 34.6133
    endloop
  endfacet
  facet normal 0.817255 0.563302 -0.121593
    outer loop
      vertex -1.08922 19.4022 32.2523
      vertex -3.34842 22.6254 32
      vertex -3.09017 22.517 33.2335
    endloop
  endfacet
  facet normal 0.817255 0.563301 -0.121601
    outer loop
      vertex -1.04528 19.3338 32.2308
      vertex -3.34842 22.6254 32
      vertex -1.08922 19.4022 32.2523
    endloop
  endfacet
  facet normal 0.817253 0.563303 -0.121603
    outer loop
      vertex -0.401535 18.35 32
      vertex -1.04528 19.3338 32.2308
      vertex -0.427645 18.4022 32.0665
    endloop
  endfacet
  facet normal 0.817255 0.563302 -0.121594
    outer loop
      vertex -1.04528 19.3338 32.2308
      vertex -0.401535 18.35 32
      vertex -3.34842 22.6254 32
    endloop
  endfacet
  facet normal 0.936401 0.335064 0.104335
    outer loop
      vertex -9.31866 36.1933 54.7284
      vertex -6.69131 29.7877 51.7189
      vertex -7.86157 33.2776 51.0145
    endloop
  endfacet
  facet normal 0.936401 0.335065 0.104334
    outer loop
      vertex -6.69131 29.7877 51.7189
      vertex -9.31866 36.1933 54.7284
      vertex -5.1078 25.2479 52.0866
    endloop
  endfacet
  facet normal 0.936401 0.335066 0.104331
    outer loop
      vertex -0.285182 18.0248 32
      vertex -0.401535 18.35 32
      vertex -0.427645 18.4022 32.0665
    endloop
  endfacet
  facet normal 0.879247 0.400508 -0.257911
    outer loop
      vertex -2.72047 27.3653 63.5134
      vertex -5.1078 25.2479 52.0866
      vertex -9.31866 36.1933 54.7284
    endloop
  endfacet
  facet normal 0.879247 0.400508 -0.257911
    outer loop
      vertex -2.72047 27.3653 63.5134
      vertex -5 25.0386 52.1292
      vertex -5.1078 25.2479 52.0866
    endloop
  endfacet
  facet normal 0.879247 0.400508 -0.257911
    outer loop
      vertex -2.72047 27.3653 63.5134
      vertex -3.09017 20.9361 52.2693
      vertex -5 25.0386 52.1292
    endloop
  endfacet
  facet normal 0.879247 0.400508 -0.257911
    outer loop
      vertex -2.72047 27.3653 63.5134
      vertex -1.04528 16.1925 51.8742
      vertex -3.09017 20.9361 52.2693
    endloop
  endfacet
  facet normal 0.879247 0.400508 -0.257911
    outer loop
      vertex -1.04528 16.1925 51.8742
      vertex -2.72047 27.3653 63.5134
      vertex -0.263596 14.2567 51.5329
    endloop
  endfacet
  facet normal 0.263934 0.677197 -0.686835
    outer loop
      vertex -0.263596 14.2567 51.5329
      vertex 0 26.3255 63.5337
      vertex 0 14.1315 51.5108
    endloop
  endfacet
  facet normal 0.263935 0.677197 -0.686835
    outer loop
      vertex 0 26.3255 63.5337
      vertex -0.263596 14.2567 51.5329
      vertex -2.72047 27.3653 63.5134
    endloop
  endfacet
  facet normal -0.00439297 0.105275 0.994433
    outer loop
      vertex 0 15.5222 67.8052
      vertex 0 24.3647 66.8691
      vertex -0.92337 24.3331 66.8683
    endloop
  endfacet
  facet normal -0.11519 0.705462 0.699324
    outer loop
      vertex -0.92337 24.3331 66.8683
      vertex -2.72047 27.3653 63.5134
      vertex -12.1568 34.1261 55.139
    endloop
  endfacet
  facet normal -0.292306 0.555902 0.778158
    outer loop
      vertex -2.72047 27.3653 63.5134
      vertex -9.31866 36.1933 54.7284
      vertex -12.1568 34.1261 55.139
    endloop
  endfacet
  facet normal 0.889626 0.436628 -0.13387
    outer loop
      vertex -9.31866 36.1933 54.7284
      vertex -12.1506 36.3499 36.4194
      vertex -14.7107 45.3057 48.6172
    endloop
  endfacet
  facet normal -0.249944 0.432934 0.866081
    outer loop
      vertex -9.31866 36.1933 54.7284
      vertex -14.7107 45.3057 48.6172
      vertex -18.8129 43.9191 48.1265
    endloop
  endfacet
  facet normal 0.398676 0.138179 0.906622
    outer loop
      vertex -0.92337 24.3331 66.8683
      vertex 0 9.57304 68.7119
      vertex 0 15.5222 67.8052
    endloop
  endfacet
  facet normal 0.398684 0.138179 0.906619
    outer loop
      vertex 0 9.57304 68.7119
      vertex -0.92337 24.3331 66.8683
      vertex -0.927658 1.25114 70.3882
    endloop
  endfacet
  facet normal 0.456603 0.126489 0.880633
    outer loop
      vertex 0 -3.78475 70.6305
      vertex 0 9.57304 68.7119
      vertex -0.927658 1.25114 70.3882
    endloop
  endfacet
  facet normal -0.738902 0.0589632 0.671228
    outer loop
      vertex -0.927658 1.25114 70.3882
      vertex -12.1568 34.1261 55.139
      vertex -12.2012 5.94728 57.5655
    endloop
  endfacet
  facet normal -0.669219 0.112139 0.734555
    outer loop
      vertex -0.927658 1.25114 70.3882
      vertex -0.92337 24.3331 66.8683
      vertex -12.1568 34.1261 55.139
    endloop
  endfacet
  facet normal -0.701362 0.0331715 0.712033
    outer loop
      vertex -12.1568 34.1261 55.139
      vertex -18.8129 43.9191 48.1265
      vertex -18.9741 10.6434 49.5179
    endloop
  endfacet
  facet normal -0.746805 0.0582232 0.66249
    outer loop
      vertex -12.2012 5.94728 57.5655
      vertex -12.1568 34.1261 55.139
      vertex -18.9741 10.6434 49.5179
    endloop
  endfacet
  facet normal -0.584788 0.0367182 0.810355
    outer loop
      vertex -18.9741 10.6434 49.5179
      vertex -18.8129 43.9191 48.1265
      vertex -25.7469 15.3396 44.4175
    endloop
  endfacet
  facet normal -0.485349 0.00429218 0.87431
    outer loop
      vertex -18.8129 43.9191 48.1265
      vertex -25.469 53.7121 44.3835
      vertex -25.7469 15.3396 44.4175
    endloop
  endfacet
  facet normal 0.33685 0.107067 0.935451
    outer loop
      vertex -0.927658 1.25114 70.3882
      vertex 0 -8.44031 71.1634
      vertex 0 -3.78475 70.6305
    endloop
  endfacet
  facet normal 0.336848 0.107067 0.935452
    outer loop
      vertex 0 -8.44031 71.1634
      vertex -0.927658 1.25114 70.3882
      vertex -1.43489 -21.4388 73.1678
    endloop
  endfacet
  facet normal -0.342597 0.180008 0.922076
    outer loop
      vertex 0 -23.1345 74.032
      vertex 0 -8.44031 71.1634
      vertex -1.43489 -21.4388 73.1678
    endloop
  endfacet
  facet normal -0.820616 0.0029674 0.571472
    outer loop
      vertex -1.43489 -21.4388 73.1678
      vertex -12.2012 5.94728 57.5655
      vertex -12.4495 -22.3087 57.3556
    endloop
  endfacet
  facet normal -0.728997 0.0992668 0.677281
    outer loop
      vertex -1.43489 -21.4388 73.1678
      vertex -0.927658 1.25114 70.3882
      vertex -12.2012 5.94728 57.5655
    endloop
  endfacet
  facet normal -0.765329 -0.000796836 0.643639
    outer loop
      vertex -12.2012 5.94728 57.5655
      vertex -18.9741 10.6434 49.5179
      vertex -19.4411 -22.748 48.9212
    endloop
  endfacet
  facet normal -0.769933 0.00202696 0.638121
    outer loop
      vertex -12.4495 -22.3087 57.3556
      vertex -12.2012 5.94728 57.5655
      vertex -19.4411 -22.748 48.9212
    endloop
  endfacet
  facet normal -0.769867 -0.000636231 0.638204
    outer loop
      vertex -19.4411 -22.748 48.9212
      vertex -18.9741 10.6434 49.5179
      vertex -26.4327 -23.1873 40.4868
    endloop
  endfacet
  facet normal -0.629732 -0.0677438 0.773853
    outer loop
      vertex -18.9741 10.6434 49.5179
      vertex -25.7469 15.3396 44.4175
      vertex -26.4327 -23.1873 40.4868
    endloop
  endfacet
  facet normal 0.226739 0.58767 0.776681
    outer loop
      vertex 0 -23.1345 74.032
      vertex -1.10468 -30 79.5492
      vertex 0 -30 79.2267
    endloop
  endfacet
  facet normal 0.226739 0.58767 0.776681
    outer loop
      vertex -1.10468 -30 79.5492
      vertex 0 -23.1345 74.032
      vertex -1.43489 -21.4388 73.1678
    endloop
  endfacet
  facet normal -0.940385 0.00304133 0.340097
    outer loop
      vertex -11.0432 -30 61.3129
      vertex -8.35416 -30 68.7483
      vertex -12.4495 -22.3087 57.3556
    endloop
  endfacet
  facet normal -0.77529 0.35797 0.520368
    outer loop
      vertex -8.35416 -30 68.7483
      vertex -1.43489 -21.4388 73.1678
      vertex -12.4495 -22.3087 57.3556
    endloop
  endfacet
  facet normal -0.77529 0.35797 0.520368
    outer loop
      vertex -1.43489 -21.4388 73.1678
      vertex -8.35416 -30 68.7483
      vertex -1.10468 -30 79.5492
    endloop
  endfacet
  facet normal -0.770296 0.0277341 0.637083
    outer loop
      vertex -13.9712 -30 55.8506
      vertex -19.4411 -22.748 48.9212
      vertex -18.9208 -30 49.866
    endloop
  endfacet
  facet normal -0.770296 0.0277339 0.637083
    outer loop
      vertex -19.4411 -22.748 48.9212
      vertex -13.9712 -30 55.8506
      vertex -12.4495 -22.3087 57.3556
    endloop
  endfacet
  facet normal -0.87842 0.0816505 0.470863
    outer loop
      vertex -11.0432 -30 61.3129
      vertex -12.4495 -22.3087 57.3556
      vertex -13.9712 -30 55.8506
    endloop
  endfacet
  facet normal -0.826828 0.013933 0.562282
    outer loop
      vertex -18.9208 -30 49.866
      vertex -19.4411 -22.748 48.9212
      vertex -21.3559 -30 46.2852
    endloop
  endfacet
  facet normal -0.768807 -0.0292045 0.638814
    outer loop
      vertex -21.3559 -30 46.2852
      vertex -26.4327 -23.1873 40.4868
      vertex -26.4976 -30 40.0973
    endloop
  endfacet
  facet normal -0.768807 -0.0292048 0.638813
    outer loop
      vertex -26.4327 -23.1873 40.4868
      vertex -21.3559 -30 46.2852
      vertex -19.4411 -22.748 48.9212
    endloop
  endfacet
  facet normal -0.0333546 0.968547 0.246585
    outer loop
      vertex 0 24.3647 66.8691
      vertex 0 24.5811 66.019
      vertex -0.92337 24.3331 66.8683
    endloop
  endfacet
  facet normal 0.294844 0.782116 0.548964
    outer loop
      vertex -2.72047 27.3653 63.5134
      vertex 0 24.5811 66.019
      vertex 0 26.3255 63.5337
    endloop
  endfacet
  facet normal 0.294844 0.782116 0.548964
    outer loop
      vertex 0 24.5811 66.019
      vertex -2.72047 27.3653 63.5134
      vertex -0.92337 24.3331 66.8683
    endloop
  endfacet
  facet normal -0.866028 -0.499996 0
    outer loop
      vertex -128.3 125 20
      vertex -129.15 126.472 23
      vertex -129.15 126.472 20
    endloop
  endfacet
  facet normal -0.866028 -0.499996 0
    outer loop
      vertex -129.15 126.472 23
      vertex -128.3 125 20
      vertex -128.3 125 23
    endloop
  endfacet
  facet normal 0.866028 -0.499996 0
    outer loop
      vertex -131.7 125 23
      vertex -130.85 126.472 20
      vertex -130.85 126.472 23
    endloop
  endfacet
  facet normal 0.866028 -0.499996 0
    outer loop
      vertex -130.85 126.472 20
      vertex -131.7 125 23
      vertex -131.7 125 20
    endloop
  endfacet
  facet normal 0 -1 0
    outer loop
      vertex -130.85 126.472 20
      vertex -129.15 126.472 23
      vertex -130.85 126.472 23
    endloop
  endfacet
  facet normal 0 -1 -0
    outer loop
      vertex -129.15 126.472 23
      vertex -130.85 126.472 20
      vertex -129.15 126.472 20
    endloop
  endfacet
  facet normal -0.866028 0.499996 0
    outer loop
      vertex -129.15 123.528 20
      vertex -128.3 125 23
      vertex -128.3 125 20
    endloop
  endfacet
  facet normal -0.866028 0.499996 0
    outer loop
      vertex -128.3 125 23
      vertex -129.15 123.528 20
      vertex -129.15 123.528 23
    endloop
  endfacet
  facet normal 0 1 -0
    outer loop
      vertex -129.15 123.528 20
      vertex -130.85 123.528 23
      vertex -129.15 123.528 23
    endloop
  endfacet
  facet normal 0 1 0
    outer loop
      vertex -130.85 123.528 23
      vertex -129.15 123.528 20
      vertex -130.85 123.528 20
    endloop
  endfacet
  facet normal 0.866028 0.499996 0
    outer loop
      vertex -130.85 123.528 23
      vertex -131.7 125 20
      vertex -131.7 125 23
    endloop
  endfacet
  facet normal 0.866028 0.499996 0
    outer loop
      vertex -131.7 125 20
      vertex -130.85 123.528 23
      vertex -130.85 123.528 20
    endloop
  endfacet
  facet normal -0.951056 -0.309019 0
    outer loop
      vertex -127 125 23
      vertex -127.573 126.763 25.4481
      vertex -127.573 126.763 23
    endloop
  endfacet
  facet normal -0.951056 -0.309019 0
    outer loop
      vertex -127.573 126.763 25.4481
      vertex -127 125 23
      vertex -127 125 26.1233
    endloop
  endfacet
  facet normal 0.951056 -0.309019 0
    outer loop
      vertex -133 125 23
      vertex -132.427 126.763 24.4249
      vertex -133 125 24.8586
    endloop
  endfacet
  facet normal 0.951056 -0.309019 0
    outer loop
      vertex -132.427 126.763 24.4249
      vertex -133 125 23
      vertex -132.427 126.763 23
    endloop
  endfacet
  facet normal 0 1 -0
    outer loop
      vertex -129.073 122.147 23
      vertex -130.927 122.147 26.1927
      vertex -129.073 122.147 26.5835
    endloop
  endfacet
  facet normal 0 1 0
    outer loop
      vertex -130.927 122.147 26.1927
      vertex -129.073 122.147 23
      vertex -130.927 122.147 23
    endloop
  endfacet
  facet normal 0 -1 0
    outer loop
      vertex -130.927 127.853 23
      vertex -130.524 127.853 24.4834
      vertex -130.927 127.853 24.3984
    endloop
  endfacet
  facet normal 0 -1 0
    outer loop
      vertex -129.073 127.853 23
      vertex -130.524 127.853 24.4834
      vertex -130.927 127.853 23
    endloop
  endfacet
  facet normal 0 -1 0
    outer loop
      vertex -130.524 127.853 24.4834
      vertex -129.073 127.853 23
      vertex -129.073 127.853 24.8231
    endloop
  endfacet
  facet normal -0.587788 -0.809015 0
    outer loop
      vertex -127.573 126.763 23
      vertex -129.073 127.853 24.8231
      vertex -129.073 127.853 23
    endloop
  endfacet
  facet normal -0.587785 -0.809017 3.61837e-06
    outer loop
      vertex -129.073 127.853 24.8231
      vertex -127.573 126.763 23
      vertex -128.34 127.321 25.111
    endloop
  endfacet
  facet normal -0.587791 -0.809013 0
    outer loop
      vertex -128.34 127.321 25.111
      vertex -127.573 126.763 23
      vertex -127.573 126.763 25.4481
    endloop
  endfacet
  facet normal 0.587788 -0.809015 0
    outer loop
      vertex -132.427 126.763 23
      vertex -130.927 127.853 24.3984
      vertex -132.427 126.763 24.4249
    endloop
  endfacet
  facet normal 0.587788 -0.809015 0
    outer loop
      vertex -130.927 127.853 24.3984
      vertex -132.427 126.763 23
      vertex -130.927 127.853 23
    endloop
  endfacet
  facet normal -0.951056 0.309019 0
    outer loop
      vertex -127.573 123.237 23
      vertex -127 125 26.1233
      vertex -127 125 23
    endloop
  endfacet
  facet normal -0.951056 0.309019 0
    outer loop
      vertex -127 125 26.1233
      vertex -127.573 123.237 23
      vertex -127.573 123.237 26.557
    endloop
  endfacet
  facet normal 0 0 1
    outer loop
      vertex -128.3 125 23
      vertex -127 125 23
      vertex -127.573 126.763 23
    endloop
  endfacet
  facet normal 0 0 1
    outer loop
      vertex -127 125 23
      vertex -128.3 125 23
      vertex -127.573 123.237 23
    endloop
  endfacet
  facet normal 0 0 1
    outer loop
      vertex -129.15 126.472 23
      vertex -127.573 126.763 23
      vertex -129.073 127.853 23
    endloop
  endfacet
  facet normal 0 0 1
    outer loop
      vertex -127.573 126.763 23
      vertex -129.15 126.472 23
      vertex -128.3 125 23
    endloop
  endfacet
  facet normal 0 0 1
    outer loop
      vertex -129.073 127.853 23
      vertex -130.85 126.472 23
      vertex -129.15 126.472 23
    endloop
  endfacet
  facet normal -0 0 1
    outer loop
      vertex -130.927 127.853 23
      vertex -130.85 126.472 23
      vertex -129.073 127.853 23
    endloop
  endfacet
  facet normal -0 0 1
    outer loop
      vertex -132.427 126.763 23
      vertex -130.85 126.472 23
      vertex -130.927 127.853 23
    endloop
  endfacet
  facet normal 0 0 1
    outer loop
      vertex -130.85 126.472 23
      vertex -132.427 126.763 23
      vertex -131.7 125 23
    endloop
  endfacet
  facet normal -0 0 1
    outer loop
      vertex -129.15 123.528 23
      vertex -127.573 123.237 23
      vertex -128.3 125 23
    endloop
  endfacet
  facet normal 0 0 1
    outer loop
      vertex -127.573 123.237 23
      vertex -129.15 123.528 23
      vertex -129.073 122.147 23
    endloop
  endfacet
  facet normal -0 0 1
    outer loop
      vertex -130.85 123.528 23
      vertex -129.073 122.147 23
      vertex -129.15 123.528 23
    endloop
  endfacet
  facet normal 0 0 1
    outer loop
      vertex -130.85 123.528 23
      vertex -130.927 122.147 23
      vertex -129.073 122.147 23
    endloop
  endfacet
  facet normal 0 0 1
    outer loop
      vertex -132.427 123.237 23
      vertex -130.85 123.528 23
      vertex -131.7 125 23
    endloop
  endfacet
  facet normal 0 0 1
    outer loop
      vertex -133 125 23
      vertex -131.7 125 23
      vertex -132.427 126.763 23
    endloop
  endfacet
  facet normal 0 0 1
    outer loop
      vertex -130.85 123.528 23
      vertex -132.427 123.237 23
      vertex -130.927 122.147 23
    endloop
  endfacet
  facet normal 0 0 1
    outer loop
      vertex -131.7 125 23
      vertex -133 125 23
      vertex -132.427 123.237 23
    endloop
  endfacet
  facet normal -0.587788 0.809015 0
    outer loop
      vertex -129.073 122.147 23
      vertex -127.573 123.237 26.557
      vertex -127.573 123.237 23
    endloop
  endfacet
  facet normal -0.587788 0.809015 0
    outer loop
      vertex -127.573 123.237 26.557
      vertex -129.073 122.147 23
      vertex -129.073 122.147 26.5835
    endloop
  endfacet
  facet normal 0.587788 0.809015 -0
    outer loop
      vertex -130.927 122.147 23
      vertex -132.427 123.237 25.5339
      vertex -130.927 122.147 26.1927
    endloop
  endfacet
  facet normal 0.587788 0.809015 0
    outer loop
      vertex -132.427 123.237 25.5339
      vertex -130.927 122.147 23
      vertex -132.427 123.237 23
    endloop
  endfacet
  facet normal 0.951056 0.309019 -0
    outer loop
      vertex -132.427 123.237 23
      vertex -133 125 24.8586
      vertex -132.427 123.237 25.5339
    endloop
  endfacet
  facet normal 0.951056 0.309019 0
    outer loop
      vertex -133 125 24.8586
      vertex -132.427 123.237 23
      vertex -133 125 23
    endloop
  endfacet
  facet normal 0 0.173648 -0.984808
    outer loop
      vertex -1.04528 -30 43.7292
      vertex 0 14.1315 51.5108
      vertex 0 -30 43.7292
    endloop
  endfacet
  facet normal -6.48955e-07 0.173648 -0.984808
    outer loop
      vertex 0 14.1315 51.5108
      vertex -1.04528 -30 43.7292
      vertex -0.263596 14.2567 51.5329
    endloop
  endfacet
  facet normal 2.44735e-07 0.173648 -0.984808
    outer loop
      vertex -0.263596 14.2567 51.5329
      vertex -1.04528 -30 43.7292
      vertex -1.04528 16.1925 51.8742
    endloop
  endfacet
  facet normal 0.866025 -0.0868241 0.492404
    outer loop
      vertex -9.12067 32.8468 40.556
      vertex -8.09017 -5.39823 32
      vertex -8.09017 30.8859 38.3979
    endloop
  endfacet
  facet normal 0.866026 -0.086824 0.492404
    outer loop
      vertex -8.09017 -5.39823 32
      vertex -9.12067 32.8468 40.556
      vertex -9.09505 -15.4214 32
    endloop
  endfacet
  facet normal 0.406737 0.158635 -0.899666
    outer loop
      vertex -5 -30 42.4244
      vertex -3.09017 20.9361 52.2693
      vertex -3.09017 -30 43.2879
    endloop
  endfacet
  facet normal 0.406737 0.158635 -0.899666
    outer loop
      vertex -3.09017 20.9361 52.2693
      vertex -5 -30 42.4244
      vertex -5 25.0386 52.1292
    endloop
  endfacet
  facet normal 0.994523 0.0181495 -0.102931
    outer loop
      vertex -9.99002 -30 33.727
      vertex -10 35.1057 45.1105
      vertex -9.99724 35.1075 45.1375
    endloop
  endfacet
  facet normal 0.994522 0.0181506 -0.102937
    outer loop
      vertex -10 35.1057 45.1105
      vertex -9.99002 -30 33.727
      vertex -10 -30 33.6306
    endloop
  endfacet
  facet normal 0.743171 -0.116188 0.658936
    outer loop
      vertex -6.71462 28.4631 36.4194
      vertex -6.69131 3.54857 32
      vertex -6.69131 28.4221 36.3859
    endloop
  endfacet
  facet normal 0.743144 -0.116193 0.658966
    outer loop
      vertex -6.69131 3.54857 32
      vertex -6.71462 28.4631 36.4194
      vertex -6.7325 3.28513 32
    endloop
  endfacet
  facet normal 0.587785 -0.140484 0.796726
    outer loop
      vertex -6.69131 28.4221 36.3859
      vertex -5 10.625 32
      vertex -5 25.5912 34.6389
    endloop
  endfacet
  facet normal 0.587785 -0.140484 0.796726
    outer loop
      vertex -5 10.625 32
      vertex -6.69131 28.4221 36.3859
      vertex -6.69131 3.54857 32
    endloop
  endfacet
  facet normal 0.866025 0.0868242 -0.492404
    outer loop
      vertex -9.13545 -30 37.7607
      vertex -8.09017 33.5645 50.8072
      vertex -8.09017 -30 39.5991
    endloop
  endfacet
  facet normal 0.866025 0.0868241 -0.492404
    outer loop
      vertex -8.09017 33.5645 50.8072
      vertex -9.13545 -30 37.7607
      vertex -9.13545 34.7285 49.1741
    endloop
  endfacet
  facet normal 0.406742 -0.158635 0.899664
    outer loop
      vertex -5 25.5912 34.6389
      vertex -4.95078 10.7512 32
      vertex -4.96512 25.5351 34.6133
    endloop
  endfacet
  facet normal 0.406738 -0.158635 0.899666
    outer loop
      vertex -4.95078 10.7512 32
      vertex -5 25.5912 34.6389
      vertex -5 10.625 32
    endloop
  endfacet
  facet normal 0.406735 -0.158636 0.899667
    outer loop
      vertex -4.96512 25.5351 34.6133
      vertex -3.09017 15.5217 32
      vertex -3.09017 22.517 33.2335
    endloop
  endfacet
  facet normal 0.406736 -0.158635 0.899667
    outer loop
      vertex -3.09017 15.5217 32
      vertex -4.96512 25.5351 34.6133
      vertex -4.95078 10.7512 32
    endloop
  endfacet
  facet normal 0.743144 -0.116193 0.658965
    outer loop
      vertex -8.09017 30.8859 38.3979
      vertex -6.7325 3.28513 32
      vertex -6.71462 28.4631 36.4194
    endloop
  endfacet
  facet normal 0.743145 -0.116193 0.658965
    outer loop
      vertex -6.7325 3.28513 32
      vertex -8.09017 30.8859 38.3979
      vertex -8.09017 -5.39823 32
    endloop
  endfacet
  facet normal 0.994521 -0.0181521 0.102946
    outer loop
      vertex -9.78436 34.313 42.8874
      vertex -9.78148 -27.2743 32
      vertex -9.78148 34.3024 42.8576
    endloop
  endfacet
  facet normal 0.994522 -0.0181517 0.102944
    outer loop
      vertex -9.78148 -27.2743 32
      vertex -9.78436 34.313 42.8874
      vertex -9.79126 -27.8102 32
    endloop
  endfacet
  facet normal 0.74314 0.116191 -0.65897
    outer loop
      vertex -6.69131 29.7877 51.7189
      vertex -8.09017 33.5645 50.8072
      vertex -7.86157 33.2776 51.0145
    endloop
  endfacet
  facet normal 0.743145 0.116193 -0.658965
    outer loop
      vertex -8.09017 -30 39.5991
      vertex -6.69131 29.7877 51.7189
      vertex -6.69131 -30 41.1767
    endloop
  endfacet
  facet normal 0.743144 0.116193 -0.658966
    outer loop
      vertex -6.69131 29.7877 51.7189
      vertex -8.09017 -30 39.5991
      vertex -8.09017 33.5645 50.8072
    endloop
  endfacet
  facet normal 0.866037 -0.0868206 0.492384
    outer loop
      vertex -9.13545 32.875 40.587
      vertex -9.09505 -15.4214 32
      vertex -9.12067 32.8468 40.556
    endloop
  endfacet
  facet normal 0.866023 -0.0868247 0.492407
    outer loop
      vertex -9.09505 -15.4214 32
      vertex -9.13545 32.875 40.587
      vertex -9.13545 -15.8244 32
    endloop
  endfacet
  facet normal 0.587785 0.140484 -0.796727
    outer loop
      vertex -6.69131 -30 41.1767
      vertex -5 25.0386 52.1292
      vertex -5 -30 42.4244
    endloop
  endfacet
  facet normal 0.587784 0.140485 -0.796727
    outer loop
      vertex -5 25.0386 52.1292
      vertex -6.69131 -30 41.1767
      vertex -5.1078 25.2479 52.0866
    endloop
  endfacet
  facet normal 0.587786 0.140484 -0.796726
    outer loop
      vertex -5.1078 25.2479 52.0866
      vertex -6.69131 -30 41.1767
      vertex -6.69131 29.7877 51.7189
    endloop
  endfacet
  facet normal 0.207922 -0.169853 0.963285
    outer loop
      vertex -1.09071 17.9692 32
      vertex -1.04528 19.3338 32.2308
      vertex -1.08922 19.4022 32.2523
    endloop
  endfacet
  facet normal 0.20791 -0.169853 0.963288
    outer loop
      vertex -1.04528 19.3338 32.2308
      vertex -1.09071 17.9692 32
      vertex -1.04528 18.0248 32
    endloop
  endfacet
  facet normal 0.207912 -0.169854 0.963287
    outer loop
      vertex -3.09017 15.5217 32
      vertex -1.08922 19.4022 32.2523
      vertex -3.09017 22.517 33.2335
    endloop
  endfacet
  facet normal 0.207912 -0.169853 0.963287
    outer loop
      vertex -1.08922 19.4022 32.2523
      vertex -3.09017 15.5217 32
      vertex -1.09071 17.9692 32
    endloop
  endfacet
  facet normal 0.951057 0.0536602 -0.304322
    outer loop
      vertex -9.13545 -30 37.7607
      vertex -9.78148 35.2498 47.2471
      vertex -9.13545 34.7285 49.1741
    endloop
  endfacet
  facet normal 0.951057 0.0536602 -0.304322
    outer loop
      vertex -9.78148 35.2498 47.2471
      vertex -9.13545 -30 37.7607
      vertex -9.78148 -30 35.7418
    endloop
  endfacet
  facet normal 0.951056 -0.0536603 0.304322
    outer loop
      vertex -9.78148 34.3024 42.8576
      vertex -9.13545 -15.8244 32
      vertex -9.13545 32.875 40.587
    endloop
  endfacet
  facet normal 0.951057 -0.0536602 0.304322
    outer loop
      vertex -9.13545 -15.8244 32
      vertex -9.78148 34.3024 42.8576
      vertex -9.78148 -27.2743 32
    endloop
  endfacet
  facet normal 1.74171e-06 -0.173648 0.984808
    outer loop
      vertex -1.04528 18.0248 32
      vertex -0.427645 18.4022 32.0665
      vertex -1.04528 19.3338 32.2308
    endloop
  endfacet
  facet normal 0 -0.173645 0.984808
    outer loop
      vertex -0.427645 18.4022 32.0665
      vertex -1.04528 18.0248 32
      vertex -0.285182 18.0248 32
    endloop
  endfacet
  facet normal 0.207911 0.169854 -0.963288
    outer loop
      vertex -3.09017 -30 43.2879
      vertex -1.04528 16.1925 51.8742
      vertex -1.04528 -30 43.7292
    endloop
  endfacet
  facet normal 0.207912 0.169854 -0.963287
    outer loop
      vertex -1.04528 16.1925 51.8742
      vertex -3.09017 -30 43.2879
      vertex -3.09017 20.9361 52.2693
    endloop
  endfacet
  facet normal 0.994522 -0.0181512 0.102941
    outer loop
      vertex -10 35.1057 45.1105
      vertex -9.79126 -27.8102 32
      vertex -9.78436 34.313 42.8874
    endloop
  endfacet
  facet normal 0.994522 -0.0181512 0.102941
    outer loop
      vertex -10 -30 33.6306
      vertex -9.79126 -27.8102 32
      vertex -10 35.1057 45.1105
    endloop
  endfacet
  facet normal 0.994522 -0.0181509 0.102941
    outer loop
      vertex -9.79126 -27.8102 32
      vertex -10 -30 33.6306
      vertex -9.83122 -30 32
    endloop
  endfacet
  facet normal 0.994522 0.0181513 -0.102941
    outer loop
      vertex -9.78148 -30 35.7418
      vertex -9.99724 35.1075 45.1375
      vertex -9.78148 35.2498 47.2471
    endloop
  endfacet
  facet normal 0.994522 0.0181513 -0.102941
    outer loop
      vertex -9.99724 35.1075 45.1375
      vertex -9.78148 -30 35.7418
      vertex -9.99002 -30 33.727
    endloop
  endfacet
  facet normal 0 0 -1
    outer loop
      vertex -40 -30 25
      vertex -85 -20 25
      vertex -40 -20 25
    endloop
  endfacet
  facet normal 0 0 -1
    outer loop
      vertex -140 119.455 25
      vertex -85 120 25
      vertex -85 -20 25
    endloop
  endfacet
  facet normal 0 0 -1
    outer loop
      vertex -140 -30 25
      vertex -85 -20 25
      vertex -40 -30 25
    endloop
  endfacet
  facet normal 0 0 -1
    outer loop
      vertex -140 119.455 25
      vertex -85 -20 25
      vertex -140 -30 25
    endloop
  endfacet
  facet normal -0 0 -1
    outer loop
      vertex -85 120 25
      vertex -140 119.455 25
      vertex -139.265 120 25
    endloop
  endfacet
  facet normal 0 -1 0
    outer loop
      vertex -140 120 20
      vertex -139.265 120 25
      vertex -140 120 24.8287
    endloop
  endfacet
  facet normal 0 -1 0
    outer loop
      vertex -85 120 20
      vertex -139.265 120 25
      vertex -140 120 20
    endloop
  endfacet
  facet normal 0 -1 0
    outer loop
      vertex -139.265 120 25
      vertex -85 120 20
      vertex -85 120 25
    endloop
  endfacet
  facet normal 1 0 0
    outer loop
      vertex -85 140 28
      vertex -85 120 25
      vertex -85 140 20
    endloop
  endfacet
  facet normal 1 -0 0
    outer loop
      vertex -85 -20 28
      vertex -85 120 25
      vertex -85 140 28
    endloop
  endfacet
  facet normal 1 0 0
    outer loop
      vertex -85 120 25
      vertex -85 -20 28
      vertex -85 -20 25
    endloop
  endfacet
  facet normal 1 0 0
    outer loop
      vertex -85 140 20
      vertex -85 120 25
      vertex -85 120 20
    endloop
  endfacet
  facet normal 0 0 -1
    outer loop
      vertex -85 -20 28
      vertex -40 140 28
      vertex -40 -20 28
    endloop
  endfacet
  facet normal -0 0 -1
    outer loop
      vertex -40 140 28
      vertex -85 -20 28
      vertex -85 140 28
    endloop
  endfacet
  facet normal 0 1 -0
    outer loop
      vertex -40 -20 25
      vertex -85 -20 28
      vertex -40 -20 28
    endloop
  endfacet
  facet normal 0 1 0
    outer loop
      vertex -85 -20 28
      vertex -40 -20 25
      vertex -85 -20 25
    endloop
  endfacet
  facet normal 1 0 0
    outer loop
      vertex -40 140 30
      vertex -40 -20 28
      vertex -40 140 28
    endloop
  endfacet
  facet normal 1 -0 0
    outer loop
      vertex -40 -30 30
      vertex -40 -20 28
      vertex -40 140 30
    endloop
  endfacet
  facet normal 1 0 0
    outer loop
      vertex -40 -30 25
      vertex -40 -20 28
      vertex -40 -30 30
    endloop
  endfacet
  facet normal 1 0 0
    outer loop
      vertex -40 -20 28
      vertex -40 -30 25
      vertex -40 -20 25
    endloop
  endfacet
  facet normal 0 0 -1
    outer loop
      vertex -40 -30 30
      vertex -30 140 30
      vertex -30 -30 30
    endloop
  endfacet
  facet normal -0 0 -1
    outer loop
      vertex -30 140 30
      vertex -40 -30 30
      vertex -40 140 30
    endloop
  endfacet
  facet normal 1 -0 0
    outer loop
      vertex -30 -30 32
      vertex -30 140 30
      vertex -30 140 32
    endloop
  endfacet
  facet normal 1 0 0
    outer loop
      vertex -30 140 30
      vertex -30 -30 32
      vertex -30 -30 30
    endloop
  endfacet
  facet normal 0 0 -1
    outer loop
      vertex -1.04528 18.0248 32
      vertex -0.401535 18.35 32
      vertex -0.285182 18.0248 32
    endloop
  endfacet
  facet normal 0 0 -1
    outer loop
      vertex -1.04528 18.0248 32
      vertex -3.34842 22.6254 32
      vertex -0.401535 18.35 32
    endloop
  endfacet
  facet normal 0 0 -1
    outer loop
      vertex -1.09071 17.9692 32
      vertex -3.34842 22.6254 32
      vertex -1.04528 18.0248 32
    endloop
  endfacet
  facet normal 0 0 -1
    outer loop
      vertex -3.09017 15.5217 32
      vertex -3.34842 22.6254 32
      vertex -1.09071 17.9692 32
    endloop
  endfacet
  facet normal 0 -0 -1
    outer loop
      vertex -3.34842 22.6254 32
      vertex -3.09017 15.5217 32
      vertex -4.95078 10.7512 32
    endloop
  endfacet
  facet normal 0 0 -1
    outer loop
      vertex -30 140 32
      vertex 0 25.552 32
      vertex -3.34842 22.6254 32
    endloop
  endfacet
  facet normal 0 0 -1
    outer loop
      vertex -5 10.625 32
      vertex -3.34842 22.6254 32
      vertex -4.95078 10.7512 32
    endloop
  endfacet
  facet normal 0 0 -1
    outer loop
      vertex -30 -30 32
      vertex -3.34842 22.6254 32
      vertex -5 10.625 32
    endloop
  endfacet
  facet normal 0 0 -1
    outer loop
      vertex -30 -30 32
      vertex -5 10.625 32
      vertex -6.69131 3.54857 32
    endloop
  endfacet
  facet normal 0 0 -1
    outer loop
      vertex -30 -30 32
      vertex -6.69131 3.54857 32
      vertex -6.7325 3.28513 32
    endloop
  endfacet
  facet normal 0 0 -1
    outer loop
      vertex -30 -30 32
      vertex -6.7325 3.28513 32
      vertex -8.09017 -5.39823 32
    endloop
  endfacet
  facet normal 0 0 -1
    outer loop
      vertex -30 -30 32
      vertex -8.09017 -5.39823 32
      vertex -9.09505 -15.4214 32
    endloop
  endfacet
  facet normal 0 0 -1
    outer loop
      vertex -30 -30 32
      vertex -9.09505 -15.4214 32
      vertex -9.13545 -15.8244 32
    endloop
  endfacet
  facet normal 0 0 -1
    outer loop
      vertex -30 -30 32
      vertex -9.79126 -27.8102 32
      vertex -9.83122 -30 32
    endloop
  endfacet
  facet normal 0 0 -1
    outer loop
      vertex -30 -30 32
      vertex -9.78148 -27.2743 32
      vertex -9.79126 -27.8102 32
    endloop
  endfacet
  facet normal 0 0 -1
    outer loop
      vertex -30 -30 32
      vertex -9.13545 -15.8244 32
      vertex -9.78148 -27.2743 32
    endloop
  endfacet
  facet normal -0 0 -1
    outer loop
      vertex -3.34842 22.6254 32
      vertex -30 -30 32
      vertex -30 140 32
    endloop
  endfacet
  facet normal 0 0 -1
    outer loop
      vertex 0 25.552 32
      vertex -30 140 32
      vertex 0 140 32
    endloop
  endfacet
  facet normal 1 -0 0
    outer loop
      vertex 0 136.33 47.775
      vertex 0 140 32
      vertex 0 140 48.2921
    endloop
  endfacet
  facet normal 1 -0 0
    outer loop
      vertex 0 135.926 47.7702
      vertex 0 140 32
      vertex 0 136.33 47.775
    endloop
  endfacet
  facet normal 1 0 0
    outer loop
      vertex 0 135.303 47.8021
      vertex 0 140 32
      vertex 0 135.926 47.7702
    endloop
  endfacet
  facet normal 1 -0 0
    outer loop
      vertex 0 106.654 45.1369
      vertex 0 140 32
      vertex 0 135.303 47.8021
    endloop
  endfacet
  facet normal 1 -0 0
    outer loop
      vertex 0 62.7096 39.6315
      vertex 0 140 32
      vertex 0 106.654 45.1369
    endloop
  endfacet
  facet normal 1 -0 0
    outer loop
      vertex 0 62.0225 39.4965
      vertex 0 140 32
      vertex 0 62.7096 39.6315
    endloop
  endfacet
  facet normal 1 -0 0
    outer loop
      vertex 0 61.3135 39.3791
      vertex 0 140 32
      vertex 0 62.0225 39.4965
    endloop
  endfacet
  facet normal 1 0 0
    outer loop
      vertex 0 140 32
      vertex 0 61.3135 39.3791
      vertex 0 25.552 32
    endloop
  endfacet
  facet normal 1 0 0
    outer loop
      vertex 0 15.5222 67.8052
      vertex 0 24.5811 66.019
      vertex 0 24.3647 66.8691
    endloop
  endfacet
  facet normal 1 0 0
    outer loop
      vertex 0 15.5222 67.8052
      vertex 0 26.3255 63.5337
      vertex 0 24.5811 66.019
    endloop
  endfacet
  facet normal 1 0 0
    outer loop
      vertex 0 15.5222 67.8052
      vertex 0 14.1315 51.5108
      vertex 0 26.3255 63.5337
    endloop
  endfacet
  facet normal 1 0 0
    outer loop
      vertex 0 9.57304 68.7119
      vertex 0 14.1315 51.5108
      vertex 0 15.5222 67.8052
    endloop
  endfacet
  facet normal 1 0 0
    outer loop
      vertex 0 -3.78475 70.6305
      vertex 0 14.1315 51.5108
      vertex 0 9.57304 68.7119
    endloop
  endfacet
  facet normal 1 0 0
    outer loop
      vertex 0 -30 43.7292
      vertex 0 -3.78475 70.6305
      vertex 0 -8.44031 71.1634
    endloop
  endfacet
  facet normal 1 0 0
    outer loop
      vertex 0 -30 43.7292
      vertex 0 -8.44031 71.1634
      vertex 0 -23.1345 74.032
    endloop
  endfacet
  facet normal 1 0 0
    outer loop
      vertex 0 -3.78475 70.6305
      vertex 0 -30 43.7292
      vertex 0 14.1315 51.5108
    endloop
  endfacet
  facet normal 1 0 0
    outer loop
      vertex 0 -30 43.7292
      vertex 0 -23.1345 74.032
      vertex 0 -30 79.2267
    endloop
  endfacet
  facet normal 0 1 -0
    outer loop
      vertex 0 140 32
      vertex -19.3202 140 45.3645
      vertex 0 140 48.2921
    endloop
  endfacet
  facet normal 0 1 0
    outer loop
      vertex -30 140 32
      vertex -19.3202 140 45.3645
      vertex 0 140 32
    endloop
  endfacet
  facet normal 0 1 -0
    outer loop
      vertex -30 140 32
      vertex -33.7612 140 42.1572
      vertex -26.3677 140 43.1269
    endloop
  endfacet
  facet normal 0 1 0
    outer loop
      vertex -40 140 30
      vertex -43.7398 140 40.0479
      vertex -40.2884 140 40.581
    endloop
  endfacet
  facet normal 0 1 0
    outer loop
      vertex -33.7612 140 42.1572
      vertex -30 140 32
      vertex -40.2884 140 40.581
    endloop
  endfacet
  facet normal 0 1 0
    outer loop
      vertex -43.7398 140 40.0479
      vertex -40 140 30
      vertex -49.9769 140 38.7654
    endloop
  endfacet
  facet normal 0 1 0
    outer loop
      vertex -85 140 28
      vertex -78.3504 140 34.9143
      vertex -54.4108 140 37.9513
    endloop
  endfacet
  facet normal 0 1 0
    outer loop
      vertex -19.3202 140 45.3645
      vertex -30 140 32
      vertex -22.5619 140 44.1692
    endloop
  endfacet
  facet normal 0 1 0
    outer loop
      vertex -22.5619 140 44.1692
      vertex -30 140 32
      vertex -26.3677 140 43.1269
    endloop
  endfacet
  facet normal 0 1 0
    outer loop
      vertex -40.2884 140 40.581
      vertex -30 140 32
      vertex -40 140 30
    endloop
  endfacet
  facet normal 0 1 0
    outer loop
      vertex -49.9769 140 38.7654
      vertex -40 140 30
      vertex -53.0865 140 38.1824
    endloop
  endfacet
  facet normal 0 1 -0
    outer loop
      vertex -40 140 28
      vertex -53.0865 140 38.1824
      vertex -40 140 30
    endloop
  endfacet
  facet normal 0 1 0
    outer loop
      vertex -53.0865 140 38.1824
      vertex -40 140 28
      vertex -54.4108 140 37.9513
    endloop
  endfacet
  facet normal 0 1 0
    outer loop
      vertex -40 140 30
      vertex -30 140 32
      vertex -30 140 30
    endloop
  endfacet
  facet normal 0 1 0
    outer loop
      vertex -78.3504 140 34.9143
      vertex -85 140 28
      vertex -91.7094 140 32.054
    endloop
  endfacet
  facet normal 0 1 0
    outer loop
      vertex -91.7094 140 32.054
      vertex -85 140 28
      vertex -95.4322 140 31.2965
    endloop
  endfacet
  facet normal 0 1 0
    outer loop
      vertex -54.4108 140 37.9513
      vertex -40 140 28
      vertex -85 140 28
    endloop
  endfacet
  facet normal 0 1 -0
    outer loop
      vertex -85 140 20
      vertex -95.4322 140 31.2965
      vertex -85 140 28
    endloop
  endfacet
  facet normal 0 1 0
    outer loop
      vertex -95.4322 140 31.2965
      vertex -85 140 20
      vertex -98.9118 140 29.1316
    endloop
  endfacet
  facet normal 0 1 0
    outer loop
      vertex -98.9118 140 29.1316
      vertex -85 140 20
      vertex -110.603 140 26.2025
    endloop
  endfacet
  facet normal 0 1 0
    outer loop
      vertex -110.603 140 26.2025
      vertex -85 140 20
      vertex -113.877 140 25.0881
    endloop
  endfacet
  facet normal 0 1 0
    outer loop
      vertex -113.877 140 25.0881
      vertex -85 140 20
      vertex -116.586 140 24.0618
    endloop
  endfacet
  facet normal 0 1 0
    outer loop
      vertex -116.586 140 24.0618
      vertex -85 140 20
      vertex -124.505 140 20
    endloop
  endfacet
endsolid OpenSCAD_Model
