solid OpenSCAD_Model
  facet normal 0 0 -1
    outer loop
      vertex -98.9938 156.172 20
      vertex -85 170 20
      vertex -85 140 20
    endloop
  endfacet
  facet normal -0 0 -1
    outer loop
      vertex -85 170 20
      vertex -98.9938 156.172 20
      vertex -88.9949 177.261 20
    endloop
  endfacet
  facet normal 0 0 -1
    outer loop
      vertex -85 140 20
      vertex -113.649 147.975 20
      vertex -98.9938 156.172 20
    endloop
  endfacet
  facet normal 0 0 -1
    outer loop
      vertex -85 140 20
      vertex -116.546 146.214 20
      vertex -113.649 147.975 20
    endloop
  endfacet
  facet normal 0 0 -1
    outer loop
      vertex -85 140 20
      vertex -120.094 143.673 20
      vertex -116.546 146.214 20
    endloop
  endfacet
  facet normal 0 -0 -1
    outer loop
      vertex -120.094 143.673 20
      vertex -85 140 20
      vertex -124.505 140 20
    endloop
  endfacet
  facet normal 0 0 -1
    outer loop
      vertex -80.5877 194.969 20
      vertex -40 240 20
      vertex -40 170 20
    endloop
  endfacet
  facet normal 0 0 -1
    outer loop
      vertex -40 240 20
      vertex -54.4675 248.317 20
      vertex -40.5381 269.046 20
    endloop
  endfacet
  facet normal -0 0 -1
    outer loop
      vertex -40 240 20
      vertex -80.5877 194.969 20
      vertex -54.4675 248.317 20
    endloop
  endfacet
  facet normal 0 0 -1
    outer loop
      vertex -85 170 20
      vertex -80.5877 194.969 20
      vertex -40 170 20
    endloop
  endfacet
  facet normal 0 0 -1
    outer loop
      vertex -80.5877 194.969 20
      vertex -85 170 20
      vertex -88.9949 177.261 20
    endloop
  endfacet
  facet normal 0 0 -1
    outer loop
      vertex -40 240 20
      vertex -30 260 20
      vertex -30 240 20
    endloop
  endfacet
  facet normal 0 0 -1
    outer loop
      vertex -30 260 20
      vertex -40.5381 269.046 20
      vertex -39.0335 270.945 20
    endloop
  endfacet
  facet normal -0 0 -1
    outer loop
      vertex -30 260 20
      vertex -40 240 20
      vertex -40.5381 269.046 20
    endloop
  endfacet
  facet normal 0 0 -1
    outer loop
      vertex -39.0335 270.945 20
      vertex -40.5381 269.046 20
      vertex -39.9306 269.97 20
    endloop
  endfacet
  facet normal 0 0 -1
    outer loop
      vertex 20 260 20
      vertex 1.7 280 20
      vertex 20 285.485 20
    endloop
  endfacet
  facet normal 0 0 -1
    outer loop
      vertex 20 260 20
      vertex 0.849999 278.528 20
      vertex 1.7 280 20
    endloop
  endfacet
  facet normal 0 0 -1
    outer loop
      vertex 20 260 20
      vertex -0.849999 278.528 20
      vertex 0.849999 278.528 20
    endloop
  endfacet
  facet normal 0 0 -1
    outer loop
      vertex -0.849999 278.528 20
      vertex -21.7236 285.378 20
      vertex -1.7 280 20
    endloop
  endfacet
  facet normal 0 0 -1
    outer loop
      vertex -30 260 20
      vertex -0.849999 278.528 20
      vertex 20 260 20
    endloop
  endfacet
  facet normal -0 0 -1
    outer loop
      vertex -0.849999 278.528 20
      vertex -30 260 20
      vertex -21.7236 285.378 20
    endloop
  endfacet
  facet normal 0 0 -1
    outer loop
      vertex -21.7236 285.378 20
      vertex -30 260 20
      vertex -25.265 284.501 20
    endloop
  endfacet
  facet normal 0 0 -1
    outer loop
      vertex -25.265 284.501 20
      vertex -30 260 20
      vertex -39.0335 270.945 20
    endloop
  endfacet
  facet normal 0 0 -1
    outer loop
      vertex 0.849999 281.472 20
      vertex 20 285.485 20
      vertex 1.7 280 20
    endloop
  endfacet
  facet normal 0 0 -1
    outer loop
      vertex 0.849999 281.472 20
      vertex 0.32135 292.223 20
      vertex 20 285.485 20
    endloop
  endfacet
  facet normal 0 0 -1
    outer loop
      vertex -0.849999 281.472 20
      vertex 0.32135 292.223 20
      vertex 0.849999 281.472 20
    endloop
  endfacet
  facet normal 0 0 -1
    outer loop
      vertex -21.7236 285.378 20
      vertex -0.849999 281.472 20
      vertex -1.7 280 20
    endloop
  endfacet
  facet normal 0 0 -1
    outer loop
      vertex -0.849999 281.472 20
      vertex -21.7236 285.378 20
      vertex 0.32135 292.223 20
    endloop
  endfacet
  facet normal -0.711856 0.602132 0.361522
    outer loop
      vertex -25.1736 279.82 34.8236
      vertex -25.2534 284.624 26.6657
      vertex -40.2246 267.971 24.9232
    endloop
  endfacet
  facet normal -0.710847 0.609199 0.35153
    outer loop
      vertex -39.9776 263.674 32.8697
      vertex -25.1736 279.82 34.8236
      vertex -40.2246 267.971 24.9232
    endloop
  endfacet
  facet normal -0.879326 0.430537 0.203529
    outer loop
      vertex -54.4109 246.929 23.1806
      vertex -54.4675 248.317 20
      vertex -80.5877 194.969 20
    endloop
  endfacet
  facet normal -0.830345 0.394211 0.393859
    outer loop
      vertex -80.5877 194.969 20
      vertex -54.6822 241.88 27.6619
      vertex -54.4109 246.929 23.1806
    endloop
  endfacet
  facet normal -0.830345 0.394211 0.393858
    outer loop
      vertex -54.6822 241.88 27.6619
      vertex -80.5877 194.969 20
      vertex -88.9949 177.261 20
    endloop
  endfacet
  facet normal -0.829108 0.393117 0.397542
    outer loop
      vertex -98.9608 154.21 22.009
      vertex -88.9949 177.261 20
      vertex -98.9938 156.172 20
    endloop
  endfacet
  facet normal -0.829108 0.393117 0.397542
    outer loop
      vertex -88.9949 177.261 20
      vertex -98.9608 154.21 22.009
      vertex -54.6822 241.88 27.6619
    endloop
  endfacet
  facet normal -0.370074 0.66159 0.652184
    outer loop
      vertex -113.649 147.975 20
      vertex -98.9608 154.21 22.009
      vertex -98.9938 156.172 20
    endloop
  endfacet
  facet normal -0.370074 0.661588 0.652186
    outer loop
      vertex -98.9608 154.21 22.009
      vertex -113.649 147.975 20
      vertex -116.519 145.936 20.4399
    endloop
  endfacet
  facet normal -0.450814 0.741675 0.496673
    outer loop
      vertex -116.519 145.936 20.4399
      vertex -113.649 147.975 20
      vertex -116.546 146.214 20
    endloop
  endfacet
  facet normal -0.510186 0.712408 0.481855
    outer loop
      vertex -116.519 145.936 20.4399
      vertex -116.546 146.214 20
      vertex -120.094 143.673 20
    endloop
  endfacet
  facet normal -0.400205 0.480632 0.780275
    outer loop
      vertex -120.094 143.673 20
      vertex -116.586 140 24.0618
      vertex -116.519 145.936 20.4399
    endloop
  endfacet
  facet normal -0.400206 0.480631 0.780275
    outer loop
      vertex -116.586 140 24.0618
      vertex -120.094 143.673 20
      vertex -124.505 140 20
    endloop
  endfacet
  facet normal -0.702406 0.352722 0.618233
    outer loop
      vertex -98.9218 145.067 27.2697
      vertex -54.3426 223.86 32.9644
      vertex -98.9608 154.21 22.009
    endloop
  endfacet
  facet normal -0.550344 0.226133 0.803732
    outer loop
      vertex -54.3426 223.86 32.9644
      vertex -54.6822 241.88 27.6619
      vertex -98.9608 154.21 22.009
    endloop
  endfacet
  facet normal -0.307251 0.498205 0.810795
    outer loop
      vertex -116.519 145.936 20.4399
      vertex -113.877 140 25.0881
      vertex -98.9608 154.21 22.009
    endloop
  endfacet
  facet normal -0.30725 0.498205 0.810795
    outer loop
      vertex -113.877 140 25.0881
      vertex -116.519 145.936 20.4399
      vertex -116.586 140 24.0618
    endloop
  endfacet
  facet normal -0.283094 0.477405 0.831831
    outer loop
      vertex -98.9608 154.21 22.009
      vertex -110.603 140 26.2025
      vertex -98.9218 145.067 27.2697
    endloop
  endfacet
  facet normal -0.283094 0.477405 0.83183
    outer loop
      vertex -110.603 140 26.2025
      vertex -98.9608 154.21 22.009
      vertex -113.877 140 25.0881
    endloop
  endfacet
  facet normal -0.228957 0.335333 0.913855
    outer loop
      vertex -98.9118 140 29.1316
      vertex -98.9218 145.067 27.2697
      vertex -110.603 140 26.2025
    endloop
  endfacet
  facet normal -0.50444 0.296918 0.81079
    outer loop
      vertex -98.9218 145.067 27.2697
      vertex -95.4322 140 31.2965
      vertex -54.3585 196.341 36.2183
    endloop
  endfacet
  facet normal -0.50444 0.296918 0.81079
    outer loop
      vertex -95.4322 140 31.2965
      vertex -98.9218 145.067 27.2697
      vertex -98.9118 140 29.1316
    endloop
  endfacet
  facet normal -0.317425 0.111531 0.941702
    outer loop
      vertex -54.3585 196.341 36.2183
      vertex -54.3426 223.86 32.9644
      vertex -98.9218 145.067 27.2697
    endloop
  endfacet
  facet normal -0.823506 0.541065 0.170549
    outer loop
      vertex -40.5381 269.046 20
      vertex -40.2246 267.971 24.9232
      vertex -39.9306 269.97 20
    endloop
  endfacet
  facet normal -0.823502 0.541071 0.17055
    outer loop
      vertex -40.2246 267.971 24.9232
      vertex -40.5381 269.046 20
      vertex -54.4109 246.929 23.1806
    endloop
  endfacet
  facet normal -0.803656 0.540045 0.249976
    outer loop
      vertex -54.4109 246.929 23.1806
      vertex -40.5381 269.046 20
      vertex -54.4675 248.317 20
    endloop
  endfacet
  facet normal -0.716749 0.659963 0.225209
    outer loop
      vertex -40.2246 267.971 24.9232
      vertex -39.0335 270.945 20
      vertex -39.9306 269.97 20
    endloop
  endfacet
  facet normal -0.716747 0.659965 0.225211
    outer loop
      vertex -39.0335 270.945 20
      vertex -40.2246 267.971 24.9232
      vertex -25.3332 285.081 22.1768
    endloop
  endfacet
  facet normal -0.745422 0.661706 0.0805696
    outer loop
      vertex -25.2534 284.624 26.6657
      vertex -25.3332 285.081 22.1768
      vertex -40.2246 267.971 24.9232
    endloop
  endfacet
  facet normal -0.790892 0.429457 0.435955
    outer loop
      vertex -39.9776 263.674 32.8697
      vertex -54.4109 246.929 23.1806
      vertex -54.6822 241.88 27.6619
    endloop
  endfacet
  facet normal -0.801504 0.515228 0.303533
    outer loop
      vertex -39.9776 263.674 32.8697
      vertex -40.2246 267.971 24.9232
      vertex -54.4109 246.929 23.1806
    endloop
  endfacet
  facet normal -0.208775 0.0751252 0.975074
    outer loop
      vertex -78.3504 140 34.9143
      vertex -54.6221 164.543 38.1039
      vertex -91.7094 140 32.054
    endloop
  endfacet
  facet normal -0.199042 0.0596548 0.978174
    outer loop
      vertex -54.3585 196.341 36.2183
      vertex -91.7094 140 32.054
      vertex -54.6221 164.543 38.1039
    endloop
  endfacet
  facet normal -0.199042 0.0596548 0.978174
    outer loop
      vertex -91.7094 140 32.054
      vertex -54.3585 196.341 36.2183
      vertex -95.4322 140 31.2965
    endloop
  endfacet
  facet normal -0.125847 -0.00725144 0.992023
    outer loop
      vertex -54.4108 140 37.9513
      vertex -54.6221 164.543 38.1039
      vertex -78.3504 140 34.9143
    endloop
  endfacet
  facet normal -0.43783 0.29881 0.847949
    outer loop
      vertex -39.7043 246.714 38.9873
      vertex -25.1736 279.82 34.8236
      vertex -39.9776 263.674 32.8697
    endloop
  endfacet
  facet normal -0.582822 0.348148 0.734242
    outer loop
      vertex -25.0661 265.251 41.8172
      vertex -25.1736 279.82 34.8236
      vertex -39.7043 246.714 38.9873
    endloop
  endfacet
  facet normal -0.668387 0.242833 0.703059
    outer loop
      vertex -39.7043 246.714 38.9873
      vertex -39.9776 263.674 32.8697
      vertex -54.3426 223.86 32.9644
    endloop
  endfacet
  facet normal -0.595037 0.216536 0.773979
    outer loop
      vertex -54.3426 223.86 32.9644
      vertex -39.9776 263.674 32.8697
      vertex -54.6822 241.88 27.6619
    endloop
  endfacet
  facet normal -0.453994 0.226972 0.861611
    outer loop
      vertex -24.9586 240.725 48.3347
      vertex -25.0661 265.251 41.8172
      vertex -39.7043 246.714 38.9873
    endloop
  endfacet
  facet normal -0.505159 0.0950168 0.85778
    outer loop
      vertex -39.3568 214.528 42.7572
      vertex -24.9586 240.725 48.3347
      vertex -39.7043 246.714 38.9873
    endloop
  endfacet
  facet normal -0.493186 0.0959469 0.864617
    outer loop
      vertex -39.3568 214.528 42.7572
      vertex -39.7043 246.714 38.9873
      vertex -54.3585 196.341 36.2183
    endloop
  endfacet
  facet normal -0.509704 0.101316 0.854364
    outer loop
      vertex -39.7043 246.714 38.9873
      vertex -54.3426 223.86 32.9644
      vertex -54.3585 196.341 36.2183
    endloop
  endfacet
  facet normal -0.352731 -0.00535228 0.93571
    outer loop
      vertex -25.4875 197.559 47.8884
      vertex -24.9586 240.725 48.3347
      vertex -39.3568 214.528 42.7572
    endloop
  endfacet
  facet normal -0.392366 -0.0428584 0.91881
    outer loop
      vertex -25.4875 197.559 47.8884
      vertex -39.3568 214.528 42.7572
      vertex -40.5453 181.051 40.6881
    endloop
  endfacet
  facet normal -0.114968 -0.0572127 0.99172
    outer loop
      vertex -40.5453 181.051 40.6881
      vertex -39.3568 214.528 42.7572
      vertex -54.6221 164.543 38.1039
    endloop
  endfacet
  facet normal -0.45566 0.0564562 0.888362
    outer loop
      vertex -39.3568 214.528 42.7572
      vertex -54.3585 196.341 36.2183
      vertex -54.6221 164.543 38.1039
    endloop
  endfacet
  facet normal -0.340699 -0.0971105 0.935144
    outer loop
      vertex -26.0164 162.971 44.1039
      vertex -25.4875 197.559 47.8884
      vertex -40.5453 181.051 40.6881
    endloop
  endfacet
  facet normal -0.233837 -0.00422632 0.972267
    outer loop
      vertex -40.1954 149.378 40.6346
      vertex -26.0164 162.971 44.1039
      vertex -40.5453 181.051 40.6881
    endloop
  endfacet
  facet normal -0.184275 -0.00369682 0.982868
    outer loop
      vertex -53.0865 140 38.1824
      vertex -40.1954 149.378 40.6346
      vertex -40.5453 181.051 40.6881
    endloop
  endfacet
  facet normal -0.184275 -0.00369685 0.982868
    outer loop
      vertex -40.1954 149.378 40.6346
      vertex -53.0865 140 38.1824
      vertex -49.9769 140 38.7654
    endloop
  endfacet
  facet normal -0.171925 -0.00760494 0.985081
    outer loop
      vertex -54.6221 164.543 38.1039
      vertex -53.0865 140 38.1824
      vertex -40.5453 181.051 40.6881
    endloop
  endfacet
  facet normal -0.171927 -0.00760505 0.98508
    outer loop
      vertex -53.0865 140 38.1824
      vertex -54.6221 164.543 38.1039
      vertex -54.4108 140 37.9513
    endloop
  endfacet
  facet normal -0.234736 -0.00323518 0.972054
    outer loop
      vertex -40.1954 149.378 40.6346
      vertex -33.7612 140 42.1572
      vertex -26.0164 162.971 44.1039
    endloop
  endfacet
  facet normal -0.234735 -0.00323496 0.972054
    outer loop
      vertex -33.7612 140 42.1572
      vertex -40.1954 149.378 40.6346
      vertex -40.2884 140 40.581
    endloop
  endfacet
  facet normal -0.129937 -0.0401493 0.990709
    outer loop
      vertex -26.3677 140 43.1269
      vertex -26.0164 162.971 44.1039
      vertex -33.7612 140 42.1572
    endloop
  endfacet
  facet normal -0.152636 -0.00414152 0.988274
    outer loop
      vertex -40.2884 140 40.581
      vertex -40.1954 149.378 40.6346
      vertex -43.7398 140 40.0479
    endloop
  endfacet
  facet normal -0.201382 0.0148382 0.9794
    outer loop
      vertex -43.7398 140 40.0479
      vertex -40.1954 149.378 40.6346
      vertex -49.9769 140 38.7654
    endloop
  endfacet
  facet normal -0.241847 0.96489 0.102461
    outer loop
      vertex -25.2534 284.624 26.6657
      vertex 0.32135 290.711 29.7114
      vertex -25.3332 285.081 22.1768
    endloop
  endfacet
  facet normal -0.30683 0.864063 0.399063
    outer loop
      vertex 0.32135 290.711 29.7114
      vertex 0.32135 293.562 23.5387
      vertex -25.3332 285.081 22.1768
    endloop
  endfacet
  facet normal -0.254162 0.785684 0.564006
    outer loop
      vertex 0.32135 285.013 37.6489
      vertex 0.32135 290.711 29.7114
      vertex -25.2534 284.624 26.6657
    endloop
  endfacet
  facet normal -0.225737 0.838498 0.495948
    outer loop
      vertex -25.1736 279.82 34.8236
      vertex 0.32135 285.013 37.6489
      vertex -25.2534 284.624 26.6657
    endloop
  endfacet
  facet normal -0.20642 0.422186 0.882695
    outer loop
      vertex -25.0661 265.251 41.8172
      vertex 0.32135 274.386 43.3847
      vertex -25.1736 279.82 34.8236
    endloop
  endfacet
  facet normal -0.190694 0.466272 0.863844
    outer loop
      vertex 0.32135 285.013 37.6489
      vertex -0.927051 282.853 38.5391
      vertex 0.32135 282.853 38.8147
    endloop
  endfacet
  facet normal -0.1907 0.466275 0.863841
    outer loop
      vertex 0.32135 285.013 37.6489
      vertex -2.42705 281.763 38.7962
      vertex -0.927051 282.853 38.5391
    endloop
  endfacet
  facet normal -0.190695 0.466268 0.863846
    outer loop
      vertex -2.42705 281.763 38.7962
      vertex -25.1736 279.82 34.8236
      vertex -3 280 39.6215
    endloop
  endfacet
  facet normal -0.190695 0.466272 0.863844
    outer loop
      vertex -25.1736 279.82 34.8236
      vertex -2.42705 281.763 38.7962
      vertex 0.32135 285.013 37.6489
    endloop
  endfacet
  facet normal -0.190694 0.466271 0.863844
    outer loop
      vertex -0.927051 277.147 41.6191
      vertex 0.32135 274.386 43.3847
      vertex 0.32135 277.147 41.8947
    endloop
  endfacet
  facet normal -0.190696 0.466271 0.863844
    outer loop
      vertex -2.42705 278.237 40.6998
      vertex 0.32135 274.386 43.3847
      vertex -0.927051 277.147 41.6191
    endloop
  endfacet
  facet normal -0.190694 0.466272 0.863844
    outer loop
      vertex -2.42705 278.237 40.6998
      vertex -25.1736 279.82 34.8236
      vertex 0.32135 274.386 43.3847
    endloop
  endfacet
  facet normal -0.190695 0.466268 0.863846
    outer loop
      vertex -25.1736 279.82 34.8236
      vertex -2.42705 278.237 40.6998
      vertex -3 280 39.6215
    endloop
  endfacet
  facet normal -0.164673 0.2962 0.940823
    outer loop
      vertex 0.32135 256.168 49.1204
      vertex 0.32135 274.386 43.3847
      vertex -25.0661 265.251 41.8172
    endloop
  endfacet
  facet normal -0.183307 0.251722 0.950281
    outer loop
      vertex -24.9586 240.725 48.3347
      vertex 0.32135 256.168 49.1204
      vertex -25.0661 265.251 41.8172
    endloop
  endfacet
  facet normal -0.0249405 -0.0100298 0.999639
    outer loop
      vertex 0.32135 256.168 49.1204
      vertex -24.9586 240.725 48.3347
      vertex -25.4875 197.559 47.8884
    endloop
  endfacet
  facet normal -0.463322 0.185814 0.86649
    outer loop
      vertex 0.32135 233.825 53.9116
      vertex 0.32135 256.168 49.1204
      vertex -25.4875 197.559 47.8884
    endloop
  endfacet
  facet normal -0.270744 -0.0325356 0.962101
    outer loop
      vertex 0.32135 206.738 52.9956
      vertex 0.32135 233.825 53.9116
      vertex -26.0164 162.971 44.1039
    endloop
  endfacet
  facet normal -0.0806413 -0.107195 0.990962
    outer loop
      vertex 0.32135 233.825 53.9116
      vertex -25.4875 197.559 47.8884
      vertex -26.0164 162.971 44.1039
    endloop
  endfacet
  facet normal -0.263979 -0.0369559 0.96382
    outer loop
      vertex -26.0164 162.971 44.1039
      vertex -22.5619 140 44.1692
      vertex 0.32135 206.738 52.9956
    endloop
  endfacet
  facet normal -0.263978 -0.0369558 0.96382
    outer loop
      vertex -22.5619 140 44.1692
      vertex -26.0164 162.971 44.1039
      vertex -26.3677 140 43.1269
    endloop
  endfacet
  facet normal -0.345944 -0.00546794 0.938239
    outer loop
      vertex -22.5619 140 44.1692
      vertex 0.32135 171.582 52.7907
      vertex 0.32135 206.738 52.9956
    endloop
  endfacet
  facet normal -0.345945 -0.00546784 0.938239
    outer loop
      vertex 0.32135 171.582 52.7907
      vertex -22.5619 140 44.1692
      vertex -19.3202 140 45.3645
    endloop
  endfacet
  facet normal -0.148389 -0.137977 0.979256
    outer loop
      vertex 0.32135 140 48.3408
      vertex 0.32135 171.582 52.7907
      vertex -19.3202 140 45.3645
    endloop
  endfacet
  facet normal 0.148747 -0.137969 0.979203
    outer loop
      vertex 0.32135 140 48.3408
      vertex 20 140.003 45.3519
      vertex 0.32135 171.582 52.7907
    endloop
  endfacet
  facet normal 0.148739 -0.138358 0.97915
    outer loop
      vertex 20 140.003 45.3519
      vertex 0.32135 140 48.3408
      vertex 20 140 45.3515
    endloop
  endfacet
  facet normal 0.331421 0.856545 0.39559
    outer loop
      vertex 20 285.765 23.9334
      vertex 0.32135 293.562 23.5387
      vertex 0.32135 290.711 29.7114
    endloop
  endfacet
  facet normal 0.331419 0.85654 0.395601
    outer loop
      vertex 0.32135 293.562 23.5387
      vertex 20 285.765 23.9334
      vertex 20 286.429 22.4956
    endloop
  endfacet
  facet normal 0.270586 0.957256 0.102196
    outer loop
      vertex 20 285.398 27.3694
      vertex 20 285.765 23.9334
      vertex 0.32135 290.711 29.7114
    endloop
  endfacet
  facet normal 0.222785 0.878633 0.42234
    outer loop
      vertex 20 281.071 35.4697
      vertex 20 284.085 29.1993
      vertex 0.32135 285.013 37.6489
    endloop
  endfacet
  facet normal 0.277382 0.780483 0.560273
    outer loop
      vertex 20 284.085 29.1993
      vertex 0.32135 290.711 29.7114
      vertex 0.32135 285.013 37.6489
    endloop
  endfacet
  facet normal 0.277382 0.780484 0.560272
    outer loop
      vertex 0.32135 290.711 29.7114
      vertex 20 284.085 29.1993
      vertex 20 285.398 27.3694
    endloop
  endfacet
  facet normal 0.189128 0.466415 0.864111
    outer loop
      vertex 20 281.071 35.4697
      vertex 3 280 39.7684
      vertex 20 278.646 36.7782
    endloop
  endfacet
  facet normal 0.189128 0.466411 0.864113
    outer loop
      vertex 20 281.071 35.4697
      vertex 2.42705 281.763 38.942
      vertex 3 280 39.7684
    endloop
  endfacet
  facet normal 0.189128 0.466416 0.86411
    outer loop
      vertex 0.32135 285.013 37.6489
      vertex 2.42705 281.763 38.942
      vertex 20 281.071 35.4697
    endloop
  endfacet
  facet normal 0.189127 0.466416 0.864111
    outer loop
      vertex 2.42705 281.763 38.942
      vertex 0.32135 285.013 37.6489
      vertex 0.927051 282.853 38.6821
    endloop
  endfacet
  facet normal 0.189131 0.466416 0.86411
    outer loop
      vertex 0.927051 282.853 38.6821
      vertex 0.32135 285.013 37.6489
      vertex 0.32135 282.853 38.8147
    endloop
  endfacet
  facet normal 0.189128 0.466412 0.864112
    outer loop
      vertex 2.42705 278.237 40.8456
      vertex 20 278.646 36.7782
      vertex 3 280 39.7684
    endloop
  endfacet
  facet normal 0.189128 0.466415 0.864111
    outer loop
      vertex 0.32135 274.386 43.3847
      vertex 2.42705 278.237 40.8456
      vertex 0.927051 277.147 41.7622
    endloop
  endfacet
  facet normal 0.189127 0.466415 0.864111
    outer loop
      vertex 2.42705 278.237 40.8456
      vertex 0.32135 274.386 43.3847
      vertex 20 278.646 36.7782
    endloop
  endfacet
  facet normal 0.189126 0.466415 0.864111
    outer loop
      vertex 0.32135 274.386 43.3847
      vertex 0.927051 277.147 41.7622
      vertex 0.32135 277.147 41.8947
    endloop
  endfacet
  facet normal 0.213506 0.397617 0.892365
    outer loop
      vertex 20 267.371 41.8022
      vertex 20 278.646 36.7782
      vertex 0.32135 274.386 43.3847
    endloop
  endfacet
  facet normal 0.199593 0.250839 0.947229
    outer loop
      vertex 20 244.213 48.1397
      vertex 20 263.275 43.092
      vertex 0.32135 256.168 49.1204
    endloop
  endfacet
  facet normal 0.180731 0.295353 0.938138
    outer loop
      vertex 0.32135 274.386 43.3847
      vertex 20 263.275 43.092
      vertex 20 267.371 41.8022
    endloop
  endfacet
  facet normal 0.180732 0.295354 0.938137
    outer loop
      vertex 20 263.275 43.092
      vertex 0.32135 274.386 43.3847
      vertex 0.32135 256.168 49.1204
    endloop
  endfacet
  facet normal 0.475123 0.184499 0.860359
    outer loop
      vertex 0.32135 233.825 53.9116
      vertex 20 211.545 47.8222
      vertex 0.32135 256.168 49.1204
    endloop
  endfacet
  facet normal 0.475123 0.184499 0.860359
    outer loop
      vertex 20 211.545 47.8222
      vertex 0.32135 233.825 53.9116
      vertex 20 206.238 48.9602
    endloop
  endfacet
  facet normal 0.0438843 -0.0097101 0.998989
    outer loop
      vertex 20 211.545 47.8222
      vertex 20 244.213 48.1397
      vertex 0.32135 256.168 49.1204
    endloop
  endfacet
  facet normal 0.345899 -0.00546804 0.938256
    outer loop
      vertex 0.32135 171.582 52.7907
      vertex 20 149.409 45.4067
      vertex 0.32135 206.738 52.9956
    endloop
  endfacet
  facet normal 0.345899 -0.00546782 0.938256
    outer loop
      vertex 20 149.409 45.4067
      vertex 0.32135 171.582 52.7907
      vertex 20 140.003 45.3519
    endloop
  endfacet
  facet normal 0.336935 -0.00897235 0.941485
    outer loop
      vertex 20 149.409 45.4067
      vertex 20 174.1 45.6421
      vertex 0.32135 206.738 52.9956
    endloop
  endfacet
  facet normal 0.0796657 -0.120767 0.989479
    outer loop
      vertex 20 180.949 45.8737
      vertex 20 206.238 48.9602
      vertex 0.32135 233.825 53.9116
    endloop
  endfacet
  facet normal 0.302539 -0.0322141 0.952592
    outer loop
      vertex 0.32135 206.738 52.9956
      vertex 20 180.949 45.8737
      vertex 0.32135 233.825 53.9116
    endloop
  endfacet
  facet normal 0.302539 -0.0322142 0.952592
    outer loop
      vertex 20 180.949 45.8737
      vertex 0.32135 206.738 52.9956
      vertex 20 174.1 45.6421
    endloop
  endfacet
  facet normal 0.304981 0.890738 -0.337005
    outer loop
      vertex 0.32135 292.223 20
      vertex 20 286.429 22.4956
      vertex 20 285.485 20
    endloop
  endfacet
  facet normal 0.304981 0.890737 -0.337007
    outer loop
      vertex 20 286.429 22.4956
      vertex 0.32135 292.223 20
      vertex 0.32135 293.562 23.5387
    endloop
  endfacet
  facet normal -0.232246 0.938082 -0.25703
    outer loop
      vertex -21.7236 285.378 20
      vertex -25.265 284.501 20
      vertex -25.3332 285.081 22.1768
    endloop
  endfacet
  facet normal -0.278888 0.898187 -0.339825
    outer loop
      vertex -21.7236 285.378 20
      vertex 0.32135 293.562 23.5387
      vertex 0.32135 292.223 20
    endloop
  endfacet
  facet normal -0.278889 0.898189 -0.33982
    outer loop
      vertex 0.32135 293.562 23.5387
      vertex -21.7236 285.378 20
      vertex -25.3332 285.081 22.1768
    endloop
  endfacet
  facet normal -0.686392 0.697119 -0.207102
    outer loop
      vertex -25.3332 285.081 22.1768
      vertex -25.265 284.501 20
      vertex -39.0335 270.945 20
    endloop
  endfacet
  facet normal 1 -0 0
    outer loop
      vertex -85 140 28
      vertex -85 170 20
      vertex -85 170 28
    endloop
  endfacet
  facet normal 1 0 0
    outer loop
      vertex -85 170 20
      vertex -85 140 28
      vertex -85 140 20
    endloop
  endfacet
  facet normal 0 0 -1
    outer loop
      vertex -85 140 28
      vertex -40 170 28
      vertex -40 140 28
    endloop
  endfacet
  facet normal -0 0 -1
    outer loop
      vertex -40 170 28
      vertex -85 140 28
      vertex -85 170 28
    endloop
  endfacet
  facet normal 0 -1 0
    outer loop
      vertex -85 170 20
      vertex -40 170 28
      vertex -85 170 28
    endloop
  endfacet
  facet normal 0 -1 -0
    outer loop
      vertex -40 170 28
      vertex -85 170 20
      vertex -40 170 20
    endloop
  endfacet
  facet normal 1 0 0
    outer loop
      vertex -40 240 30
      vertex -40 170 28
      vertex -40 240 20
    endloop
  endfacet
  facet normal 1 -0 0
    outer loop
      vertex -40 140 30
      vertex -40 170 28
      vertex -40 240 30
    endloop
  endfacet
  facet normal 1 0 0
    outer loop
      vertex -40 170 28
      vertex -40 140 30
      vertex -40 140 28
    endloop
  endfacet
  facet normal 1 0 0
    outer loop
      vertex -40 240 20
      vertex -40 170 28
      vertex -40 170 20
    endloop
  endfacet
  facet normal 0 0 -1
    outer loop
      vertex -40 140 30
      vertex -30 240 30
      vertex -30 140 30
    endloop
  endfacet
  facet normal -0 0 -1
    outer loop
      vertex -30 240 30
      vertex -40 140 30
      vertex -40 240 30
    endloop
  endfacet
  facet normal 0 -1 0
    outer loop
      vertex -40 240 20
      vertex -30 240 30
      vertex -40 240 30
    endloop
  endfacet
  facet normal 0 -1 -0
    outer loop
      vertex -30 240 30
      vertex -40 240 20
      vertex -30 240 20
    endloop
  endfacet
  facet normal 1 0 0
    outer loop
      vertex -30 260 32
      vertex -30 240 30
      vertex -30 260 20
    endloop
  endfacet
  facet normal 1 -0 0
    outer loop
      vertex -30 140 32
      vertex -30 240 30
      vertex -30 260 32
    endloop
  endfacet
  facet normal 1 0 0
    outer loop
      vertex -30 240 30
      vertex -30 140 32
      vertex -30 140 30
    endloop
  endfacet
  facet normal 1 0 0
    outer loop
      vertex -30 260 20
      vertex -30 240 30
      vertex -30 240 20
    endloop
  endfacet
  facet normal 0 0 -1
    outer loop
      vertex -30 140 32
      vertex 20 260 32
      vertex 20 140 32
    endloop
  endfacet
  facet normal -0 0 -1
    outer loop
      vertex 20 260 32
      vertex -30 140 32
      vertex -30 260 32
    endloop
  endfacet
  facet normal 0 -1 0
    outer loop
      vertex -30 260 20
      vertex 20 260 32
      vertex -30 260 32
    endloop
  endfacet
  facet normal 0 -1 -0
    outer loop
      vertex 20 260 32
      vertex -30 260 20
      vertex 20 260 20
    endloop
  endfacet
  facet normal -0.866023 -0.500004 0
    outer loop
      vertex 1.7 280 20
      vertex 0.849999 281.472 35
      vertex 0.849999 281.472 20
    endloop
  endfacet
  facet normal -0.866023 -0.500004 0
    outer loop
      vertex 0.849999 281.472 35
      vertex 1.7 280 20
      vertex 1.7 280 35
    endloop
  endfacet
  facet normal 0 1 -0
    outer loop
      vertex 0.849999 278.528 20
      vertex -0.849999 278.528 35
      vertex 0.849999 278.528 35
    endloop
  endfacet
  facet normal 0 1 0
    outer loop
      vertex -0.849999 278.528 35
      vertex 0.849999 278.528 20
      vertex -0.849999 278.528 20
    endloop
  endfacet
  facet normal 0.866023 -0.500004 0
    outer loop
      vertex -1.7 280 35
      vertex -0.849999 281.472 20
      vertex -0.849999 281.472 35
    endloop
  endfacet
  facet normal 0.866023 -0.500004 0
    outer loop
      vertex -0.849999 281.472 20
      vertex -1.7 280 35
      vertex -1.7 280 20
    endloop
  endfacet
  facet normal 0 -1 0
    outer loop
      vertex -0.849999 281.472 20
      vertex 0.849999 281.472 35
      vertex -0.849999 281.472 35
    endloop
  endfacet
  facet normal 0 -1 -0
    outer loop
      vertex 0.849999 281.472 35
      vertex -0.849999 281.472 20
      vertex 0.849999 281.472 20
    endloop
  endfacet
  facet normal 0.866023 0.500004 0
    outer loop
      vertex -0.849999 278.528 35
      vertex -1.7 280 20
      vertex -1.7 280 35
    endloop
  endfacet
  facet normal 0.866023 0.500004 0
    outer loop
      vertex -1.7 280 20
      vertex -0.849999 278.528 35
      vertex -0.849999 278.528 20
    endloop
  endfacet
  facet normal -0.866023 0.500004 0
    outer loop
      vertex 0.849999 278.528 20
      vertex 1.7 280 35
      vertex 1.7 280 20
    endloop
  endfacet
  facet normal -0.866023 0.500004 0
    outer loop
      vertex 1.7 280 35
      vertex 0.849999 278.528 20
      vertex 0.849999 278.528 35
    endloop
  endfacet
  facet normal -0.951057 -0.309015 0
    outer loop
      vertex 3 280 35
      vertex 2.42705 281.763 38.942
      vertex 2.42705 281.763 35
    endloop
  endfacet
  facet normal -0.951057 -0.309015 0
    outer loop
      vertex 2.42705 281.763 38.942
      vertex 3 280 35
      vertex 3 280 39.7684
    endloop
  endfacet
  facet normal 0 -1 0
    outer loop
      vertex 0.927051 282.853 35
      vertex 0.32135 282.853 38.8147
      vertex -0.927051 282.853 38.5391
    endloop
  endfacet
  facet normal 0 -1 0
    outer loop
      vertex 0.927051 282.853 35
      vertex -0.927051 282.853 38.5391
      vertex -0.927051 282.853 35
    endloop
  endfacet
  facet normal 0 -1 0
    outer loop
      vertex 0.32135 282.853 38.8147
      vertex 0.927051 282.853 35
      vertex 0.927051 282.853 38.6821
    endloop
  endfacet
  facet normal -0.587785 -0.809017 0
    outer loop
      vertex 2.42705 281.763 35
      vertex 0.927051 282.853 38.6821
      vertex 0.927051 282.853 35
    endloop
  endfacet
  facet normal -0.587785 -0.809017 0
    outer loop
      vertex 0.927051 282.853 38.6821
      vertex 2.42705 281.763 35
      vertex 2.42705 281.763 38.942
    endloop
  endfacet
  facet normal 0 0 1
    outer loop
      vertex 1.7 280 35
      vertex 3 280 35
      vertex 2.42705 281.763 35
    endloop
  endfacet
  facet normal 0 0 1
    outer loop
      vertex 3 280 35
      vertex 1.7 280 35
      vertex 2.42705 278.237 35
    endloop
  endfacet
  facet normal 0 0 1
    outer loop
      vertex 0.849999 281.472 35
      vertex 2.42705 281.763 35
      vertex 0.927051 282.853 35
    endloop
  endfacet
  facet normal 0 0 1
    outer loop
      vertex 2.42705 281.763 35
      vertex 0.849999 281.472 35
      vertex 1.7 280 35
    endloop
  endfacet
  facet normal 0 0 1
    outer loop
      vertex 0.927051 282.853 35
      vertex -0.849999 281.472 35
      vertex 0.849999 281.472 35
    endloop
  endfacet
  facet normal -0 0 1
    outer loop
      vertex -0.927051 282.853 35
      vertex -0.849999 281.472 35
      vertex 0.927051 282.853 35
    endloop
  endfacet
  facet normal -0 0 1
    outer loop
      vertex -2.42705 281.763 35
      vertex -0.849999 281.472 35
      vertex -0.927051 282.853 35
    endloop
  endfacet
  facet normal 0 0 1
    outer loop
      vertex -0.849999 281.472 35
      vertex -2.42705 281.763 35
      vertex -1.7 280 35
    endloop
  endfacet
  facet normal -0 0 1
    outer loop
      vertex 0.849999 278.528 35
      vertex 2.42705 278.237 35
      vertex 1.7 280 35
    endloop
  endfacet
  facet normal 0 0 1
    outer loop
      vertex 2.42705 278.237 35
      vertex 0.849999 278.528 35
      vertex 0.927051 277.147 35
    endloop
  endfacet
  facet normal -0 0 1
    outer loop
      vertex -0.849999 278.528 35
      vertex 0.927051 277.147 35
      vertex 0.849999 278.528 35
    endloop
  endfacet
  facet normal 0 0 1
    outer loop
      vertex -0.849999 278.528 35
      vertex -0.927051 277.147 35
      vertex 0.927051 277.147 35
    endloop
  endfacet
  facet normal 0 0 1
    outer loop
      vertex -2.42705 278.237 35
      vertex -0.849999 278.528 35
      vertex -1.7 280 35
    endloop
  endfacet
  facet normal 0 0 1
    outer loop
      vertex -3 280 35
      vertex -1.7 280 35
      vertex -2.42705 281.763 35
    endloop
  endfacet
  facet normal 0 0 1
    outer loop
      vertex -0.849999 278.528 35
      vertex -2.42705 278.237 35
      vertex -0.927051 277.147 35
    endloop
  endfacet
  facet normal 0 0 1
    outer loop
      vertex -1.7 280 35
      vertex -3 280 35
      vertex -2.42705 278.237 35
    endloop
  endfacet
  facet normal -0.951057 0.309015 0
    outer loop
      vertex 2.42705 278.237 35
      vertex 3 280 39.7684
      vertex 3 280 35
    endloop
  endfacet
  facet normal -0.951057 0.309015 0
    outer loop
      vertex 3 280 39.7684
      vertex 2.42705 278.237 35
      vertex 2.42705 278.237 40.8456
    endloop
  endfacet
  facet normal -0.587785 0.809017 0
    outer loop
      vertex 0.927051 277.147 35
      vertex 2.42705 278.237 40.8456
      vertex 2.42705 278.237 35
    endloop
  endfacet
  facet normal -0.587785 0.809017 0
    outer loop
      vertex 2.42705 278.237 40.8456
      vertex 0.927051 277.147 35
      vertex 0.927051 277.147 41.7622
    endloop
  endfacet
  facet normal 0.587785 0.809017 -0
    outer loop
      vertex -0.927051 277.147 35
      vertex -2.42705 278.237 40.6998
      vertex -0.927051 277.147 41.6191
    endloop
  endfacet
  facet normal 0.587785 0.809017 0
    outer loop
      vertex -2.42705 278.237 40.6998
      vertex -0.927051 277.147 35
      vertex -2.42705 278.237 35
    endloop
  endfacet
  facet normal 0.587785 -0.809017 0
    outer loop
      vertex -2.42705 281.763 35
      vertex -0.927051 282.853 38.5391
      vertex -2.42705 281.763 38.7962
    endloop
  endfacet
  facet normal 0.587785 -0.809017 0
    outer loop
      vertex -0.927051 282.853 38.5391
      vertex -2.42705 281.763 35
      vertex -0.927051 282.853 35
    endloop
  endfacet
  facet normal 0.951057 0.309015 -0
    outer loop
      vertex -2.42705 278.237 35
      vertex -3 280 39.6215
      vertex -2.42705 278.237 40.6998
    endloop
  endfacet
  facet normal 0.951057 0.309015 0
    outer loop
      vertex -3 280 39.6215
      vertex -2.42705 278.237 35
      vertex -3 280 35
    endloop
  endfacet
  facet normal 0.951057 -0.309015 0
    outer loop
      vertex -3 280 35
      vertex -2.42705 281.763 38.7962
      vertex -3 280 39.6215
    endloop
  endfacet
  facet normal 0.951057 -0.309015 0
    outer loop
      vertex -2.42705 281.763 38.7962
      vertex -3 280 35
      vertex -2.42705 281.763 35
    endloop
  endfacet
  facet normal 0 1 0
    outer loop
      vertex 0.927051 277.147 41.7622
      vertex -0.927051 277.147 41.6191
      vertex 0.32135 277.147 41.8947
    endloop
  endfacet
  facet normal 0 1 -0
    outer loop
      vertex 0.927051 277.147 35
      vertex -0.927051 277.147 41.6191
      vertex 0.927051 277.147 41.7622
    endloop
  endfacet
  facet normal 0 1 0
    outer loop
      vertex -0.927051 277.147 41.6191
      vertex 0.927051 277.147 35
      vertex -0.927051 277.147 35
    endloop
  endfacet
  facet normal 0 -1 0
    outer loop
      vertex -85 140 20
      vertex -98.9118 140 29.1316
      vertex -110.603 140 26.2025
    endloop
  endfacet
  facet normal 0 -1 0
    outer loop
      vertex -85 140 20
      vertex -110.603 140 26.2025
      vertex -113.877 140 25.0881
    endloop
  endfacet
  facet normal 0 -1 0
    outer loop
      vertex -85 140 20
      vertex -113.877 140 25.0881
      vertex -116.586 140 24.0618
    endloop
  endfacet
  facet normal 0 -1 0
    outer loop
      vertex -85 140 20
      vertex -116.586 140 24.0618
      vertex -124.505 140 20
    endloop
  endfacet
  facet normal 0 -1 0
    outer loop
      vertex -98.9118 140 29.1316
      vertex -85 140 20
      vertex -85 140 28
    endloop
  endfacet
  facet normal 0 -1 0
    outer loop
      vertex -95.4322 140 31.2965
      vertex -85 140 28
      vertex -91.7094 140 32.054
    endloop
  endfacet
  facet normal 0 -1 0
    outer loop
      vertex -91.7094 140 32.054
      vertex -85 140 28
      vertex -40 140 30
    endloop
  endfacet
  facet normal 0 -1 -0
    outer loop
      vertex -40 140 30
      vertex -85 140 28
      vertex -40 140 28
    endloop
  endfacet
  facet normal 0 -1 0
    outer loop
      vertex -85 140 28
      vertex -95.4322 140 31.2965
      vertex -98.9118 140 29.1316
    endloop
  endfacet
  facet normal 0 -1 0
    outer loop
      vertex -91.7094 140 32.054
      vertex -40 140 30
      vertex -30 140 32
    endloop
  endfacet
  facet normal 0 -1 -0
    outer loop
      vertex -30 140 32
      vertex -40 140 30
      vertex -30 140 30
    endloop
  endfacet
  facet normal 0 -1 0
    outer loop
      vertex -30 140 32
      vertex 0.32135 140 48.3408
      vertex -19.3202 140 45.3645
    endloop
  endfacet
  facet normal 0 -1 0
    outer loop
      vertex -30 140 32
      vertex -19.3202 140 45.3645
      vertex -22.5619 140 44.1692
    endloop
  endfacet
  facet normal 0 -1 0
    outer loop
      vertex -30 140 32
      vertex -22.5619 140 44.1692
      vertex -26.3677 140 43.1269
    endloop
  endfacet
  facet normal 0 -1 0
    outer loop
      vertex -30 140 32
      vertex -26.3677 140 43.1269
      vertex -33.7612 140 42.1572
    endloop
  endfacet
  facet normal 0 -1 0
    outer loop
      vertex -30 140 32
      vertex -33.7612 140 42.1572
      vertex -40.2884 140 40.581
    endloop
  endfacet
  facet normal 0 -1 0
    outer loop
      vertex -30 140 32
      vertex -40.2884 140 40.581
      vertex -43.7398 140 40.0479
    endloop
  endfacet
  facet normal 0 -1 0
    outer loop
      vertex -30 140 32
      vertex -43.7398 140 40.0479
      vertex -49.9769 140 38.7654
    endloop
  endfacet
  facet normal 0 -1 0
    outer loop
      vertex -30 140 32
      vertex -49.9769 140 38.7654
      vertex -53.0865 140 38.1824
    endloop
  endfacet
  facet normal 0 -1 0
    outer loop
      vertex -30 140 32
      vertex -53.0865 140 38.1824
      vertex -54.4108 140 37.9513
    endloop
  endfacet
  facet normal 0 -1 0
    outer loop
      vertex -30 140 32
      vertex -54.4108 140 37.9513
      vertex -78.3504 140 34.9143
    endloop
  endfacet
  facet normal 0 -1 0
    outer loop
      vertex -30 140 32
      vertex -78.3504 140 34.9143
      vertex -91.7094 140 32.054
    endloop
  endfacet
  facet normal 0 -1 -0
    outer loop
      vertex 0.32135 140 48.3408
      vertex -30 140 32
      vertex 20 140 32
    endloop
  endfacet
  facet normal 0 -1 0
    outer loop
      vertex 0.32135 140 48.3408
      vertex 20 140 32
      vertex 20 140 45.3515
    endloop
  endfacet
  facet normal 1 0 0
    outer loop
      vertex 20 244.213 48.1397
      vertex 20 260 32
      vertex 20 263.275 43.092
    endloop
  endfacet
  facet normal 1 -0 0
    outer loop
      vertex 20 211.545 47.8222
      vertex 20 260 32
      vertex 20 244.213 48.1397
    endloop
  endfacet
  facet normal 1 0 0
    outer loop
      vertex 20 180.949 45.8737
      vertex 20 211.545 47.8222
      vertex 20 206.238 48.9602
    endloop
  endfacet
  facet normal 1 0 0
    outer loop
      vertex 20 211.545 47.8222
      vertex 20 180.949 45.8737
      vertex 20 260 32
    endloop
  endfacet
  facet normal 1 0 0
    outer loop
      vertex 20 140 32
      vertex 20 180.949 45.8737
      vertex 20 174.1 45.6421
    endloop
  endfacet
  facet normal 1 0 0
    outer loop
      vertex 20 140 32
      vertex 20 174.1 45.6421
      vertex 20 149.409 45.4067
    endloop
  endfacet
  facet normal 1 0 0
    outer loop
      vertex 20 140 32
      vertex 20 149.409 45.4067
      vertex 20 140.003 45.3519
    endloop
  endfacet
  facet normal 1 0 0
    outer loop
      vertex 20 140 32
      vertex 20 140.003 45.3519
      vertex 20 140 45.3515
    endloop
  endfacet
  facet normal 1 0 0
    outer loop
      vertex 20 180.949 45.8737
      vertex 20 140 32
      vertex 20 260 32
    endloop
  endfacet
  facet normal 1 0 0
    outer loop
      vertex 20 285.765 23.9334
      vertex 20 285.485 20
      vertex 20 286.429 22.4956
    endloop
  endfacet
  facet normal 1 0 0
    outer loop
      vertex 20 284.085 29.1993
      vertex 20 285.765 23.9334
      vertex 20 285.398 27.3694
    endloop
  endfacet
  facet normal 1 0 0
    outer loop
      vertex 20 285.765 23.9334
      vertex 20 284.085 29.1993
      vertex 20 285.485 20
    endloop
  endfacet
  facet normal 1 0 0
    outer loop
      vertex 20 278.646 36.7782
      vertex 20 284.085 29.1993
      vertex 20 281.071 35.4697
    endloop
  endfacet
  facet normal 1 0 0
    outer loop
      vertex 20 260 20
      vertex 20 284.085 29.1993
      vertex 20 278.646 36.7782
    endloop
  endfacet
  facet normal 1 0 0
    outer loop
      vertex 20 260 32
      vertex 20 278.646 36.7782
      vertex 20 267.371 41.8022
    endloop
  endfacet
  facet normal 1 0 0
    outer loop
      vertex 20 260 32
      vertex 20 267.371 41.8022
      vertex 20 263.275 43.092
    endloop
  endfacet
  facet normal 1 0 0
    outer loop
      vertex 20 260 20
      vertex 20 278.646 36.7782
      vertex 20 260 32
    endloop
  endfacet
  facet normal 1 0 0
    outer loop
      vertex 20 284.085 29.1993
      vertex 20 260 20
      vertex 20 285.485 20
    endloop
  endfacet
endsolid OpenSCAD_Model
